STARTFONT 2.3
FONT -FontForge-Righteous-Book-R-Normal--32-320-72-72-P-173-ISO10646-1
SIZE 32 72 72  2
FONTBOUNDINGBOX 40 39 -5 -8
COMMENT "Generated by fontforge, http://fontforge.sourceforge.net"
COMMENT "Copyright (c) 2011 by Brian J. Bonislawsky DBA Astigmatic (AOETI) (astigma@astigmatic.com), with ReservedFont Name "Righteous""
STARTPROPERTIES 40
FOUNDRY "FontForge"
FAMILY_NAME "Righteous"
WEIGHT_NAME "Book"
SLANT "R"
SETWIDTH_NAME "Normal"
ADD_STYLE_NAME ""
PIXEL_SIZE 32
POINT_SIZE 320
RESOLUTION_X 72
RESOLUTION_Y 72
SPACING "P"
AVERAGE_WIDTH 173
CHARSET_REGISTRY "ISO10646"
CHARSET_ENCODING "1"
FONTNAME_REGISTRY ""
CHARSET_COLLECTIONS "ISO8859-2 ISO8859-9 ISO8859-4 ISO10646-1"
BITS_PER_PIXEL 2
FONT_NAME "Righteous-Regular"
FACE_NAME "Righteous"
COPYRIGHT "Copyright (c) 2011 by Brian J. Bonislawsky DBA Astigmatic (AOETI) (astigma@astigmatic.com), with ReservedFont Name "Righteous""
FONT_VERSION "1.000"
FONT_ASCENT 26
FONT_DESCENT 6
UNDERLINE_POSITION -4
UNDERLINE_THICKNESS 1
X_HEIGHT 16
CAP_HEIGHT 22
RAW_ASCENT 799
RAW_DESCENT 200
NORM_SPACE 9
RELATIVE_WEIGHT 40
RELATIVE_SETWIDTH 50
SUPERSCRIPT_X 0
SUPERSCRIPT_Y 15
SUPERSCRIPT_SIZE 20
SUBSCRIPT_X 0
SUBSCRIPT_Y 4
SUBSCRIPT_SIZE 20
AVG_LOWERCASE_WIDTH 170
AVG_UPPERCASE_WIDTH 205
ENDPROPERTIES
CHARS 372
STARTCHAR space
ENCODING 32
SWIDTH 279 0
DWIDTH 9 0
BBX 1 1 0 0
BITMAP
00
ENDCHAR
STARTCHAR exclam
ENCODING 33
SWIDTH 274 0
DWIDTH 9 0
BBX 6 24 1 -1
BITMAP
1550
7FF0
7FF0
3FF0
3FF0
3FE0
3FE0
3FE0
3FE0
2FE0
2FE0
2FD0
2FD0
2FD0
2FD0
1FD0
1FD0
0540
0100
1FD0
3FF0
7FF0
3FE0
1F80
ENDCHAR
STARTCHAR quotedbl
ENCODING 34
SWIDTH 409 0
DWIDTH 13 0
BBX 11 8 1 15
BITMAP
554554
7FCFF4
7FCBF4
7F8BF4
3F8BF0
3F8BF0
3F87F0
2A46A0
ENDCHAR
STARTCHAR numbersign
ENCODING 35
SWIDTH 561 0
DWIDTH 18 0
BBX 16 16 1 3
BITMAP
00154154
003F87F4
003F87F0
05BF9FF5
0BFFFFFE
0FFFFFFD
1BFFBFE8
02FC3F80
02FC3F80
2BFEFFE4
7FFFFFF0
BFFFFFE0
5FE6FE50
1FD2FC00
1FD2FC00
15415400
ENDCHAR
STARTCHAR dollar
ENCODING 36
SWIDTH 458 0
DWIDTH 15 0
BBX 13 23 1 0
BITMAP
00150000
003F0000
003F0000
003F0000
003F5400
0BFFFE00
2FFFFE00
7FFFFE00
BF555400
BF000000
7FFFF400
2FFFFE00
0BFFFF40
01557F40
15557F40
BFFFFF00
BFFFFE00
BFFFF400
157F4000
003F0000
003F0000
003F0000
003F0000
ENDCHAR
STARTCHAR percent
ENCODING 37
SWIDTH 685 0
DWIDTH 22 0
BBX 20 24 1 -1
BITMAP
06A4000550
1FFE000FD0
7FFF402F80
BE6FC03F40
BD0FC0BE00
BD0BC1FD00
BD0FC2F800
BD0FC7F000
7F6F8FE000
3FFF5FC000
1FFE3F4000
0194BF0000
0000FD2FD0
0002F8FFF8
0007F6FFFD
000BE3F4BE
001FC7F07E
002F87E07E
007F07E07E
00FD03F0BE
01FC02FEFD
03F401FFF8
0BE0007FE0
0000000500
ENDCHAR
STARTCHAR ampersand
ENCODING 38
SWIDTH 485 0
DWIDTH 16 0
BBX 12 23 2 0
BITMAP
001500
002F40
002F40
01BFA9
1FFFFE
3FFFFE
BFEAA9
FE0000
FD0000
FE0000
BFEA80
3FFFC0
7FFFC0
BFAA80
FE0000
FD0000
FE0000
BFFFFE
3FFFFE
0BFFFE
017F95
002F40
002F40
ENDCHAR
STARTCHAR quotesingle
ENCODING 39
SWIDTH 238 0
DWIDTH 8 0
BBX 5 8 1 15
BITMAP
5540
7FC0
7FC0
7F80
3F80
3F80
3F80
2A40
ENDCHAR
STARTCHAR parenleft
ENCODING 40
SWIDTH 351 0
DWIDTH 11 0
BBX 10 30 1 -4
BITMAP
002A90
00FFC0
02FF40
07FE00
0BFC00
1FF800
2FF400
3FF000
3FE000
7FD000
BFC000
BFC000
BF8000
BF8000
BF8000
BF8000
BF8000
BFC000
7FC000
7FD000
3FE000
2FF000
1FF400
0FF800
0BFD00
07FE00
02FF40
00FF80
00BFD0
001540
ENDCHAR
STARTCHAR parenright
ENCODING 41
SWIDTH 351 0
DWIDTH 11 0
BBX 10 30 0 -4
BITMAP
6A9000
2FF400
0FF800
07FD00
03FF00
01FF40
00FF80
00BFC0
007FD0
003FE0
003FE0
002FF0
002FF0
002FF0
001FF0
002FF0
002FF0
002FF0
003FE0
003FD0
007FD0
00BFC0
00FF80
02FF40
03FF00
07FD00
0FFC00
2FF400
3FE000
154000
ENDCHAR
STARTCHAR asterisk
ENCODING 42
SWIDTH 589 0
DWIDTH 19 0
BBX 17 17 1 10
BITMAP
0006A40000
000BF80000
000BF80000
040BF80400
1E4BF86D00
3FEFFAFE00
7FFFFFFF40
7FFFFFFF40
0BFFFFF800
01BFFF8000
007FFF0000
01FFFFC000
03FFFFE000
0BFF3FF800
0FFD1FFC00
02F407E000
00A0028000
ENDCHAR
STARTCHAR plus
ENCODING 43
SWIDTH 485 0
DWIDTH 16 0
BBX 14 13 1 5
BITMAP
007FC000
007FC000
007FC000
007FC000
55BFD540
BFFFFFD0
BFFFFFD0
BFFFFFD0
AAFFEA90
007FC000
007FC000
007FC000
007FC000
ENDCHAR
STARTCHAR comma
ENCODING 44
SWIDTH 264 0
DWIDTH 8 0
BBX 6 9 1 -4
BITMAP
0100
2F80
7FE0
7FF0
7FE0
1FE0
07D0
0F80
0700
ENDCHAR
STARTCHAR hyphen
ENCODING 45
SWIDTH 528 0
DWIDTH 17 0
BBX 13 5 2 9
BITMAP
55555540
FFFFFFC0
FFFFFFC0
FFFFFFC0
AAAAAA80
ENDCHAR
STARTCHAR period
ENCODING 46
SWIDTH 263 0
DWIDTH 8 0
BBX 6 6 1 -1
BITMAP
0100
2FC0
7FE0
7FE0
7FE0
1F80
ENDCHAR
STARTCHAR slash
ENCODING 47
SWIDTH 490 0
DWIDTH 16 0
BBX 14 23 1 0
BITMAP
00001550
00007FD0
0000BFC0
0000FF80
0001FF00
0003FE00
0007FD00
000BFC00
000FF800
002FF000
003FE000
007FD000
00BFC000
01FF4000
02FF0000
03FE0000
07FD0000
0BF80000
1FF40000
2FF00000
3FE00000
7FC00000
FF800000
ENDCHAR
STARTCHAR zero
ENCODING 48
SWIDTH 642 0
DWIDTH 21 0
BBX 19 24 1 -1
BITMAP
0006A90000
007FFFE000
02FFFFFD00
0BFFFFFF00
1FFE9BFF80
2FF800FFC0
3FE0007FE0
7FD0002FE0
7FC0001FF0
BF80001FF0
BF80000FF0
BF80000FF4
BF80000FF4
BF80000FF0
BFC0001FF0
7FC0001FF0
3FD0003FE0
3FF0007FD0
1FFD01FFC0
0FFFFFFF40
07FFFFFE00
01FFFFF800
002FFF9000
0000540000
ENDCHAR
STARTCHAR one
ENCODING 49
SWIDTH 317 0
DWIDTH 10 0
BBX 7 23 1 0
BITMAP
5554
BFFC
BFFC
BFFC
BFFC
0BFC
0BFC
0BFC
0BFC
0BFC
0BFC
0BFC
0BFC
0BFC
0BFC
0BFC
0BFC
0BFC
0BFC
0BFC
0BFC
0BFC
0BFC
ENDCHAR
STARTCHAR two
ENCODING 50
SWIDTH 570 0
DWIDTH 18 0
BBX 16 23 1 0
BITMAP
15555400
2FFFFF80
2FFFFFF0
2FFFFFF8
2FFFFFFD
000007FE
000002FF
000001FF
000002FF
00155BFE
01FFFFFD
0BFFFFF8
1FFFFFE0
3FFFFE40
7FE40000
BFC00000
BFC00000
BFC00000
BFD55555
BFFFFFFD
BFFFFFFD
BFFFFFFD
BFFFFFFD
ENDCHAR
STARTCHAR three
ENCODING 51
SWIDTH 586 0
DWIDTH 19 0
BBX 17 23 1 0
BITMAP
5555540000
7FFFFF8000
7FFFFFF400
7FFFFFFC00
7FFFFFFE00
000007FF00
000001FF40
000001FF40
000002FF00
01555BFF00
02FFFFFD00
02FFFFF800
02FFFFFC00
02FFFFFE00
000007FF00
000001FF40
000001FF40
000002FF00
55556BFF00
7FFFFFFD00
7FFFFFF800
7FFFFFE000
7FFFFE4000
ENDCHAR
STARTCHAR four
ENCODING 52
SWIDTH 630 0
DWIDTH 20 0
BBX 18 23 1 0
BITMAP
0554000000
0BF8000000
0FF8000000
0FF403FE00
0FF403FE00
1FF403FE00
1FF003FE00
2FF003FE00
2FE003FE00
2FE003FE00
3FD003FE00
3FD003FE00
7FD003FE00
7FC003FE00
BFFFFFFFE0
BFFFFFFFF0
BFFFFFFFF0
FFFFFFFFF0
AAAAABFE90
000003FE00
000003FE00
000003FE00
000003FE00
ENDCHAR
STARTCHAR five
ENCODING 53
SWIDTH 585 0
DWIDTH 19 0
BBX 17 23 1 0
BITMAP
0555555500
1FFFFFFE00
1FFFFFFE00
1FFFFFFE00
2FFFFFFE00
2FF0000000
2FE0000000
3FE0000000
3FE0000000
3FFFFE4000
3FFFFFF400
7FFFFFFC00
7FFFFFFE00
55555BFF40
000001FF40
000000FF80
000000FF80
000001FF40
55555BFF40
7FFFFFFE00
7FFFFFFC00
7FFFFFF000
7FFFFE4000
ENDCHAR
STARTCHAR six
ENCODING 54
SWIDTH 615 0
DWIDTH 20 0
BBX 18 24 1 -1
BITMAP
0005550000
002FFD0000
007FF40000
01FFC00000
03FF400000
0BFD000000
0FF9A94000
1FFFFFE000
3FFFFFFD00
3FFFFFFF00
7FFE5BFF80
BFF401FFC0
BFE000BFD0
BFD0003FD0
BFC0003FE0
BFC0003FE0
BFD0007FD0
7FF000BFC0
3FFD02FF80
1FFFFFFF40
0BFFFFFE00
02FFFFF800
007FFFD000
0005A50000
ENDCHAR
STARTCHAR seven
ENCODING 55
SWIDTH 516 0
DWIDTH 17 0
BBX 16 23 0 0
BITMAP
15555555
7FFFFFFF
7FFFFFFE
7FFFFFFD
7FFFFFFC
00000FF8
00001FF4
00002FF0
00003FE0
00007FD0
0000BFC0
0000FF80
0001FF40
0002FF00
0003FE00
0007FD00
000BFC00
000FF800
001FF400
002FF000
003FE000
007FD000
00BFC000
ENDCHAR
STARTCHAR eight
ENCODING 56
SWIDTH 618 0
DWIDTH 20 0
BBX 18 24 1 -1
BITMAP
001BFE4000
00BFFFE000
03FFFFF800
0BFFFFFE00
1FFD1BFF00
1FF401FF40
2FF000FF40
1FF001FF40
0FF803FF00
0BFFAFFD00
02FFFFF800
07FFFFFD00
1FFFFFFF00
3FF806FF80
7FD000BFD0
BF80003FE0
FF80002FE0
BF80003FE0
BFD000BFD0
3FF957FFC0
1FFFFFFF40
07FFFFFD00
00BFFFE000
0005A50000
ENDCHAR
STARTCHAR nine
ENCODING 57
SWIDTH 616 0
DWIDTH 20 0
BBX 18 23 1 0
BITMAP
001BFA0000
01FFFFE000
07FFFFF800
1FFFFFFE00
2FFE6FFF40
7FF402FF80
BFD000FFC0
BF8000BFD0
FF80007FD0
FF80007FD0
BFC000BFD0
BFD001FFD0
7FF807FFC0
2FFFFFFFC0
0FFFFFFF80
07FFFFFF40
00BFFBFF00
000147FE00
00000FFC00
00003FF400
0000BFE000
0002FF8000
001FFE0000
ENDCHAR
STARTCHAR colon
ENCODING 58
SWIDTH 276 0
DWIDTH 9 0
BBX 6 14 1 -1
BITMAP
1FD0
3FF0
7FF0
3FF0
1FD0
0000
0000
0000
0100
1FD0
3FF0
7FF0
3FE0
1F90
ENDCHAR
STARTCHAR semicolon
ENCODING 59
SWIDTH 276 0
DWIDTH 9 0
BBX 6 17 1 -4
BITMAP
1FD0
3FF0
7FF0
3FF0
1FD0
0000
0000
0000
0100
1FD0
3FF0
7FF0
3FF0
1FE0
07D0
0BC0
0740
ENDCHAR
STARTCHAR less
ENCODING 60
SWIDTH 478 0
DWIDTH 15 0
BBX 13 19 1 3
BITMAP
00002000
0000B800
0002FE00
000BFF40
002FFE00
00BFF800
02FFE000
0BFF8000
2FFE0000
BFF80000
BFFD0000
1FFF4000
07FFD000
01FFF400
007FFD00
001FFF40
0007FE00
0001FC00
00002000
ENDCHAR
STARTCHAR equal
ENCODING 61
SWIDTH 539 0
DWIDTH 17 0
BBX 14 11 2 6
BITMAP
AAAAAA80
FFFFFFD0
FFFFFFD0
FFFFFFD0
AAAAAA80
00000000
55555540
FFFFFFD0
FFFFFFD0
FFFFFFD0
FFFFFFD0
ENDCHAR
STARTCHAR greater
ENCODING 62
SWIDTH 478 0
DWIDTH 15 0
BBX 13 19 1 3
BITMAP
01400000
07D00000
2FF40000
7FFD0000
1FFF0000
07FFC000
01FFF000
007FFC00
001FFE00
0007FF80
000BFF80
002FFE00
00FFF800
07FFE000
1FFF8000
3FFD0000
2FF40000
0BD00000
02400000
ENDCHAR
STARTCHAR question
ENCODING 63
SWIDTH 603 0
DWIDTH 19 0
BBX 18 24 1 -1
BITMAP
5555550000
BFFFFFE000
BFFFFFFD00
BFFFFFFF00
BFFFFFFF80
000001FFC0
0000007FC0
0000007FD0
000000BFC0
000016FFC0
0002FFFF40
000FFFFE00
002FFFF800
007FFF9000
00BFD00000
00FF800000
00FF800000
0055400000
0004000000
007F400000
00FF800000
01FFC00000
00FF800000
007E000000
ENDCHAR
STARTCHAR at
ENCODING 64
SWIDTH 629 0
DWIDTH 20 0
BBX 18 19 1 -1
BITMAP
0000500000
002FFF9000
01FFFFF800
07FFAFFE00
1FF401BF80
2FC05AAFC0
7F47FFCBE0
BE1FFFC7F0
BD3FAFC3F0
BD3F0FC3F0
BD3F5FC3F0
BE2FFFFFF0
7F0FFFFFE0
3F81AAAA80
1FE0000000
07FE580000
01FFFD0000
006FFD0000
0001A50000
ENDCHAR
STARTCHAR A
ENCODING 65
SWIDTH 673 0
DWIDTH 22 0
BBX 19 23 1 0
BITMAP
0000550000
001BFFE000
00BFFFFD00
02FFFFFF40
0BFFFFFFD0
1FFE41FFE0
2FF8003FF4
3FF0001FF4
3FD0000FF8
3FD0000BF8
7FD0000BF8
7FD0000BF8
7FD0000BF8
7FD0000BF8
7FFFFFFFF8
7FFFFFFFF8
7FFFFFFFF8
7FFFFFFFF8
7FEAAAAFF8
7FD0000BF8
7FD0000BF8
7FD0000BF8
7FD0000BF8
ENDCHAR
STARTCHAR B
ENCODING 66
SWIDTH 666 0
DWIDTH 21 0
BBX 18 23 2 0
BITMAP
5555554000
FFFFFFF800
FFFFFFFE00
FFFFFFFF80
FFFFFFFFD0
FF8000BFE0
FF80002FF0
FF80002FF0
FF80003FE0
FF9555BFD0
FFFFFFFFC0
FFFFFFFF00
FFFFFFFF40
FFFFFFFFD0
FF80007FE0
FF80002FF0
FF80002FF0
FF80003FF0
FF9556FFE0
FFFFFFFFC0
FFFFFFFF40
FFFFFFFD00
FFFFFFE000
ENDCHAR
STARTCHAR C
ENCODING 67
SWIDTH 640 0
DWIDTH 20 0
BBX 19 24 1 -1
BITMAP
00006AA400
000BFFFF80
007FFFFFF4
02FFFFFFF8
07FFFEFFF0
1FFF4007D0
2FF8000080
7FE0000000
BFD0000000
FF80000000
FF40000000
FF40000000
FF40000000
FF80000000
BFC0000000
BFD0000000
7FF0000000
2FFD0001C0
0FFF901BE0
07FFFFFFF4
01FFFFFFF8
006FFFFFE0
0006FFFE40
0000155000
ENDCHAR
STARTCHAR D
ENCODING 68
SWIDTH 653 0
DWIDTH 21 0
BBX 18 23 2 0
BITMAP
5555400000
FFFFF90000
FFFFFF9000
FFFFFFF400
FFFFFFFD00
FF806FFF00
FF8007FF80
FF8000FFC0
FF80007FE0
FF80003FE0
FF80002FF0
FF80001FF0
FF80002FF0
FF80002FF0
FF80003FE0
FF8000BFD0
FF8001FFC0
FF800BFF40
FF96BFFE00
FFFFFFFC00
FFFFFFE000
FFFFFF4000
FFFFE40000
ENDCHAR
STARTCHAR E
ENCODING 69
SWIDTH 578 0
DWIDTH 19 0
BBX 16 23 2 0
BITMAP
55555555
FFFFFFFD
FFFFFFFD
FFFFFFFD
FFFFFFFD
FF800000
FF800000
FF800000
FF800000
FF955500
FFFFFF00
FFFFFF00
FFFFFF00
FFFFFF00
FF800000
FF800000
FF800000
FF800000
FF955555
FFFFFFFD
FFFFFFFD
FFFFFFFD
FFFFFFFD
ENDCHAR
STARTCHAR F
ENCODING 70
SWIDTH 562 0
DWIDTH 18 0
BBX 16 23 2 0
BITMAP
55555555
FFFFFFFE
FFFFFFFE
FFFFFFFE
FFFFFFFE
FF800000
FF800000
FF800000
FF800000
FF955400
FFFFFD00
FFFFFD00
FFFFFD00
FFFFFD00
FF800000
FF800000
FF800000
FF800000
FF800000
FF800000
FF800000
FF800000
FF800000
ENDCHAR
STARTCHAR G
ENCODING 71
SWIDTH 665 0
DWIDTH 21 0
BBX 19 24 1 -1
BITMAP
00005A9400
000BFFFF40
007FFFFFF4
01FFFFFFF8
07FFFEFFF0
1FFF400BD0
2FF8000180
7FF0000000
BFD0000000
FF80000000
FF40000000
FF40000000
FF400007FC
FF800007FC
BF800007FC
BFD00007FC
7FF00007FC
2FFD0007FC
0FFF901BFC
07FFFFFFFC
01FFFFFFFC
006FFFFFE0
0006FFFE40
0000155000
ENDCHAR
STARTCHAR H
ENCODING 72
SWIDTH 689 0
DWIDTH 22 0
BBX 18 23 2 0
BITMAP
5540001550
FF80001FF0
FF80001FF0
FF80001FF0
FF80001FF0
FF80001FF0
FF80001FF0
FF80001FF0
FF80001FF0
FF95556FF0
FFFFFFFFF0
FFFFFFFFF0
FFFFFFFFF0
FFFFFFFFF0
FF80002FF0
FF80001FF0
FF80001FF0
FF80001FF0
FF80001FF0
FF80001FF0
FF80001FF0
FF80001FF0
FF80001FF0
ENDCHAR
STARTCHAR I
ENCODING 73
SWIDTH 270 0
DWIDTH 9 0
BBX 5 23 2 0
BITMAP
5540
FF80
FF80
FF80
FF80
FF80
FF80
FF80
FF80
FF80
FF80
FF80
FF80
FF80
FF80
FF80
FF80
FF80
FF80
FF80
FF80
FF80
FF80
ENDCHAR
STARTCHAR J
ENCODING 74
SWIDTH 416 0
DWIDTH 13 0
BBX 12 23 0 0
BITMAP
000155
0003FE
0003FE
0003FE
0003FE
0003FE
0003FE
0003FE
0003FE
0003FE
0003FE
0003FE
0003FE
0003FE
0003FD
0007FD
000BFC
002FF8
AAFFF4
BFFFE0
BFFF80
BFFD00
BF9000
ENDCHAR
STARTCHAR K
ENCODING 75
SWIDTH 625 0
DWIDTH 20 0
BBX 18 23 2 0
BITMAP
5540001550
FF8000BFD0
FF8002FF80
FF8007FE00
FF800FFC00
FF802FF400
FF807FE000
FF81FF8000
FF83FF0000
FF8BFD0000
FF9FFD0000
FFBFFE0000
FFFFFF4000
FFFFFF8000
FFFEBFD000
FFF87FF000
FFF02FF400
FFD00FFC00
FF800BFE00
FF8003FF00
FF8001FF80
FF8000FFD0
FF80007FE0
ENDCHAR
STARTCHAR L
ENCODING 76
SWIDTH 562 0
DWIDTH 18 0
BBX 16 23 2 0
BITMAP
55400000
FF800000
FF800000
FF800000
FF800000
FF800000
FF800000
FF800000
FF800000
FF800000
FF800000
FF800000
FF800000
FF800000
FF800000
FF800000
FF800000
FF800000
FF955555
FFFFFFFE
FFFFFFFE
FFFFFFFE
FFFFFFFE
ENDCHAR
STARTCHAR M
ENCODING 77
SWIDTH 819 0
DWIDTH 26 0
BBX 23 23 2 0
BITMAP
006A401A9000
07FFF5FFFD00
1FFFFFFFFF80
3FFFFFFFFFD0
BFFBFFFEFFE0
FFC0BFF02FF0
FF807FD01FF4
FF403FD00FF4
FF403FD00FF4
FF403FD00FF4
FF403FD00FF4
FF403FD00FF4
FF403FD00FF4
FF403FD00FF4
FF403FD00FF4
FF403FD00FF4
FF403FD00FF4
FF403FD00FF4
FF403FD00FF4
FF403FD00FF4
FF403FD00FF4
FF403FD00FF4
FF403FD00FF4
ENDCHAR
STARTCHAR N
ENCODING 78
SWIDTH 689 0
DWIDTH 22 0
BBX 18 23 2 0
BITMAP
5540001550
FFD0001FF0
FFF0001FF0
FFF8001FF0
FFFD001FF0
FFFE001FF0
FFFF401FF0
FFFFC01FF0
FFFFE01FF0
FFAFF01FF0
FF8FF81FF0
FF8BFD1FF0
FF83FE1FF0
FF81FF5FF0
FF80BFEFF0
FF807FFFF0
FF802FFFF0
FF800FFFF0
FF8007FFF0
FF8002FFF0
FF8001FFF0
FF8000BFF0
FF80003FF0
ENDCHAR
STARTCHAR O
ENCODING 79
SWIDTH 777 0
DWIDTH 25 0
BBX 23 24 1 -1
BITMAP
00005A940000
000BFFFF8000
007FFFFFF400
01FFFFFFFD00
07FFFEFFFF40
1FFF4007FFC0
2FF80000BFE0
7FE000003FF0
BFD000001FF4
FF8000000FF8
FF4000000BFC
FF40000007FC
FF40000007FC
FF8000000BFC
BFC000000FF8
BFD000001FF4
7FF000007FF0
2FFD0001FFE0
0FFF901BFFC0
07FFFFFFFF40
01FFFFFFFD00
006FFFFFE000
0006FFFE4000
000015500000
ENDCHAR
STARTCHAR P
ENCODING 80
SWIDTH 642 0
DWIDTH 21 0
BBX 18 23 2 0
BITMAP
5555540000
FFFFFF9000
FFFFFFF400
FFFFFFFE00
FFFFFFFF40
FF8006FFC0
FF8000BFD0
FF80003FE0
FF80002FF0
FF80002FF0
FF80002FF0
FF80003FE0
FF8000BFD0
FF8006FFC0
FFFFFFFF40
FFFFFFFE00
FFFFFFF800
FFFFFF9000
FFAA940000
FF80000000
FF80000000
FF80000000
FF80000000
ENDCHAR
STARTCHAR Q
ENCODING 81
SWIDTH 777 0
DWIDTH 25 0
BBX 23 28 1 -5
BITMAP
00005A940000
000BFFFF8000
007FFFFFF400
01FFFFFFFD00
07FFFEFFFF40
1FFF4007FFC0
2FF80000BFE0
7FE000003FF0
BFD000001FF4
FF8000000FF8
FF4000000BFC
FF40000007FC
FF40000007FC
FF8000000BFC
BFC000000FF8
BFD000001FF4
7FF000007FF0
2FFD0001FFE0
0FFF901BFFC0
07FFFFFFFF40
01FFFFFFFD00
006FFFFFE000
0006FFFF8000
000015BFD000
0000003FF000
0000001FF800
0000000BFD00
000000015500
ENDCHAR
STARTCHAR R
ENCODING 82
SWIDTH 651 0
DWIDTH 21 0
BBX 18 23 2 0
BITMAP
5555540000
FFFFFF9000
FFFFFFF400
FFFFFFFE00
FFFFFFFF40
FF8006FFC0
FF8000BFD0
FF80003FE0
FF80002FF0
FF80002FF0
FF80002FF0
FF80003FE0
FF8000BFD0
FF8006FFC0
FFFFFFFF40
FFFFFFFE00
FFFFFFF800
FFFFFFF000
FFAA6FF400
FF800FF800
FF800BFD00
FF8003FE00
FF8002FF00
ENDCHAR
STARTCHAR S
ENCODING 83
SWIDTH 610 0
DWIDTH 20 0
BBX 19 23 0 0
BITMAP
0005555550
00BFFFFFE0
07FFFFFFE0
0FFFFFFFE0
2FFFFFFFE0
3FF4000000
3FD0000000
7FD0000000
3FE0000000
3FF9555000
1FFFFFFD00
0BFFFFFF80
02FFFFFFD0
006FFFFFF0
0000002FF4
0000000FF8
0000000FF8
0000001FF8
055555BFF4
0FFFFFFFE0
0FFFFFFFD0
0FFFFFFF40
0FFFFFE400
ENDCHAR
STARTCHAR T
ENCODING 84
SWIDTH 578 0
DWIDTH 19 0
BBX 19 23 0 0
BITMAP
5555555550
BFFFFFFFF4
BFFFFFFFF4
BFFFFFFFF4
BFFFFFFFF4
0003FE0000
0003FD0000
0003FD0000
0003FD0000
0003FD0000
0003FD0000
0003FD0000
0003FD0000
0003FD0000
0003FD0000
0003FD0000
0003FD0000
0003FD0000
0003FD0000
0003FD0000
0003FD0000
0003FD0000
0003FD0000
ENDCHAR
STARTCHAR U
ENCODING 85
SWIDTH 673 0
DWIDTH 22 0
BBX 19 23 1 0
BITMAP
1540000554
7FD0000BF8
7FD0000BF8
7FD0000BF8
7FD0000BF8
7FD0000BF8
7FD0000BF8
7FD0000BF8
7FD0000BF8
7FD0000BF8
7FD0000BF8
7FD0000BF8
7FD0000BF8
7FD0000BF8
3FD0000BF8
3FE0000FF8
2FF0002FF4
1FFD007FF0
0FFFABFFE0
07FFFFFF80
01FFFFFF00
007FFFF800
0006FE9000
ENDCHAR
STARTCHAR V
ENCODING 86
SWIDTH 602 0
DWIDTH 19 0
BBX 19 23 0 0
BITMAP
5540000554
BFD0001FFC
7FE0001FF8
3FF0002FF4
2FF4003FF0
1FF8007FE0
0FFC00BFD0
0BFD00FFC0
07FD01FF80
03FE02FF40
02FF03FF00
01FF47FE00
00FF87FD00
00BFCBFC00
007FDFF800
003FFFF400
002FFFF000
001FFFE000
000FFFD000
000BFFC000
0007FF8000
0003FF4000
0002FF0000
ENDCHAR
STARTCHAR W
ENCODING 87
SWIDTH 819 0
DWIDTH 26 0
BBX 23 24 2 -1
BITMAP
550015400550
FF403FD00FF4
FF403FD00FF4
FF403FD00FF4
FF403FD00FF4
FF403FD00FF4
FF403FD00FF4
FF403FD00FF4
FF403FD00FF4
FF403FD00FF4
FF403FD00FF4
FF403FD00FF4
FF403FD00FF4
FF403FD00FF4
FF403FD00FF4
FF403FD00FF4
FF403FD01FF4
FF807FE01FF4
BFE5FFF57FF0
7FFFFFFFFFE0
2FFFFFFFFFC0
0BFFFFFFFF40
02FFE0BFF800
001500054000
ENDCHAR
STARTCHAR X
ENCODING 88
SWIDTH 608 0
DWIDTH 19 0
BBX 20 23 0 0
BITMAP
5550000554
7FF0001FFC
2FF8003FF4
1FFC00BFE0
0BFE01FFC0
03FF43FF40
01FFC7FF00
00BFEFFD00
007FFFF800
002FFFF000
000FFFD000
0007FF8000
000BFFC000
001FFFE000
002FFFF400
007FFFFC00
00FFDBFD00
02FF87FF00
07FF02FF80
0BFD00FFD0
1FFC007FF0
3FF4002FF8
BFE0001FFD
ENDCHAR
STARTCHAR Y
ENCODING 89
SWIDTH 620 0
DWIDTH 20 0
BBX 18 23 1 0
BITMAP
5540001550
FF40002FF0
FF40002FF0
FF40002FF0
FF40002FF0
FF40002FF0
FF40002FF0
FF40002FF0
FF80002FE0
BFC0007FE0
7FE000FFD0
3FFD5BFF80
1FFFFFFF40
0BFFFFFD00
01FFFFF400
002FFF8000
0007FC0000
0007FC0000
0007FC0000
0007FC0000
0007FC0000
0007FC0000
0007FC0000
ENDCHAR
STARTCHAR Z
ENCODING 90
SWIDTH 586 0
DWIDTH 19 0
BBX 18 23 0 0
BITMAP
1555555550
7FFFFFFFE0
7FFFFFFFC0
7FFFFFFF80
7FFFFFFF00
00000FFD00
00001FFC00
00003FF400
0000BFF000
0000FFD000
0002FF8000
0003FF4000
000BFE0000
001FFD0000
002FF80000
007FF00000
00BFE00000
01FFC00000
03FFD55550
07FFFFFFF0
0FFFFFFFF0
1FFFFFFFF0
3FFFFFFFF0
ENDCHAR
STARTCHAR bracketleft
ENCODING 91
SWIDTH 380 0
DWIDTH 12 0
BBX 9 30 2 -4
BITMAP
AAAA80
FFFFC0
FFFFC0
FFFFC0
FFFFC0
FF8000
FF8000
FF8000
FF8000
FF8000
FF8000
FF8000
FF8000
FF8000
FF8000
FF8000
FF8000
FF8000
FF8000
FF8000
FF8000
FF8000
FF8000
FF8000
FF9540
FFFFC0
FFFFC0
FFFFC0
FFFFC0
555540
ENDCHAR
STARTCHAR backslash
ENCODING 92
SWIDTH 490 0
DWIDTH 16 0
BBX 14 23 1 0
BITMAP
55400000
BFC00000
7FD00000
3FE00000
1FF00000
0FF80000
0BFC0000
07FD0000
03FE0000
01FF4000
00FF8000
00BFC000
007FD000
002FF000
001FF400
000FF800
000BFC00
0003FE00
0002FF00
0001FF40
0000FF80
00007FC0
00003FE0
ENDCHAR
STARTCHAR bracketright
ENCODING 93
SWIDTH 380 0
DWIDTH 12 0
BBX 10 30 1 -4
BITMAP
6AAA80
BFFFD0
BFFFD0
BFFFD0
BFFFD0
007FD0
007FD0
007FD0
007FD0
007FD0
007FD0
007FD0
007FD0
007FD0
007FD0
007FD0
007FD0
007FD0
007FD0
007FD0
007FD0
007FD0
007FD0
007FD0
55BFD0
BFFFD0
BFFFD0
BFFFD0
BFFFD0
155540
ENDCHAR
STARTCHAR asciicircum
ENCODING 94
SWIDTH 293 0
DWIDTH 9 0
BBX 9 8 0 15
BITMAP
004000
01E000
07F800
1FFE00
BFFF80
BF6FC0
2C0B40
000100
ENDCHAR
STARTCHAR underscore
ENCODING 95
SWIDTH 598 0
DWIDTH 19 0
BBX 13 5 3 -8
BITMAP
AAAAAA80
FFFFFFC0
FFFFFFC0
FFFFFFC0
55555540
ENDCHAR
STARTCHAR grave
ENCODING 96
SWIDTH 225 0
DWIDTH 7 0
BBX 7 6 0 16
BITMAP
0E00
3F80
BFE0
6FF8
07F8
00B0
ENDCHAR
STARTCHAR a
ENCODING 97
SWIDTH 607 0
DWIDTH 19 0
BBX 18 19 0 -1
BITMAP
0001540000
001FFF8060
01FFFFF5E0
03FFFFFFE0
0BFFFFFFE0
1FFD06FFE0
2FF000BFE0
3FD0003FE0
7FC0002FE0
7FC0001FE0
7FC0002FE0
3FD0003FE0
2FF000BFE0
1FFD06FFE0
0FFFFFFFE0
07FFFFFFE0
01FFFFF5E0
001FFF40A0
0000500000
ENDCHAR
STARTCHAR b
ENCODING 98
SWIDTH 597 0
DWIDTH 19 0
BBX 18 25 1 -1
BITMAP
5540000000
BF80000000
BF80000000
BF80000000
BF80000000
BF80000000
BF81540000
BF9FFF8000
BFFFFFF400
BFFFFFFD00
BFFFFFFF00
BFF907FF40
BFE000FFC0
BFC0007FC0
BF80003FD0
BF80003FD0
BF80003FD0
7FC0007FC0
7FE000FFC0
2FF907FF40
1FFFFFFF00
07FFFFFD00
01FFFFF400
002FFF4000
0001500000
ENDCHAR
STARTCHAR c
ENCODING 99
SWIDTH 521 0
DWIDTH 17 0
BBX 16 19 0 -1
BITMAP
00005400
001FFF80
00BFFFF4
03FFFFFD
0BFFFFFF
1FFD06FD
2FF400B4
3FE00010
7FD00000
7FC00000
7FC00000
3FD00000
2FF000B0
1FFD06FC
0BFFFFFF
03FFFFFD
00BFFFF4
001FFF80
00005400
ENDCHAR
STARTCHAR d
ENCODING 100
SWIDTH 606 0
DWIDTH 19 0
BBX 18 25 0 -1
BITMAP
0000001550
0000002FE0
0000002FE0
0000002FE0
0000002FE0
0000002FE0
0001542FE0
001FFF6FE0
00FFFFFFE0
03FFFFFFE0
0BFFFFFFE0
1FFD06FFE0
2FF000BFE0
3FD0003FE0
7FC0002FE0
7FC0002FE0
7FC0002FE0
3FE0003FE0
2FF400BFE0
1FFD06FFE0
0BFFFFFFE0
03FFFFFFE0
00BFFFF5E0
001FFF40A0
0000500000
ENDCHAR
STARTCHAR e
ENCODING 101
SWIDTH 524 0
DWIDTH 17 0
BBX 16 19 0 -1
BITMAP
00015400
001FFF90
01FFFFF8
07FFFFFE
0FFFFFFF
1FFD0BFD
2FF02FF4
3FD07FE0
7FC0FF80
7FC2FF00
7FCBFC00
3FEFF400
2FFFD0B0
1FFF86FC
0BFFFFFF
03FFFFFE
00BFFFF4
001BFF90
00005400
ENDCHAR
STARTCHAR f
ENCODING 102
SWIDTH 395 0
DWIDTH 13 0
BBX 14 25 0 0
BITMAP
0001BFD0
001FFFD0
007FFFD0
00FFFFD0
02FF9540
03FE0000
03FD0000
07FC0000
6BFEAA40
7FFFFF40
7FFFFF40
7FFFFF40
2BFEAA00
07FC0000
07FC0000
07FC0000
07FC0000
07FC0000
07FC0000
07FC0000
07FC0000
07FC0000
07FC0000
07FC0000
07FC0000
ENDCHAR
STARTCHAR g
ENCODING 103
SWIDTH 607 0
DWIDTH 19 0
BBX 18 25 0 -7
BITMAP
0000540000
001FFF8060
00FFFFF5E0
03FFFFFFE0
0BFFFFFFE0
1FFD06FFE0
2FF000BFE0
3FD0003FE0
7FC0002FE0
7FC0001FE0
7FD0002FE0
3FD0003FE0
2FF000BFE0
1FFD06FFE0
0FFFFFFFE0
07FFFFFFE0
01FFFFFFE0
001FFFBFE0
0000547FD0
000001FFC0
0002FFFF40
0003FFFE00
0003FFF800
0003FF9000
0001540000
ENDCHAR
STARTCHAR h
ENCODING 104
SWIDTH 562 0
DWIDTH 18 0
BBX 16 24 1 0
BITMAP
15400000
7FC00000
7FC00000
7FC00000
7FC00000
7FC00000
7FC00000
7FDBF900
7FFFFF80
7FFFFFE0
7FFFFFF4
7FF96FFC
7FE007FD
7FC003FD
7FC002FE
7FC002FE
7FC002FE
7FC002FE
7FC002FE
7FC002FE
7FC002FE
7FC002FE
7FC002FE
7FC002FE
ENDCHAR
STARTCHAR i
ENCODING 105
SWIDTH 235 0
DWIDTH 8 0
BBX 6 24 1 0
BITMAP
2F40
BFD0
FFE0
FFD0
7FC0
1500
0000
6A80
7FC0
7FC0
7FC0
7FC0
7FC0
7FC0
7FC0
7FC0
7FC0
7FC0
7FC0
7FC0
7FC0
7FC0
7FC0
7FC0
ENDCHAR
STARTCHAR j
ENCODING 106
SWIDTH 237 0
DWIDTH 8 0
BBX 12 31 -5 -7
BITMAP
0002F8
000BFD
000FFE
000FFE
0007FC
000150
000000
0006A8
0007FC
0007FC
0007FC
0007FC
0007FC
0007FC
0007FC
0007FC
0007FC
0007FC
0007FC
0007FC
0007FC
0007FC
0007FC
000BF8
001FF8
007FF0
BFFFE0
BFFF80
BFFE00
BFE400
550000
ENDCHAR
STARTCHAR k
ENCODING 107
SWIDTH 539 0
DWIDTH 17 0
BBX 16 24 1 0
BITMAP
15400000
7FC00000
7FC00000
7FC00000
7FC00000
7FC00000
7FC00000
7FC002AA
7FC00BFD
7FC01FF4
7FC07FE0
7FC0FF80
7FC2FF00
7FCBFD00
7FDFF800
7FFFFD00
7FFFFF00
7FFFFF40
7FFDBFC0
7FF87FE0
7FF02FF4
7FD00FF8
7FC00BFD
7FC003FF
ENDCHAR
STARTCHAR l
ENCODING 108
SWIDTH 235 0
DWIDTH 8 0
BBX 5 24 1 0
BITMAP
1540
7FC0
7FC0
7FC0
7FC0
7FC0
7FC0
7FC0
7FC0
7FC0
7FC0
7FC0
7FC0
7FC0
7FC0
7FC0
7FC0
7FC0
7FC0
7FC0
7FC0
7FC0
7FC0
7FC0
ENDCHAR
STARTCHAR m
ENCODING 109
SWIDTH 762 0
DWIDTH 24 0
BBX 22 17 1 0
BITMAP
606F906FE400
7BFFF9FFFE00
7FFFFFFFFF80
7FFFFFFFFFD0
7FF5FFF9BFE0
7FC03FE02FE0
7FC03FD01FF0
7FC03FD01FF0
7FC03FD01FF0
7FC03FD01FF0
7FC03FD01FF0
7FC03FD01FF0
7FC03FD01FF0
7FC03FD01FF0
7FC03FD01FF0
7FC03FD01FF0
7FC03FD01FF0
ENDCHAR
STARTCHAR n
ENCODING 110
SWIDTH 562 0
DWIDTH 18 0
BBX 16 17 1 0
BITMAP
602FF900
79FFFF80
7FFFFFE0
7FFFFFF4
7FF96FFC
7FE007FD
7FC003FD
7FC002FE
7FC002FE
7FC002FE
7FC002FE
7FC002FE
7FC002FE
7FC002FE
7FC002FE
7FC002FE
7FC002FE
ENDCHAR
STARTCHAR o
ENCODING 111
SWIDTH 579 0
DWIDTH 19 0
BBX 18 19 0 -1
BITMAP
0001540000
001FFF9000
00FFFFF800
03FFFFFE00
0BFFFFFF40
1FFD02FFC0
2FF000BFD0
3FD0003FE0
7FC0002FE0
7FC0002FE0
7FC0002FE0
3FE0003FE0
2FF400BFD0
1FFD06FFC0
0BFFFFFF40
03FFFFFE00
00BFFFF400
001BFF8000
0000540000
ENDCHAR
STARTCHAR p
ENCODING 112
SWIDTH 608 0
DWIDTH 19 0
BBX 18 25 1 -7
BITMAP
0000540000
601BFF9000
78BFFFF800
7FFFFFFE00
7FFFFFFF40
7FFD02FFC0
7FF000BFD0
7FD0003FE0
7FC0002FE0
7FC0002FE0
7FC0002FE0
7FD0003FE0
7FF000BFD0
7FFD06FFC0
7FFFFFFF40
7FFFFFFE00
7FFFFFF800
7FDBFF9000
7FC0540000
7FC0000000
7FC0000000
7FC0000000
7FC0000000
7FC0000000
1540000000
ENDCHAR
STARTCHAR q
ENCODING 113
SWIDTH 607 0
DWIDTH 19 0
BBX 18 25 0 -7
BITMAP
0000540000
001FFF8060
01FFFFF5E0
03FFFFFFE0
0FFFFFFFE0
1FFD06FFE0
2FF000BFE0
3FD0003FE0
7FC0002FE0
7FC0001FE0
7FC0002FE0
3FD0003FE0
2FF000BFE0
1FFD06FFE0
0BFFFFFFE0
03FFFFFFE0
00FFFFFFE0
001FFF5FE0
0000541FE0
0000001FE0
0000001FE0
0000001FE0
0000001FE0
0000001FE0
0000001550
ENDCHAR
STARTCHAR r
ENCODING 114
SWIDTH 414 0
DWIDTH 13 0
BBX 12 17 1 0
BITMAP
6016AA
78BFFF
7FFFFF
7FFFFF
7FFEA9
7FE000
7FD000
7FC000
7FC000
7FC000
7FC000
7FC000
7FC000
7FC000
7FC000
7FC000
7FC000
ENDCHAR
STARTCHAR s
ENCODING 115
SWIDTH 523 0
DWIDTH 17 0
BBX 15 17 1 0
BITMAP
01AAAAA0
0BFFFFF0
3FFFFFF0
7FFFFFF0
BFEAAAA0
FF400000
FF955400
BFFFFF80
3FFFFFF0
1FFFFFF8
02FFFFFC
000007FC
55555BFC
FFFFFFF8
FFFFFFF4
FFFFFFD0
FFFFFE40
ENDCHAR
STARTCHAR t
ENCODING 116
SWIDTH 437 0
DWIDTH 14 0
BBX 14 24 0 0
BITMAP
05540000
07F80000
07F80000
07F80000
07F80000
07F80000
07F80000
6FFEAA90
BFFFFFD0
BFFFFFD0
BFFFFFD0
6BFEAA80
07F80000
07F80000
07F80000
07F80000
07F80000
07FC0000
07FE0000
02FF9540
01FFFFD0
00BFFFD0
001FFFD0
0002BFD0
ENDCHAR
STARTCHAR u
ENCODING 117
SWIDTH 562 0
DWIDTH 18 0
BBX 16 18 1 -1
BITMAP
6A4002A9
BF8003FD
BF8003FD
BF8003FD
BF8003FD
BF8003FD
BF8003FD
BF8003FD
BF8003FD
BF8003FD
BF8003FD
7FD00BFD
3FF42FFD
2FFFFFFD
0FFFFFFD
07FFFF6D
00BFF80D
00054000
ENDCHAR
STARTCHAR v
ENCODING 118
SWIDTH 532 0
DWIDTH 17 0
BBX 17 17 0 0
BITMAP
AA8000AA80
BFD001FF80
3FE002FF40
2FF003FE00
1FF407FD00
0FF80BFC00
0BFC0FF800
07FD1FF400
03FE2FF000
01FF7FE000
00FFBFC000
00BFFF8000
007FFF4000
003FFF0000
002FFE0000
001FFD0000
000BFC0000
ENDCHAR
STARTCHAR w
ENCODING 119
SWIDTH 756 0
DWIDTH 24 0
BBX 22 18 1 -1
BITMAP
6A802A801AA0
BF803FD02FE0
BF803FD02FE0
BF803FD02FE0
BF803FD02FE0
BF803FD02FE0
BF803FD02FE0
BF803FD02FE0
BF803FD02FE0
BF803FD02FE0
BF803FD02FE0
7FC03FD02FE0
7FD0BFF07FE0
3FFFFFFFFFD0
1FFFFFFFFF80
0BFFFFFFFE00
01FFE4BFF400
000500054000
ENDCHAR
STARTCHAR x
ENCODING 120
SWIDTH 528 0
DWIDTH 17 0
BBX 17 17 0 0
BITMAP
AA9001AA80
3FF003FF00
1FF80BFD00
0BFD1FF800
03FF7FE000
01FFFFC000
007FFF4000
002FFE0000
001FFC0000
002FFE0000
007FFF4000
01FFFFC000
03FF7FE000
0BFD1FF800
1FF80BFD00
3FF007FF00
BFD002FF80
ENDCHAR
STARTCHAR y
ENCODING 121
SWIDTH 562 0
DWIDTH 18 0
BBX 16 24 1 -7
BITMAP
6A4002A9
BF8003FD
BF8003FD
BF8003FD
BF8003FD
BF8003FD
BF8003FD
BF8003FD
BF8003FD
BF8003FD
BF8003FD
7FD00BFD
3FF42FFD
2FFFFFFD
0FFFFFFD
07FFFFFD
00BFFBFD
00054BFC
00006FF8
007FFFF0
007FFFD0
007FFF40
007FF800
00154000
ENDCHAR
STARTCHAR z
ENCODING 122
SWIDTH 481 0
DWIDTH 15 0
BBX 15 17 0 0
BITMAP
6AAAAAA4
7FFFFFF0
7FFFFFD0
7FFFFFC0
2AAAFF40
0002FE00
0007FD00
000FF800
001FF000
003FD000
00BFC000
01FF4000
02FF5554
07FFFFF8
0FFFFFF8
1FFFFFF8
3FFFFFF8
ENDCHAR
STARTCHAR braceleft
ENCODING 123
SWIDTH 466 0
DWIDTH 15 0
BBX 14 30 0 -4
BITMAP
0001AA90
000BFFE0
001FFFE0
003FFFE0
007FFFE0
007FD000
007FD000
007FD000
007FD000
007FD000
007FD000
00BFC000
6AFF8000
7FFF4000
7FFC0000
7FFE0000
7FFF8000
00BFC000
007FD000
007FD000
007FD000
007FD000
007FD000
007FD000
007FD550
003FFFE0
002FFFE0
001FFFE0
0006FFE0
00001540
ENDCHAR
STARTCHAR bar
ENCODING 124
SWIDTH 267 0
DWIDTH 9 0
BBX 5 30 2 -4
BITMAP
AA40
FF80
FF80
FF80
FF80
FF80
FF80
FF80
FF80
FF80
FF80
FF80
FF80
FF80
FF80
FF80
FF80
FF80
FF80
FF80
FF80
FF80
FF80
FF80
FF80
FF80
FF80
FF80
FF80
5500
ENDCHAR
STARTCHAR braceright
ENCODING 125
SWIDTH 466 0
DWIDTH 15 0
BBX 14 30 1 -4
BITMAP
6A940000
BFFE0000
BFFF4000
BFFFC000
BFFFC000
007FD000
007FD000
007FD000
007FD000
007FD000
007FD000
007FE000
003FFA90
001FFFD0
0007FFD0
000FFFD0
002FFFD0
003FE000
007FD000
007FD000
007FD000
007FD000
007FD000
007FD000
55BFC000
BFFFC000
BFFF8000
BFFF0000
BFF80000
15400000
ENDCHAR
STARTCHAR asciitilde
ENCODING 126
SWIDTH 451 0
DWIDTH 14 0
BBX 12 7 1 8
BITMAP
069059
2FF87F
7FFEBF
7FFFFE
7F1FFD
3F47F4
140000
ENDCHAR
STARTCHAR nonbreakingspace
ENCODING 160
SWIDTH 279 0
DWIDTH 9 0
BBX 1 1 0 0
BITMAP
00
ENDCHAR
STARTCHAR exclamdown
ENCODING 161
SWIDTH 274 0
DWIDTH 9 0
BBX 6 24 1 -5
BITMAP
1B80
3FE0
7FF0
3FF0
2FD0
0500
0540
1FD0
1FD0
2FD0
2FD0
2FD0
2FD0
2FE0
2FE0
3FE0
3FE0
3FE0
3FE0
3FF0
3FF0
7FF0
7FF0
2AA0
ENDCHAR
STARTCHAR cent
ENCODING 162
SWIDTH 462 0
DWIDTH 15 0
BBX 13 23 1 0
BITMAP
00054000
001F8000
001F8000
001F8000
002F9000
02FFF800
0BFFFF00
2FFFFF40
3FD02E00
7F400800
BF000000
BE000000
BF000000
7F400800
3FD07E00
2FFFFF40
0BFFFE00
01FFF800
002F8000
001F8000
001F8000
001F8000
001F8000
ENDCHAR
STARTCHAR sterling
ENCODING 163
SWIDTH 681 0
DWIDTH 22 0
BBX 20 23 1 0
BITMAP
0000550000
000BFE0000
002FFE0000
00BFFE0000
01FFFE0000
02FF800000
03FE000000
03FE000000
03FE000000
03FE000000
6BFFA80000
BFFFF80000
BFFFF80000
BFFFF80000
57FE540000
03FE000000
03FE0002AA
03FE0007FE
03FE556FFD
03FFFFFFFC
03FFFFFFF4
03FFFFFFD0
03FFFFF900
ENDCHAR
STARTCHAR currency
ENCODING 164
SWIDTH 454 0
DWIDTH 15 0
BBX 13 13 1 4
BITMAP
28001E00
BEBFBF40
BFFFFF00
2FEBFC00
2F40BC00
2E007D00
3E007D00
2F00BD00
1F91FC00
7FFFFE00
FFFFFF40
7C552E00
10000400
ENDCHAR
STARTCHAR yen
ENCODING 165
SWIDTH 653 0
DWIDTH 21 0
BBX 19 23 1 0
BITMAP
5540000554
BFC0000FF4
BFC0000FF4
BFC0000FF4
BFC0000FF4
BFC0000FF4
BFC0000FF4
7FC0000FF4
7FC0001FF4
7FE0002FF0
3FF4007FE0
1FFE56FFD0
0BFFFFFF80
02FFFFFE00
15BFFFF950
2FFFFFFFE0
2FFFFFFFE0
2FFFFFFFE0
2FFFFFFFE0
0002FE0000
0002FE0000
0002FE0000
0002FE0000
ENDCHAR
STARTCHAR brokenbar
ENCODING 166
SWIDTH 269 0
DWIDTH 9 0
BBX 5 30 2 -4
BITMAP
AA40
FF80
FF80
FF80
FF80
FF80
FF80
FF80
FF80
FF80
FF80
FF80
FF80
5500
0000
0000
AA40
FF80
FF80
FF80
FF80
FF80
FF80
FF80
FF80
FF80
FF80
FF80
FF80
5500
ENDCHAR
STARTCHAR section
ENCODING 167
SWIDTH 569 0
DWIDTH 18 0
BBX 16 23 1 0
BITMAP
00155554
02FFFFF8
0FFFFFF8
2FFFFFF8
3FFFFFF4
7FC00000
3FEAA900
3FFFFFE0
1FFFFFF8
2FFFFFFD
3FFAABFE
7FC002FE
7FD002FE
3FFFFFFD
2FFFFFFC
0BFFFFFC
01FFFFFE
000006FE
155556FE
7FFFFFFE
7FFFFFFC
7FFFFFF4
7FFFFF80
ENDCHAR
STARTCHAR dieresis
ENCODING 168
SWIDTH 300 0
DWIDTH 10 0
BBX 10 4 0 17
BITMAP
690680
FF0FD0
FF1FE0
7D0BC0
ENDCHAR
STARTCHAR copyright
ENCODING 169
SWIDTH 655 0
DWIDTH 21 0
BBX 19 19 1 2
BITMAP
0000540000
001BFF9000
00BFFFF800
03F901BF00
0BD1A91F80
1F4BFF87D0
3E2F9B82F0
7C7D0100F4
78B40000B4
B8F00000B8
B8F40000B8
7CB80000F4
3D7D0141F0
2E2FEF82E0
1F8BFF8BD0
0BE0542F80
02FE56FE00
007FFFF400
0006BA4000
ENDCHAR
STARTCHAR ordfeminine
ENCODING 170
SWIDTH 451 0
DWIDTH 14 0
BBX 11 16 1 7
BITMAP
01A904
07FFDC
1FFFFC
2F41FC
3E00BC
3D00BC
3E00BC
2F41FC
1FEFFC
0BFFEC
01A904
000000
000000
7FFFFC
7FFFFC
155554
ENDCHAR
STARTCHAR guillemotleft
ENCODING 171
SWIDTH 704 0
DWIDTH 23 0
BBX 20 16 1 0
BITMAP
0003800074
000FE001FD
003FF407FF
00BFE01FFD
02FF807FF4
0BFE01FFD0
2FF807FF40
BFE01FFD00
BFE01FFD00
2FFC07FF80
0BFF40FFE0
02FFD03FF8
007FF40BFE
001FF002FE
0007C000B8
0001400010
ENDCHAR
STARTCHAR logicalnot
ENCODING 172
SWIDTH 529 0
DWIDTH 17 0
BBX 13 8 2 6
BITMAP
55555540
FFFFFFC0
FFFFFFC0
FFFFFFC0
AAAAFFC0
00007FC0
00007FC0
00007FC0
ENDCHAR
STARTCHAR uni00AD
ENCODING 173
SWIDTH 418 0
DWIDTH 13 0
BBX 10 5 2 9
BITMAP
555550
FFFFE0
FFFFE0
FFFFE0
AAAA90
ENDCHAR
STARTCHAR registered
ENCODING 174
SWIDTH 439 0
DWIDTH 14 0
BBX 12 12 1 11
BITMAP
006900
07FFD0
1F50B4
39FF6D
71C68E
A1C1CA
A1C2CA
B1FF4A
75DB1D
2E82B8
0B96F0
01BF40
ENDCHAR
STARTCHAR macron
ENCODING 175
SWIDTH 247 0
DWIDTH 8 0
BBX 8 4 0 17
BITMAP
5555
FFFF
FFFF
FFFE
ENDCHAR
STARTCHAR degree
ENCODING 176
SWIDTH 381 0
DWIDTH 12 0
BBX 10 10 1 12
BITMAP
02B900
1FFF40
3FFFD0
BFAFE0
BE07F0
BE07F0
BF5FF0
7FFFD0
1FFF80
06F900
ENDCHAR
STARTCHAR plusminus
ENCODING 177
SWIDTH 516 0
DWIDTH 17 0
BBX 14 17 1 0
BITMAP
003FD000
003FD000
003FD000
157FE550
7FFFFFE0
7FFFFFE0
7FFFFFE0
6ABFFAA0
003FD000
003FD000
003FD000
00000000
15555550
7FFFFFE0
7FFFFFE0
7FFFFFE0
7FFFFFE0
ENDCHAR
STARTCHAR twosuperior
ENCODING 178
SWIDTH 355 0
DWIDTH 11 0
BBX 9 12 1 11
BITMAP
155400
3FFE00
3FFF40
2AAF80
016F80
1FFF40
3FFE00
7FA400
7FAA40
7FFF80
7FFF80
6AAA40
ENDCHAR
STARTCHAR threesuperior
ENCODING 179
SWIDTH 354 0
DWIDTH 11 0
BBX 9 12 1 11
BITMAP
155400
7FFE00
7FFF40
2AAF80
056FC0
0FFF80
0FFF40
0AAF80
156FC0
7FFF80
7FFE00
2AA400
ENDCHAR
STARTCHAR acute
ENCODING 180
SWIDTH 225 0
DWIDTH 7 0
BBX 7 6 0 16
BITMAP
01D0
07F0
1FFC
BFF4
BF80
2900
ENDCHAR
STARTCHAR mu
ENCODING 181
SWIDTH 571 0
DWIDTH 18 0
BBX 15 24 2 -7
BITMAP
AA0006A8
FF4007FC
FF4007FC
FF4007FC
FF4007FC
FF4007FC
FF4007FC
FF4007FC
FF4007FC
FF4007FC
FF400BFC
FF800FFC
FFE07FFC
FFFFFFFC
FFFFFFFC
FFFFFE7C
FFBFF41C
FE054000
FE000000
FE000000
FD000000
FD000000
FD000000
FD000000
ENDCHAR
STARTCHAR paragraph
ENCODING 182
SWIDTH 808 0
DWIDTH 26 0
BBX 23 23 1 0
BITMAP
000155555554
002FFFFFFFF8
01FFFFFFFFF8
07FFFFFFFFF8
0FFFFFFFFFF8
2FFD1FF40FF8
7FF01FF40FF8
BFD01FF40FF8
BFC01FF40FF8
BF801FF40FF8
BF801FF40FF8
BFD01FF40FF8
7FE01FF40FF8
2FFD1FF40FF8
1FFFFFF40FF8
07FFFFF40FF8
01FFFFF40FF8
006FFFF40FF8
00016FF40FF8
00001FF40FF8
00001FF40FF8
00001FF40FF8
00001FF40FF8
ENDCHAR
STARTCHAR periodcentered
ENCODING 183
SWIDTH 261 0
DWIDTH 8 0
BBX 6 6 1 8
BITMAP
1A40
3FD0
7FE0
7FE0
2FD0
0500
ENDCHAR
STARTCHAR cedilla
ENCODING 184
SWIDTH 208 0
DWIDTH 7 0
BBX 7 8 0 -7
BITMAP
0380
0780
0B90
0FF4
02F8
7BF8
FFF4
6FD0
ENDCHAR
STARTCHAR onesuperior
ENCODING 185
SWIDTH 231 0
DWIDTH 7 0
BBX 5 12 1 11
BITMAP
5540
BF40
BF40
7F40
2F40
2F40
2F40
2F40
2F40
2F40
2F40
1A40
ENDCHAR
STARTCHAR ordmasculine
ENCODING 186
SWIDTH 432 0
DWIDTH 14 0
BBX 11 16 1 7
BITMAP
01AA00
07FFD0
1FFFF4
2F41F8
3E00BC
7D00BC
3E00BC
2F41F8
1FFFF0
07FFD0
01AA00
000000
000000
7FFFFC
7FFFFC
155554
ENDCHAR
STARTCHAR guillemotright
ENCODING 187
SWIDTH 703 0
DWIDTH 23 0
BBX 21 16 1 0
BITMAP
0A0001D00000
2F8007F40000
7FE00FFD0000
2FF803FF4000
0BFE00FFD000
02FF803FF400
00BFE00FFD00
002FF803FF40
003FF807FF40
01FFE01FFD00
07FF80BFF400
1FFD02FFC000
7FF40BFF0000
3FD007F80000
1F4002E00000
050000400000
ENDCHAR
STARTCHAR onequarter
ENCODING 188
SWIDTH 648 0
DWIDTH 21 0
BBX 19 23 1 0
BITMAP
1540005500
2FD000FD00
2FD002F800
1FD003F400
0BD00BE000
0BD01FD000
0BD02F8000
0BD07F0000
0BD0FE0000
0BD1FC0000
0BD3F40000
069BF00000
000FD7E000
002F87E7E0
007F4BD7E0
00BE0BD7E0
01FC0FC7E0
02F80FCBE0
07F01FFFF8
0FD01FFFF8
1FC01FFFF8
3F400007E0
BE000007E0
ENDCHAR
STARTCHAR onehalf
ENCODING 189
SWIDTH 637 0
DWIDTH 20 0
BBX 19 23 1 0
BITMAP
1540005500
2FD000FD00
2FD002F800
1FD003F400
0BD00BE000
0BD01FD000
0BD02F8000
0BD07F0000
0BD0FE0000
0BD1FC0000
0BD3F40000
069BF00000
000FD7FF40
002F87FFE0
007F47FFF0
00BE0007F4
01FC01FFF0
02F807FFE0
07F00BFF40
0FD00FD000
1FC00FFFF0
3F400FFFF0
BE000FFFF0
ENDCHAR
STARTCHAR threequarters
ENCODING 190
SWIDTH 708 0
DWIDTH 23 0
BBX 21 23 1 0
BITMAP
555000055000
BFFD000FD000
BFFF002F8000
6ABF407F4000
057F40BE0000
1FFF01FC0000
1FFF02F80000
1ABF47F00000
557F4FD00000
BFFF1FC00000
BFFD3F400000
6AA4BE000000
0000FD7E0000
0002F8BEBE00
0007F4BDBE00
000BE0BDBE00
001FC0FCBE00
003F80FCBE00
007F01FFFF80
00FD01FFFF80
02FC02FFFF80
03F40000BE00
0BE00000BE00
ENDCHAR
STARTCHAR questiondown
ENCODING 191
SWIDTH 602 0
DWIDTH 19 0
BBX 17 24 1 -5
BITMAP
00001F4000
00007FD000
0000BFE000
0000BFD000
00003F8000
0000050000
0000154000
00007FD000
00007FC000
0000BFC000
006FFF8000
07FFFF4000
1FFFFD0000
3FFFF40000
BFF9400000
BFC0000000
FF80000000
FF80000000
BFD0000000
7FFFFFFFC0
2FFFFFFFC0
0FFFFFFFC0
02FFFFFFC0
0016AAAA80
ENDCHAR
STARTCHAR Agrave
ENCODING 192
SWIDTH 673 0
DWIDTH 22 0
BBX 19 30 1 0
BITMAP
000E000000
002F800000
00BFE00000
002FF80000
0007FC0000
0000B40000
0000000000
0000550000
001BFFE000
00BFFFFD00
02FFFFFF40
0BFFFFFFD0
1FFE41FFE0
2FF8003FF4
3FF0001FF4
3FD0000FF8
3FD0000BF8
7FD0000BF8
7FD0000BF8
7FD0000BF8
7FD0000BF8
7FFFFFFFF8
7FFFFFFFF8
7FFFFFFFF8
7FFFFFFFF8
7FEAAAAFF8
7FD0000BF8
7FD0000BF8
7FD0000BF8
7FD0000BF8
ENDCHAR
STARTCHAR Aacute
ENCODING 193
SWIDTH 673 0
DWIDTH 22 0
BBX 19 30 1 0
BITMAP
000001D000
000007F400
00001FFC00
00007FF400
0000BF8000
00002D0000
0000000000
0000550000
001BFFE000
00BFFFFD00
02FFFFFF40
0BFFFFFFD0
1FFE41FFE0
2FF8003FF4
3FF0001FF4
3FD0000FF8
3FD0000BF8
7FD0000BF8
7FD0000BF8
7FD0000BF8
7FD0000BF8
7FFFFFFFF8
7FFFFFFFF8
7FFFFFFFF8
7FFFFFFFF8
7FEAAAAFF8
7FD0000BF8
7FD0000BF8
7FD0000BF8
7FD0000BF8
ENDCHAR
STARTCHAR Acircumflex
ENCODING 194
SWIDTH 673 0
DWIDTH 22 0
BBX 19 29 1 0
BITMAP
0000780000
0001FE0000
0007FF8000
001FFFE000
000B87D000
0002018000
0000550000
001BFFE000
00BFFFFD00
02FFFFFF40
0BFFFFFFD0
1FFE41FFE0
2FF8003FF4
3FF0001FF4
3FD0000FF8
3FD0000BF8
7FD0000BF8
7FD0000BF8
7FD0000BF8
7FD0000BF8
7FFFFFFFF8
7FFFFFFFF8
7FFFFFFFF8
7FFFFFFFF8
7FEAAAAFF8
7FD0000BF8
7FD0000BF8
7FD0000BF8
7FD0000BF8
ENDCHAR
STARTCHAR Atilde
ENCODING 195
SWIDTH 673 0
DWIDTH 22 0
BBX 19 29 1 0
BITMAP
001BE1F800
003FF9FC00
007FFFF800
007F7FF800
003E0BE000
0015000000
0000550000
001BFFE000
00BFFFFD00
02FFFFFF40
0BFFFFFFD0
1FFE41FFE0
2FF8003FF4
3FF0001FF4
3FD0000FF8
3FD0000BF8
7FD0000BF8
7FD0000BF8
7FD0000BF8
7FD0000BF8
7FFFFFFFF8
7FFFFFFFF8
7FFFFFFFF8
7FFFFFFFF8
7FEAAAAFF8
7FD0000BF8
7FD0000BF8
7FD0000BF8
7FD0000BF8
ENDCHAR
STARTCHAR Adieresis
ENCODING 196
SWIDTH 673 0
DWIDTH 22 0
BBX 19 27 1 0
BITMAP
001A41A000
003F83F400
003FC7F400
001F42E000
0000550000
001BFFE000
00BFFFFD00
02FFFFFF40
0BFFFFFFD0
1FFE41FFE0
2FF8003FF4
3FF0001FF4
3FD0000FF8
3FD0000BF8
7FD0000BF8
7FD0000BF8
7FD0000BF8
7FD0000BF8
7FFFFFFFF8
7FFFFFFFF8
7FFFFFFFF8
7FFFFFFFF8
7FEAAAAFF8
7FD0000BF8
7FD0000BF8
7FD0000BF8
7FD0000BF8
ENDCHAR
STARTCHAR Aring
ENCODING 197
SWIDTH 673 0
DWIDTH 22 0
BBX 19 28 1 0
BITMAP
0000540000
0001FF0000
0003EB8000
0007878000
0003EB8000
0002FF0000
001BFFE000
00BFFFFD00
02FFFFFF40
0BFFFFFFC0
1FFE41FFE0
2FF8003FF4
3FF0001FF4
3FD0000FF8
3FD0000BF8
7FD0000BF8
7FD0000BF8
7FD0000BF8
7FD0000BF8
7FFFFFFFF8
7FFFFFFFF8
7FFFFFFFF8
7FFFFFFFF8
7FEAAAAFF8
7FD0000BF8
7FD0000BF8
7FD0000BF8
7FD0000BF8
ENDCHAR
STARTCHAR AE
ENCODING 198
SWIDTH 988 0
DWIDTH 32 0
BBX 30 23 1 0
BITMAP
0000555555555550
001BFFFFFFFFFFE0
00BFFFFFFFFFFFE0
02FFFFFFFFFFFFE0
0BFFFFFFFFFFFFE0
1FFE400BF8000000
2FF8000BF8000000
3FF0000BF8000000
3FD0000BF8000000
3FD0000BFD555000
7FD0000BFFFFF000
7FD0000BFFFFF000
7FD0000BFFFFF000
7FD0000BFFFFF000
7FFFFFFFF8000000
7FFFFFFFF8000000
7FFFFFFFF8000000
7FFFFFFFF8000000
7FEAAAAFFD555550
7FD0000BFFFFFFE0
7FD0000BFFFFFFE0
7FD0000BFFFFFFE0
7FD0000BFFFFFFE0
ENDCHAR
STARTCHAR Ccedilla
ENCODING 199
SWIDTH 640 0
DWIDTH 20 0
BBX 19 30 1 -7
BITMAP
00006AA400
000BFFFF80
007FFFFFF4
02FFFFFFF8
07FFFEFFF0
1FFF4007D0
2FF8000080
7FE0000000
BFD0000000
FF80000000
FF40000000
FF40000000
FF40000000
FF80000000
BFC0000000
BFD0000000
3FF0000000
2FFD0001C0
0FFF901BE0
07FFFFFFF4
01FFFFFFF8
002FFFFFE0
0006FFFE40
0000795000
0000B90000
0000FF4000
00001F8000
0007AF8000
000BFF4000
0006FD0000
ENDCHAR
STARTCHAR Egrave
ENCODING 200
SWIDTH 578 0
DWIDTH 19 0
BBX 16 30 2 0
BITMAP
00B40000
01FD0000
03FF4000
01FFD000
002FD000
00078000
00000000
55555555
FFFFFFFD
FFFFFFFD
FFFFFFFD
FFFFFFFD
FF800000
FF800000
FF800000
FF800000
FF955500
FFFFFF00
FFFFFF00
FFFFFF00
FFFFFF00
FF800000
FF800000
FF800000
FF800000
FF955555
FFFFFFFD
FFFFFFFD
FFFFFFFD
FFFFFFFD
ENDCHAR
STARTCHAR Eacute
ENCODING 201
SWIDTH 578 0
DWIDTH 19 0
BBX 16 30 2 0
BITMAP
00001D00
00007F40
0001FFC0
0007FF40
0007F800
0002D000
00000000
55555555
FFFFFFFD
FFFFFFFD
FFFFFFFD
FFFFFFFD
FF800000
FF800000
FF800000
FF800000
FF955500
FFFFFF00
FFFFFF00
FFFFFF00
FFFFFF00
FF800000
FF800000
FF800000
FF800000
FF955555
FFFFFFFD
FFFFFFFD
FFFFFFFD
FFFFFFFD
ENDCHAR
STARTCHAR Ecircumflex
ENCODING 202
SWIDTH 578 0
DWIDTH 19 0
BBX 16 30 2 0
BITMAP
00078000
001FE000
007FF800
01FFFE00
00B87D00
00201800
00000000
55555555
FFFFFFFD
FFFFFFFD
FFFFFFFD
FFFFFFFD
FF800000
FF800000
FF800000
FF800000
FF955500
FFFFFF00
FFFFFF00
FFFFFF00
FFFFFF00
FF800000
FF800000
FF800000
FF800000
FF955555
FFFFFFFD
FFFFFFFD
FFFFFFFD
FFFFFFFD
ENDCHAR
STARTCHAR Edieresis
ENCODING 203
SWIDTH 578 0
DWIDTH 19 0
BBX 16 28 2 0
BITMAP
01A41A00
03F87F40
03F87F40
01F42E00
00000000
55555555
FFFFFFFD
FFFFFFFD
FFFFFFFD
FFFFFFFD
FF800000
FF800000
FF800000
FF800000
FF955500
FFFFFF00
FFFFFF00
FFFFFF00
FFFFFF00
FF800000
FF800000
FF800000
FF800000
FF955555
FFFFFFFD
FFFFFFFD
FFFFFFFD
FFFFFFFD
ENDCHAR
STARTCHAR Igrave
ENCODING 204
SWIDTH 270 0
DWIDTH 9 0
BBX 8 30 -1 0
BITMAP
1D00
3F40
BFD0
7FF8
0BF8
01B0
0000
0155
03FE
03FE
03FE
03FE
03FE
03FE
03FE
03FE
03FE
03FE
03FE
03FE
03FE
03FE
03FE
03FE
03FE
03FE
03FE
03FE
03FE
03FE
ENDCHAR
STARTCHAR Iacute
ENCODING 205
SWIDTH 270 0
DWIDTH 9 0
BBX 8 30 2 0
BITMAP
00B0
02F8
0BFD
3FF8
3FD0
1E00
0000
5540
FF80
FF80
FF80
FF80
FF80
FF80
FF80
FF80
FF80
FF80
FF80
FF80
FF80
FF80
FF80
FF80
FF80
FF80
FF80
FF80
FF80
FF80
ENDCHAR
STARTCHAR Icircumflex
ENCODING 206
SWIDTH 270 0
DWIDTH 9 0
BBX 9 30 0 0
BITMAP
02D000
0BF400
2FFD00
BFFF40
7D2F00
140900
000000
055400
0FF800
0FF800
0FF800
0FF800
0FF800
0FF800
0FF800
0FF800
0FF800
0FF800
0FF800
0FF800
0FF800
0FF800
0FF800
0FF800
0FF800
0FF800
0FF800
0FF800
0FF800
0FF800
ENDCHAR
STARTCHAR Idieresis
ENCODING 207
SWIDTH 270 0
DWIDTH 9 0
BBX 10 28 -1 0
BITMAP
2E0290
7F4BF0
7F4BF0
2E07D0
000000
015500
03FE00
03FE00
03FE00
03FE00
03FE00
03FE00
03FE00
03FE00
03FE00
03FE00
03FE00
03FE00
03FE00
03FE00
03FE00
03FE00
03FE00
03FE00
03FE00
03FE00
03FE00
03FE00
ENDCHAR
STARTCHAR Eth
ENCODING 208
SWIDTH 672 0
DWIDTH 22 0
BBX 21 23 0 0
BITMAP
015555000000
07FFFFE40000
07FFFFFE0000
07FFFFFF8000
07FFFFFFE000
07FD05FFF800
07FD001FFD00
07FD0007FE00
07FD0002FF00
5BFE5001FF40
FFFFE000FF80
FFFFE000FF80
FFFFE000FF80
AFFFA000FF40
07FD0001FF40
07FD0003FF00
07FD000BFE00
07FD006FFC00
07FE5AFFF400
07FFFFFFE000
07FFFFFF4000
07FFFFF90000
07FFFE900000
ENDCHAR
STARTCHAR Ntilde
ENCODING 209
SWIDTH 689 0
DWIDTH 22 0
BBX 18 29 2 0
BITMAP
002F82F000
00BFE7F000
00FFFFF000
00FDBFE000
00FC2FD000
0054000000
5540001550
FFD0001FF0
FFF0001FF0
FFF8001FF0
FFFD001FF0
FFFE001FF0
FFFF401FF0
FFFFC01FF0
FFFFE01FF0
FFAFF01FF0
FF8FF81FF0
FF8BFD1FF0
FF83FE1FF0
FF81FF5FF0
FF80BFEFF0
FF807FFFF0
FF802FFFF0
FF800FFFF0
FF8007FFF0
FF8002FFF0
FF8001FFF0
FF8000BFF0
FF80003FF0
ENDCHAR
STARTCHAR Ograve
ENCODING 210
SWIDTH 777 0
DWIDTH 25 0
BBX 23 31 1 -1
BITMAP
0001D0000000
0003F4000000
000BFE000000
0007FF800000
0000BF800000
00000B000000
000000000000
00005A940000
000BFFFF8000
007FFFFFF400
01FFFFFFFD00
07FFFEFFFF40
1FFF4007FFC0
2FF80000BFE0
7FE000003FF0
BFD000001FF4
FF8000000FF8
FF4000000BFC
FF40000007FC
FF40000007FC
FF8000000BFC
BFC000000FF8
BFD000001FF4
7FF000007FF0
2FFD0001FFE0
0FFF901BFFC0
07FFFFFFFF40
01FFFFFFFD00
006FFFFFE000
0006FFFE4000
000015500000
ENDCHAR
STARTCHAR Oacute
ENCODING 211
SWIDTH 777 0
DWIDTH 25 0
BBX 23 31 1 -1
BITMAP
0000001D0000
0000007F0000
000002FF8000
00000BFF4000
00000BF80000
000003800000
000000000000
00005A940000
000BFFFF8000
007FFFFFF400
01FFFFFFFD00
07FFFEFFFF40
1FFF4007FFC0
2FF80000BFE0
7FE000003FF0
BFD000001FF4
FF8000000FF8
FF4000000BFC
FF40000007FC
FF40000007FC
FF8000000BFC
BFC000000FF8
BFD000001FF4
7FF000007FF0
2FFD0001FFE0
0FFF901BFFC0
07FFFFFFFF40
01FFFFFFFD00
006FFFFFE000
0006FFFE4000
000015500000
ENDCHAR
STARTCHAR Ocircumflex
ENCODING 212
SWIDTH 777 0
DWIDTH 25 0
BBX 23 31 1 -1
BITMAP
000007400000
00002FD00000
0000BFF40000
0002FFFD0000
0001F8BC0000
000050240000
000000000000
00005A940000
000BFFFF8000
007FFFFFF400
01FFFFFFFD00
07FFFEFFFF40
1FFF4007FFC0
2FF80000BFE0
7FE000003FF0
BFD000001FF4
FF8000000FF8
FF4000000BFC
FF40000007FC
FF40000007FC
FF8000000BFC
BFC000000FF8
BFD000001FF4
7FF000007FF0
2FFD0001FFE0
0FFF901BFFC0
07FFFFFFFF40
01FFFFFFFD00
006FFFFFE000
0006FFFE4000
000015500000
ENDCHAR
STARTCHAR Otilde
ENCODING 213
SWIDTH 777 0
DWIDTH 25 0
BBX 23 30 1 -1
BITMAP
0001FD1F4000
0007FF6F8000
000BFFFF4000
000BE7FF4000
0007D1FD0000
000140100000
00005A940000
000BFFFF8000
007FFFFFF400
01FFFFFFFD00
07FFFEFFFF40
1FFF4007FFC0
2FF80000BFE0
7FE000003FF0
BFD000001FF4
FF8000000FF8
FF4000000BFC
FF40000007FC
FF40000007FC
FF8000000BFC
BFC000000FF8
BFD000001FF4
7FF000007FF0
2FFD0001FFE0
0FFF901BFFC0
07FFFFFFFF40
01FFFFFFFD00
006FFFFFE000
0006FFFE4000
000015500000
ENDCHAR
STARTCHAR Odieresis
ENCODING 214
SWIDTH 777 0
DWIDTH 25 0
BBX 23 29 1 -1
BITMAP
0002E0290000
0007F4BF0000
0007F8BF0000
0002E03E0000
000000000000
00005A940000
000BFFFF8000
007FFFFFF400
01FFFFFFFD00
07FFFEFFFF40
1FFF4007FFC0
2FF80000BFE0
7FE000003FF0
BFD000001FF4
FF8000000FF8
FF4000000BFC
FF40000007FC
FF40000007FC
FF8000000BFC
BFC000000FF8
BFD000001FF4
7FF000007FF0
2FFD0001FFE0
0FFF901BFFC0
07FFFFFFFF40
01FFFFFFFD00
006FFFFFE000
0006FFFE4000
000015500000
ENDCHAR
STARTCHAR multiply
ENCODING 215
SWIDTH 479 0
DWIDTH 15 0
BBX 13 13 1 5
BITMAP
01001000
07407C00
1FD1FF00
7FFBFF80
2FFFFE00
0BFFF800
02FFF000
07FFF400
1FFFFD00
3FFFFF40
2FE2FF00
0B80BC00
01002000
ENDCHAR
STARTCHAR Oslash
ENCODING 216
SWIDTH 777 0
DWIDTH 25 0
BBX 23 24 1 -1
BITMAP
00005A941550
000BFFFFBFC0
007FFFFFFF40
01FFFFFFFE00
07FFFEFFFF40
1FFF401FFFC0
2FF8002FFFE0
7FE000BFBFF0
BFD001FF1FF4
FF8003FD0FF8
FF400BF80BFC
FF401FE007FC
FF407FC007FC
FF80FF400BFC
BF82FE000FF8
BFD7FC001FF4
7FFFF4007FF0
2FFFD001FFE0
0FFFD01BFFC0
07FFFFFFFF40
03FFFFFFFD00
0BFFFFFFE000
1FE6FFFE4000
000015500000
ENDCHAR
STARTCHAR Ugrave
ENCODING 217
SWIDTH 673 0
DWIDTH 22 0
BBX 19 30 1 0
BITMAP
000B000000
001FC00000
007FF40000
002FFD0000
0006FD0000
0000740000
0000000000
1540000554
7FD0000BF8
7FD0000BF8
7FD0000BF8
7FD0000BF8
7FD0000BF8
7FD0000BF8
7FD0000BF8
7FD0000BF8
7FD0000BF8
7FD0000BF8
7FD0000BF8
7FD0000BF8
7FD0000BF8
3FD0000BF8
3FE0000FF8
2FF0002FF4
1FFD007FF0
0FFFABFFE0
07FFFFFF80
01FFFFFF00
007FFFF800
0006FE9000
ENDCHAR
STARTCHAR Uacute
ENCODING 218
SWIDTH 673 0
DWIDTH 22 0
BBX 19 30 1 0
BITMAP
000000E000
000007F400
00001FFD00
00007FF400
00007F8000
00002D0000
0000000000
1540000554
7FD0000BF8
7FD0000BF8
7FD0000BF8
7FD0000BF8
7FD0000BF8
7FD0000BF8
7FD0000BF8
7FD0000BF8
7FD0000BF8
7FD0000BF8
7FD0000BF8
7FD0000BF8
7FD0000BF8
3FD0000BF8
3FE0000FF8
2FF0002FF4
1FFD007FF0
0FFFABFFE0
07FFFFFF80
01FFFFFF00
007FFFF800
0006FE9000
ENDCHAR
STARTCHAR Ucircumflex
ENCODING 219
SWIDTH 673 0
DWIDTH 22 0
BBX 19 29 1 0
BITMAP
0000780000
0001FE0000
0007FF8000
001FFFE000
000B87D000
0002018000
1540000554
7FD0000BF8
7FD0000BF8
7FD0000BF8
7FD0000BF8
7FD0000BF8
7FD0000BF8
7FD0000BF8
7FD0000BF8
7FD0000BF8
7FD0000BF8
7FD0000BF8
7FD0000BF8
7FD0000BF8
3FD0000BF8
3FE0000FF8
2FF0002FF4
1FFD007FF0
0FFFABFFE0
07FFFFFF80
01FFFFFF00
007FFFF800
0006FE9000
ENDCHAR
STARTCHAR Udieresis
ENCODING 220
SWIDTH 673 0
DWIDTH 22 0
BBX 19 27 1 0
BITMAP
001A41A000
003F83F400
003FC7F400
001F42E000
1540000554
7FD0000BF8
7FD0000BF8
7FD0000BF8
7FD0000BF8
7FD0000BF8
7FD0000BF8
7FD0000BF8
7FD0000BF8
7FD0000BF8
7FD0000BF8
7FD0000BF8
7FD0000BF8
7FD0000BF8
3FD0000BF8
3FE0000FF8
2FF0002FF4
1FFD007FF0
0FFFABFFE0
07FFFFFF80
01FFFFFF00
007FFFF800
0006FE9000
ENDCHAR
STARTCHAR Yacute
ENCODING 221
SWIDTH 620 0
DWIDTH 20 0
BBX 18 30 1 0
BITMAP
0000038000
00001FD000
00007FF400
0001FFD000
0001FE0000
0000B40000
0000000000
5540001550
FF40002FF0
FF40002FF0
FF40002FF0
FF40002FF0
FF40002FF0
FF40002FF0
FF40002FF0
FF80002FE0
BFC0007FE0
7FE000FFD0
3FFD5BFF80
1FFFFFFF40
0BFFFFFD00
01FFFFF400
002FFF8000
0007FC0000
0007FC0000
0007FC0000
0007FC0000
0007FC0000
0007FC0000
0007FC0000
ENDCHAR
STARTCHAR Thorn
ENCODING 222
SWIDTH 637 0
DWIDTH 20 0
BBX 18 25 2 -1
BITMAP
5540000000
FF80000000
FF80000000
FF80000000
FFFFFE4000
FFFFFFF400
FFFFFFFD00
FFFFFFFF40
FF955BFFC0
FF8001FFD0
FF80007FE0
FF80002FF0
FF80002FF0
FF80002FF0
FF80003FE0
FF80007FE0
FF8002FFD0
FFEAAFFF80
FFFFFFFF00
FFFFFFF800
FFFFFFE000
FFEAA90000
FF80000000
FF80000000
FF80000000
ENDCHAR
STARTCHAR germandbls
ENCODING 223
SWIDTH 813 0
DWIDTH 26 0
BBX 26 25 0 0
BITMAP
0001BFFF800000
001FFFFFF40000
007FFFFFFD0000
00FFFFFFFF0000
02FF9556FF4000
03FE0000BF8000
03FD0000BF8000
07FC0000FF8000
6BFC006BFF4000
7FFC02FFFF0000
7FFC0BFFFD0000
7FFC1FFFE40000
2BFC2FF9400000
07FC3FD0000000
07FC2FE5555000
07FC2FFFFFFD00
07FC0FFFFFFF80
07FC07FFFFFFD0
07FC00BFFFFFE0
07FC0000002FE0
07FC0155556FE0
07FC0BFFFFFFD0
07FC0BFFFFFFC0
07FC0BFFFFFF40
07FC0BFFFFF800
ENDCHAR
STARTCHAR agrave
ENCODING 224
SWIDTH 607 0
DWIDTH 19 0
BBX 18 26 0 -1
BITMAP
001D000000
003F400000
00FFD00000
007FF40000
000BF80000
0001A00000
0000000000
0001540000
001FFF8060
01FFFFF5E0
03FFFFFFE0
0BFFFFFFE0
1FFD06FFE0
2FF000BFE0
3FD0003FE0
7FC0002FE0
7FC0001FE0
7FC0002FE0
3FD0003FE0
2FF000BFE0
1FFD06FFE0
0FFFFFFFE0
07FFFFFFE0
01FFFFF5E0
001FFF40A0
0000500000
ENDCHAR
STARTCHAR aacute
ENCODING 225
SWIDTH 607 0
DWIDTH 19 0
BBX 18 26 0 -1
BITMAP
0000028000
00000BE000
00003FF400
0000FFE000
0001FF4000
0000740000
0000000000
0001540000
001FFF8060
01FFFFF5E0
03FFFFFFE0
0BFFFFFFE0
1FFD06FFE0
2FF000BFE0
3FD0003FE0
7FC0002FE0
7FC0001FE0
7FC0002FE0
3FD0003FE0
2FF000BFE0
1FFD06FFE0
0FFFFFFFE0
07FFFFFFE0
01FFFFF5E0
001FFF40A0
0000500000
ENDCHAR
STARTCHAR acircumflex
ENCODING 226
SWIDTH 607 0
DWIDTH 19 0
BBX 18 25 0 -1
BITMAP
0000B00000
0002FD0000
000BFF4000
002FFFD000
001F4BC000
0005020000
0001540000
001FFF8060
01FFFFF5E0
03FFFFFFE0
0BFFFFFFE0
1FFD06FFE0
2FF000BFE0
3FD0003FE0
7FC0002FE0
7FC0001FE0
7FC0002FE0
3FD0003FE0
2FF000BFE0
1FFD06FFE0
0FFFFFFFE0
07FFFFFFE0
01FFFFF5E0
001FFF40A0
0000500000
ENDCHAR
STARTCHAR atilde
ENCODING 227
SWIDTH 607 0
DWIDTH 19 0
BBX 18 25 0 -1
BITMAP
002F92F400
00BFF6F400
00BFFFF400
00BEBFF000
00BD1FD000
0014000000
0001540000
001FFF8060
01FFFFF5E0
03FFFFFFE0
0BFFFFFFE0
1FFD06FFE0
2FF000BFE0
3FD0003FE0
7FC0002FE0
7FC0001FE0
7FC0002FE0
3FD0003FE0
2FF000BFE0
1FFD06FFE0
0FFFFFFFE0
07FFFFFFE0
01FFFFF5E0
001FFF40A0
0000500000
ENDCHAR
STARTCHAR adieresis
ENCODING 228
SWIDTH 607 0
DWIDTH 19 0
BBX 18 23 0 -1
BITMAP
002E029000
007F4BF000
007F4BF000
002E07D000
0001540000
001FFF8060
01FFFFF5E0
03FFFFFFE0
0BFFFFFFE0
1FFD06FFE0
2FF000BFE0
3FD0003FE0
7FC0002FE0
7FC0001FE0
7FC0002FE0
3FD0003FE0
2FF000BFE0
1FFD06FFE0
0FFFFFFFE0
07FFFFFFE0
01FFFFF5E0
001FFF40A0
0000500000
ENDCHAR
STARTCHAR aring
ENCODING 229
SWIDTH 607 0
DWIDTH 19 0
BBX 18 26 0 -1
BITMAP
0000640000
0003FE0000
000BAF0000
000B4B4000
000BEF0000
0003FD0000
0000540000
0001540000
001FFF8060
01FFFFF5E0
03FFFFFFE0
0BFFFFFFE0
1FFD06FFE0
2FF000BFE0
3FD0003FE0
7FC0002FE0
7FC0001FE0
7FC0002FE0
3FD0003FE0
2FF000BFE0
1FFD06FFE0
0FFFFFFFE0
07FFFFFFE0
01FFFFF5E0
001FFF40A0
0000500000
ENDCHAR
STARTCHAR ae
ENCODING 230
SWIDTH 976 0
DWIDTH 31 0
BBX 31 19 0 -1
BITMAP
0001540000054000
001FFF8061BFFD00
01FFFFF5FBFFFF80
03FFFFFFFFFFFFF0
0BFFFFFFFFFFFFF4
1FFD06FFFFE07FE0
2FF000BFFF81FF80
3FD0003FFF03FF00
7FC0002FFE0BFD00
7FC0001FFD1FF400
7FC0002FFE7FE000
3FD0003FFFFF8000
2FF000BFFFFE0340
1FFD06FFFFFC1FD0
0FFFFFFFFFFFFFF4
07FFFFFFFFFFFFF0
01FFFFF5FBFFFF80
001FFF40A1BFF900
0000500000054000
ENDCHAR
STARTCHAR ccedilla
ENCODING 231
SWIDTH 521 0
DWIDTH 17 0
BBX 16 25 0 -7
BITMAP
00005400
001FFF80
00BFFFF4
03FFFFFD
0BFFFFFF
1FFD06FD
2FF400B4
3FE00010
7FD00000
7FC00000
7FC00000
3FD00000
3FF000B0
1FFD06FC
0BFFFFFF
03FFFFFE
00BFFFF4
001FFF80
0001E000
0002F400
0003FD00
00007E00
001EBE00
002FFD00
001BF800
ENDCHAR
STARTCHAR egrave
ENCODING 232
SWIDTH 524 0
DWIDTH 17 0
BBX 16 26 0 -1
BITMAP
002C0000
007F0000
01FFD000
00BFF400
001BF400
0001E000
00000000
00015400
001FFF90
01FFFFF8
07FFFFFE
0FFFFFFF
1FFD0BFD
2FF02FF4
3FD07FE0
7FC0FF80
7FC2FF00
7FCBFC00
3FEFF400
2FFFD0B0
1FFF86FC
0BFFFFFF
03FFFFFE
00BFFFF4
001BFF90
00005400
ENDCHAR
STARTCHAR eacute
ENCODING 233
SWIDTH 524 0
DWIDTH 17 0
BBX 16 26 0 -1
BITMAP
00000280
00000FE0
00003FF4
0001FFE0
0001FE40
00007400
00000000
00015400
001FFF90
01FFFFF8
07FFFFFE
0FFFFFFF
1FFD0BFD
2FF02FF4
3FD07FE0
7FC0FF80
7FC2FF00
7FCBFC00
3FEFF400
2FFFD0B0
1FFF86FC
0BFFFFFF
03FFFFFE
00BFFFF4
001BFF90
00005400
ENDCHAR
STARTCHAR ecircumflex
ENCODING 234
SWIDTH 524 0
DWIDTH 17 0
BBX 16 25 0 -1
BITMAP
0001D000
0007F400
002FFD00
007FFF40
003E2F40
00180500
00015400
001FFF90
01FFFFF8
07FFFFFE
0FFFFFFF
1FFD0BFD
2FF02FF4
3FD07FE0
7FC0FF80
7FC2FF00
7FCBFC00
3FEFF400
2FFFD0B0
1FFF86FC
0BFFFFFF
03FFFFFE
00BFFFF4
001BFF90
00005400
ENDCHAR
STARTCHAR edieresis
ENCODING 235
SWIDTH 524 0
DWIDTH 17 0
BBX 16 24 0 -1
BITMAP
00780A40
01FE1FC0
01FE1FD0
00BC0B80
00000000
00015400
001FFF90
01FFFFF8
07FFFFFE
0FFFFFFF
1FFD0BFD
2FF02FF4
3FD07FE0
7FC0FF80
7FC2FF00
7FCBFC00
3FEFF400
2FFFD0B0
1FFF86FC
0BFFFFFF
03FFFFFE
00BFFFF4
001BFF90
00005400
ENDCHAR
STARTCHAR igrave
ENCODING 236
SWIDTH 235 0
DWIDTH 8 0
BBX 8 24 -2 0
BITMAP
0A00
2F80
7FF0
2FFC
07FC
0074
0000
01AA
01FF
01FF
01FF
01FF
01FF
01FF
01FF
01FF
01FF
01FF
01FF
01FF
01FF
01FF
01FF
01FF
ENDCHAR
STARTCHAR iacute
ENCODING 237
SWIDTH 235 0
DWIDTH 8 0
BBX 8 24 1 0
BITMAP
0074
01FD
07FF
1FFD
2FE0
0A40
0000
6A80
7FC0
7FC0
7FC0
7FC0
7FC0
7FC0
7FC0
7FC0
7FC0
7FC0
7FC0
7FC0
7FC0
7FC0
7FC0
7FC0
ENDCHAR
STARTCHAR icircumflex
ENCODING 238
SWIDTH 235 0
DWIDTH 8 0
BBX 9 24 -1 0
BITMAP
01E000
07F800
1FFE00
7FFF80
2E1F40
080600
000000
06A800
07FC00
07FC00
07FC00
07FC00
07FC00
07FC00
07FC00
07FC00
07FC00
07FC00
07FC00
07FC00
07FC00
07FC00
07FC00
07FC00
ENDCHAR
STARTCHAR idieresis
ENCODING 239
SWIDTH 235 0
DWIDTH 8 0
BBX 10 22 -1 0
BITMAP
690680
FF0FD0
FF1FE0
7D0BC0
000000
06A800
07FC00
07FC00
07FC00
07FC00
07FC00
07FC00
07FC00
07FC00
07FC00
07FC00
07FC00
07FC00
07FC00
07FC00
07FC00
07FC00
ENDCHAR
STARTCHAR eth
ENCODING 240
SWIDTH 581 0
DWIDTH 19 0
BBX 18 26 0 -1
BITMAP
0001550000
0003FF4000
0056FF9540
00FFFFFFD0
00FFFFFFD0
00FFFFFFD0
00155FFD40
000017FD00
001BFFFE00
00BFFFFF00
03FFFFFF80
0BFFFFFFC0
1FFD02FFC0
2FF000BFD0
3FD0003FE0
7FC0002FE0
7FC0002FE0
7FC0002FE0
3FE0003FE0
2FF400BFD0
1FFD06FFC0
0BFFFFFF40
03FFFFFE00
00BFFFF400
001BFF8000
0000540000
ENDCHAR
STARTCHAR ntilde
ENCODING 241
SWIDTH 562 0
DWIDTH 18 0
BBX 16 23 1 0
BITMAP
00BE0BC0
02FFDFD0
03FFFFC0
03F6FFC0
02F0BF40
01500000
602FF900
79FFFF80
7FFFFFE0
7FFFFFF4
7FF96FFC
7FE007FD
7FC003FD
7FC002FE
7FC002FE
7FC002FE
7FC002FE
7FC002FE
7FC002FE
7FC002FE
7FC002FE
7FC002FE
7FC002FE
ENDCHAR
STARTCHAR ograve
ENCODING 242
SWIDTH 579 0
DWIDTH 19 0
BBX 18 26 0 -1
BITMAP
001D000000
007F400000
00FFD00000
007FF40000
000BF80000
0001E00000
0000000000
0001540000
001FFF9000
00FFFFF800
03FFFFFE00
0BFFFFFF40
1FFD02FFC0
2FF000BFD0
3FD0003FE0
7FC0002FE0
7FC0002FE0
7FC0002FE0
3FE0003FE0
2FF400BFD0
1FFD06FFC0
0BFFFFFF40
03FFFFFE00
00BFFFF400
001BFF8000
0000540000
ENDCHAR
STARTCHAR oacute
ENCODING 243
SWIDTH 579 0
DWIDTH 19 0
BBX 18 26 0 -1
BITMAP
0000028000
00000FE000
00003FF400
0001FFE000
0001FE4000
0000740000
0000000000
0001540000
001FFF9000
00FFFFF800
03FFFFFE00
0BFFFFFF40
1FFD02FFC0
2FF000BFD0
3FD0003FE0
7FC0002FE0
7FC0002FE0
7FC0002FE0
3FE0003FE0
2FF400BFD0
1FFD06FFC0
0BFFFFFF40
03FFFFFE00
00BFFFF400
001BFF8000
0000540000
ENDCHAR
STARTCHAR ocircumflex
ENCODING 244
SWIDTH 579 0
DWIDTH 19 0
BBX 18 25 0 -1
BITMAP
0000B00000
0002FD0000
000BFF4000
002FFFD000
001F4B8000
0005020000
0001540000
001FFF9000
00FFFFF800
03FFFFFE00
0BFFFFFF40
1FFD02FFC0
2FF000BFD0
3FD0003FE0
7FC0002FE0
7FC0002FE0
7FC0002FE0
3FE0003FE0
2FF400BFD0
1FFD06FFC0
0BFFFFFF40
03FFFFFE00
00BFFFF400
001BFF8000
0000540000
ENDCHAR
STARTCHAR otilde
ENCODING 245
SWIDTH 579 0
DWIDTH 19 0
BBX 18 25 0 -1
BITMAP
002F92F400
00BFF6F400
00FFFFF400
00FEBFF000
00BD1FD000
0014000000
0001540000
001FFF9000
00FFFFF800
03FFFFFE00
0BFFFFFF40
1FFD02FFC0
2FF000BFD0
3FD0003FE0
7FC0002FE0
7FC0002FE0
7FC0002FE0
3FE0003FE0
2FF400BFD0
1FFD06FFC0
0BFFFFFF40
03FFFFFE00
00BFFFF400
001BFF8000
0000540000
ENDCHAR
STARTCHAR odieresis
ENCODING 246
SWIDTH 579 0
DWIDTH 19 0
BBX 18 23 0 -1
BITMAP
002E029000
007F4BF000
007F4BF000
002E07D000
0001540000
001FFF9000
00FFFFF800
03FFFFFE00
0BFFFFFF40
1FFD02FFC0
2FF000BFD0
3FD0003FE0
7FC0002FE0
7FC0002FE0
7FC0002FE0
3FE0003FE0
2FF400BFD0
1FFD06FFC0
0BFFFFFF40
03FFFFFE00
00BFFFF400
001BFF8000
0000540000
ENDCHAR
STARTCHAR divide
ENCODING 247
SWIDTH 494 0
DWIDTH 16 0
BBX 14 16 1 3
BITMAP
002F4000
007FC000
007FC000
002F8000
00050000
55555550
BFFFFFD0
BFFFFFD0
BFFFFFD0
AAAAAA90
00000000
002F8000
007FC000
007FC000
002F8000
00050000
ENDCHAR
STARTCHAR oslash
ENCODING 248
SWIDTH 579 0
DWIDTH 19 0
BBX 18 19 0 -1
BITMAP
0001540000
001FFFAFD0
00FFFFFF80
03FFFFFF00
0BFFFFFF40
1FFD0BFFC0
2FF02FFFD0
3FD07FFFE0
7FC0FF6FE0
7FC2FE2FE0
7FCBF82FE0
3FEFF03FE0
2FFFD0BFD0
1FFF86FFC0
0BFFFFFF40
07FFFFFE00
0FFFFFF400
2FEBFF8000
0000540000
ENDCHAR
STARTCHAR ugrave
ENCODING 249
SWIDTH 562 0
DWIDTH 18 0
BBX 16 25 1 -1
BITMAP
00A00000
02FC0000
07FF0000
02FFD000
006FD000
00074000
00000000
6A4002A9
BF8003FD
BF8003FD
BF8003FD
BF8003FD
BF8003FD
BF8003FD
BF8003FD
BF8003FD
BF8003FD
BF8003FD
7FD00BFD
3FF42FFD
2FFFFFFD
0FFFFFFD
07FFFF6D
00BFF80D
00054000
ENDCHAR
STARTCHAR uacute
ENCODING 250
SWIDTH 562 0
DWIDTH 18 0
BBX 16 25 1 -1
BITMAP
00001E00
00007F40
0001FFC0
0007FF40
0007F800
0002D000
00000000
6A4002A9
BF8003FD
BF8003FD
BF8003FD
BF8003FD
BF8003FD
BF8003FD
BF8003FD
BF8003FD
BF8003FD
BF8003FD
7FD00BFD
3FF42FFD
2FFFFFFD
0FFFFFFD
07FFFF6D
00BFF80D
00054000
ENDCHAR
STARTCHAR ucircumflex
ENCODING 251
SWIDTH 562 0
DWIDTH 18 0
BBX 16 25 1 -1
BITMAP
00038000
000FE000
007FF800
00FFFE00
00BC7E00
00201800
00000000
6A4002A9
BF8003FD
BF8003FD
BF8003FD
BF8003FD
BF8003FD
BF8003FD
BF8003FD
BF8003FD
BF8003FD
BF8003FD
7FD00BFD
3FF42FFD
2FFFFFFD
0FFFFFFD
07FFFF6D
00BFF80D
00054000
ENDCHAR
STARTCHAR udieresis
ENCODING 252
SWIDTH 562 0
DWIDTH 18 0
BBX 16 23 1 -1
BITMAP
01A41A00
02FC3F80
03FC3F80
01F42F00
00000000
6A4002A9
BF8003FD
BF8003FD
BF8003FD
BF8003FD
BF8003FD
BF8003FD
BF8003FD
BF8003FD
BF8003FD
BF8003FD
7FD00BFD
3FF42FFD
2FFFFFFD
0FFFFFFD
07FFFF6D
00BFF80D
00054000
ENDCHAR
STARTCHAR yacute
ENCODING 253
SWIDTH 562 0
DWIDTH 18 0
BBX 16 31 1 -7
BITMAP
00001D00
00007F40
0001FFC0
0007FF40
0007F800
0002D000
00000000
6A4002A9
BF8003FD
BF8003FD
BF8003FD
BF8003FD
BF8003FD
BF8003FD
BF8003FD
BF8003FD
BF8003FD
BF8003FD
7FD00BFD
3FF42FFD
2FFFFFFD
0FFFFFFD
07FFFFFD
00BFFBFD
00054BFC
00006FF8
007FFFF0
007FFFD0
007FFF40
007FF800
00154000
ENDCHAR
STARTCHAR thorn
ENCODING 254
SWIDTH 608 0
DWIDTH 19 0
BBX 18 31 1 -7
BITMAP
6A80000000
7FC0000000
7FC0000000
7FC0000000
7FC0000000
7FC0000000
7FC0540000
7FDBFF9000
7FFFFFF800
7FFFFFFE00
7FFFFFFF40
7FFD02FFC0
7FF000BFD0
7FD0003FE0
7FC0002FE0
7FC0002FE0
7FC0002FE0
7FD0003FE0
7FF000BFD0
7FFD06FFC0
7FFFFFFF40
7FFFFFFE00
7FFFFFF800
7FDBFF9000
7FC0540000
7FC0000000
7FC0000000
7FC0000000
7FC0000000
7FC0000000
1540000000
ENDCHAR
STARTCHAR ydieresis
ENCODING 255
SWIDTH 562 0
DWIDTH 18 0
BBX 16 29 1 -7
BITMAP
01A41A00
02FC3F80
03FC3F80
01F42F00
00000000
6A4002A9
BF8003FD
BF8003FD
BF8003FD
BF8003FD
BF8003FD
BF8003FD
BF8003FD
BF8003FD
BF8003FD
BF8003FD
7FD00BFD
3FF42FFD
2FFFFFFD
0FFFFFFD
07FFFFFD
00BFFBFD
00054BFC
00006FF8
007FFFF0
007FFFD0
007FFF40
007FF800
00154000
ENDCHAR
STARTCHAR Amacron
ENCODING 256
SWIDTH 673 0
DWIDTH 22 0
BBX 19 28 1 0
BITMAP
0005555000
001FFFE000
001FFFE000
000FFFE000
0000000000
0000550000
001BFFE000
00BFFFFD00
02FFFFFF40
0BFFFFFFD0
1FFE41FFE0
2FF8003FF4
3FF0001FF4
3FD0000FF8
3FD0000BF8
7FD0000BF8
7FD0000BF8
7FD0000BF8
7FD0000BF8
7FFFFFFFF8
7FFFFFFFF8
7FFFFFFFF8
7FFFFFFFF8
7FEAAAAFF8
7FD0000BF8
7FD0000BF8
7FD0000BF8
7FD0000BF8
ENDCHAR
STARTCHAR amacron
ENCODING 257
SWIDTH 607 0
DWIDTH 19 0
BBX 18 24 0 -1
BITMAP
0015554000
003FFFC000
003FFFC000
002FFFC000
0000000000
0001540000
001FFF8060
01FFFFF5E0
03FFFFFFE0
0BFFFFFFE0
1FFD06FFE0
2FF000BFE0
3FD0003FE0
7FC0002FE0
7FC0001FE0
7FC0002FE0
3FD0003FE0
2FF000BFE0
1FFD06FFE0
0FFFFFFFE0
07FFFFFFE0
01FFFFF5E0
001FFF40A0
0000500000
ENDCHAR
STARTCHAR Abreve
ENCODING 258
SWIDTH 673 0
DWIDTH 22 0
BBX 19 29 1 0
BITMAP
000A868000
000FCBC000
000BFFC000
0007FF4000
0000A90000
0000000000
0000550000
001BFFE000
00BFFFFD00
02FFFFFF40
0BFFFFFFD0
1FFE41FFE0
2FF8003FF4
3FF0001FF4
3FD0000FF8
3FD0000BF8
7FD0000BF8
7FD0000BF8
7FD0000BF8
7FD0000BF8
7FFFFFFFF8
7FFFFFFFF8
7FFFFFFFF8
7FFFFFFFF8
7FEAAAAFF8
7FD0000BF8
7FD0000BF8
7FD0000BF8
7FD0000BF8
ENDCHAR
STARTCHAR abreve
ENCODING 259
SWIDTH 607 0
DWIDTH 19 0
BBX 18 24 0 -1
BITMAP
001A5A0000
002F5F4000
001FFF4000
000BFE0000
0001A40000
0001540000
001FFF8060
01FFFFF5E0
03FFFFFFE0
0BFFFFFFE0
1FFD06FFE0
2FF000BFE0
3FD0003FE0
7FC0002FE0
7FC0001FE0
7FC0002FE0
3FD0003FE0
2FF000BFE0
1FFD06FFE0
0FFFFFFFE0
07FFFFFFE0
01FFFFF5E0
001FFF40A0
0000500000
ENDCHAR
STARTCHAR Aogonek
ENCODING 260
SWIDTH 673 0
DWIDTH 22 0
BBX 20 29 1 -6
BITMAP
0000550000
001BFFE000
00BFFFFD00
02FFFFFF40
0BFFFFFFD0
1FFE41FFE0
2FF8003FF4
3FF0001FF4
3FD0000FF8
3FD0000BF8
7FD0000BF8
7FD0000BF8
7FD0000BF8
7FD0000BF8
7FFFFFFFF8
7FFFFFFFF8
7FFFFFFFF8
7FFFFFFFF8
7FEAAAAFF8
7FD0000BF8
7FD0000BF8
7FD0000BF8
7FD0000BF8
0000000BC0
0000001F40
0000002FA4
0000002FFD
0000000FFD
00000002A0
ENDCHAR
STARTCHAR aogonek
ENCODING 261
SWIDTH 607 0
DWIDTH 19 0
BBX 20 24 0 -6
BITMAP
0001540000
001FFF8060
01FFFFF5E0
03FFFFFFE0
0BFFFFFFE0
1FFD06FFE0
2FF000BFE0
3FD0003FE0
7FC0002FE0
7FC0001FE0
7FC0002FE0
3FD0003FE0
2FF000BFE0
1FFD06FFE0
0FFFFFFFE0
07FFFFFFE0
01FFFFF5E0
001FFF41E0
00005007D0
0000000F80
0000001F98
0000001FFE
0000000BFE
00000001A4
ENDCHAR
STARTCHAR Cacute
ENCODING 262
SWIDTH 640 0
DWIDTH 20 0
BBX 19 31 1 -1
BITMAP
0000007400
000001FD00
000007FF00
00001FFD00
00002FE000
00000B4000
0000000000
00006AA400
000BFFFF80
007FFFFFF4
02FFFFFFF8
07FFFEFFF0
1FFF4007D0
2FF8000080
7FE0000000
BFD0000000
FF80000000
FF40000000
FF40000000
FF40000000
FF80000000
BFC0000000
BFD0000000
7FF0000000
2FFD0001C0
0FFF901BE0
07FFFFFFF4
01FFFFFFF8
006FFFFFE0
0006FFFE40
0000155000
ENDCHAR
STARTCHAR cacute
ENCODING 263
SWIDTH 521 0
DWIDTH 17 0
BBX 16 26 0 -1
BITMAP
00000740
00001FD0
00007FF0
0001FFD0
0001FE00
0000B400
00000000
00005400
001FFF80
00BFFFF4
03FFFFFD
0BFFFFFF
1FFD06FD
2FF400B4
3FE00010
7FD00000
7FC00000
7FC00000
3FD00000
2FF000B0
1FFD06FC
0BFFFFFF
03FFFFFD
00BFFFF4
001FFF80
00005400
ENDCHAR
STARTCHAR Ccircumflex
ENCODING 264
SWIDTH 640 0
DWIDTH 20 0
BBX 19 31 1 -1
BITMAP
00001E0000
00007F8000
0001FFE000
0007FFF800
0002E1F400
0000806000
0000000000
00006AA400
000BFFFF80
007FFFFFF4
02FFFFFFF8
07FFFEFFF0
1FFF4007D0
2FF8000080
7FE0000000
BFD0000000
FF80000000
FF40000000
FF40000000
FF40000000
FF80000000
BFC0000000
BFD0000000
7FF0000000
2FFD0001C0
0FFF901BE0
07FFFFFFF4
01FFFFFFF8
006FFFFFE0
0006FFFE40
0000155000
ENDCHAR
STARTCHAR ccircumflex
ENCODING 265
SWIDTH 521 0
DWIDTH 17 0
BBX 16 25 0 -1
BITMAP
0000A000
0002FC00
000BFF40
002FFFC0
001F4B80
00090200
00005400
001FFF80
00BFFFF4
03FFFFFD
0BFFFFFF
1FFD06FD
2FF400B4
3FE00010
7FD00000
7FC00000
7FC00000
3FD00000
2FF000B0
1FFD06FC
0BFFFFFF
03FFFFFD
00BFFFF4
001FFF80
00005400
ENDCHAR
STARTCHAR Cdotaccent
ENCODING 266
SWIDTH 640 0
DWIDTH 20 0
BBX 19 29 1 -1
BITMAP
00001F8000
00002FC000
00002FC000
00000A4000
0000000000
00006AA400
000BFFFF80
007FFFFFF4
02FFFFFFF8
07FFFEFFF0
1FFF4007D0
2FF8000080
7FE0000000
BFD0000000
FF80000000
FF40000000
FF40000000
FF40000000
FF80000000
BFC0000000
BFD0000000
7FF0000000
2FFD0001C0
0FFF901BE0
07FFFFFFF4
01FFFFFFF8
006FFFFFE0
0006FFFE40
0000155000
ENDCHAR
STARTCHAR cdotaccent
ENCODING 267
SWIDTH 521 0
DWIDTH 17 0
BBX 16 24 0 -1
BITMAP
0001F800
0002FD00
0002FC00
0000A400
00000000
00005400
001FFF80
00BFFFF4
03FFFFFD
0BFFFFFF
1FFD06FD
2FF400B4
3FE00010
7FD00000
7FC00000
7FC00000
3FD00000
2FF000B0
1FFD06FC
0BFFFFFF
03FFFFFD
00BFFFF4
001FFF80
00005400
ENDCHAR
STARTCHAR Ccaron
ENCODING 268
SWIDTH 640 0
DWIDTH 20 0
BBX 19 31 1 -1
BITMAP
0000401000
0001E07800
0002FEFD00
0001FFF800
00003FE000
00000B8000
0000010000
00006AA400
000BFFFF80
007FFFFFF4
02FFFFFFF8
07FFFEFFF0
1FFF4007D0
2FF8000080
7FE0000000
BFD0000000
FF80000000
FF40000000
FF40000000
FF40000000
FF80000000
BFC0000000
BFD0000000
7FF0000000
2FFD0001C0
0FFF901BE0
07FFFFFFF4
01FFFFFFF8
006FFFFFE0
0006FFFE40
0000155000
ENDCHAR
STARTCHAR ccaron
ENCODING 269
SWIDTH 521 0
DWIDTH 17 0
BBX 16 26 0 -1
BITMAP
00040100
000F0780
002FEFD0
001FFF80
0003FE00
0000B800
00001000
00005400
001FFF80
00BFFFF4
03FFFFFD
0BFFFFFF
1FFD06FD
2FF400B4
3FE00010
7FD00000
7FC00000
7FC00000
3FD00000
2FF000B0
1FFD06FC
0BFFFFFF
03FFFFFD
00BFFFF4
001FFF80
00005400
ENDCHAR
STARTCHAR Dcaron
ENCODING 270
SWIDTH 653 0
DWIDTH 21 0
BBX 18 30 2 0
BITMAP
0010040000
003D1E0000
00BFBF4000
002FFE0000
000BF80000
0002E00000
0000400000
5555400000
FFFFF90000
FFFFFF9000
FFFFFFF400
FFFFFFFD00
FF806FFF00
FF8007FF80
FF8000FFC0
FF80007FE0
FF80003FE0
FF80002FF0
FF80001FF0
FF80002FF0
FF80002FF0
FF80003FE0
FF8000BFD0
FF8001FFC0
FF800BFF40
FF96BFFE00
FFFFFFFC00
FFFFFFE000
FFFFFF4000
FFFFE40000
ENDCHAR
STARTCHAR dcaron
ENCODING 271
SWIDTH 740 0
DWIDTH 24 0
BBX 24 25 0 -1
BITMAP
000000155000
0000002FE010
0000002FE1FD
0000002FE2FE
0000002FE1FE
0000002FE0BD
0001542FE03C
001FFF6FE074
00FFFFFFE000
03FFFFFFE000
0BFFFFFFE000
1FFD06FFE000
2FF000BFE000
3FD0003FE000
7FC0002FE000
7FC0002FE000
7FC0002FE000
3FE0003FE000
2FF400BFE000
1FFD06FFE000
0BFFFFFFE000
03FFFFFFE000
00BFFFF5E000
001FFF40A000
000050000000
ENDCHAR
STARTCHAR Dcroat
ENCODING 272
SWIDTH 672 0
DWIDTH 22 0
BBX 21 23 0 0
BITMAP
015555000000
07FFFFE40000
07FFFFFE0000
07FFFFFF8000
07FFFFFFE000
07FD05FFF800
07FD001FFD00
07FD0007FE00
07FD0002FF00
5BFE5001FF40
FFFFE000FF80
FFFFE000FF80
FFFFE000FF80
AFFFA000FF40
07FD0001FF40
07FD0003FF00
07FD000BFE00
07FD006FFC00
07FE5AFFF400
07FFFFFFE000
07FFFFFF4000
07FFFFF90000
07FFFE900000
ENDCHAR
STARTCHAR dcroat
ENCODING 273
SWIDTH 606 0
DWIDTH 19 0
BBX 20 25 0 -1
BITMAP
0000001550
0000006FF5
000001FFFD
000001FFFD
000001FFFD
000001BFF9
0001542FE0
001FFF6FE0
00FFFFFFE0
03FFFFFFE0
0BFFFFFFE0
1FFD06FFE0
2FF000BFE0
3FD0003FE0
7FC0002FE0
7FC0002FE0
7FC0002FE0
3FE0003FE0
2FF400BFE0
1FFD06FFE0
0BFFFFFFE0
03FFFFFFE0
00BFFFF5E0
001FFF40A0
0000500000
ENDCHAR
STARTCHAR Emacron
ENCODING 274
SWIDTH 578 0
DWIDTH 19 0
BBX 16 28 2 0
BITMAP
00555500
00BFFF00
00BFFF00
00BFFF00
00000000
55555555
FFFFFFFD
FFFFFFFD
FFFFFFFD
FFFFFFFD
FF800000
FF800000
FF800000
FF800000
FF955500
FFFFFF00
FFFFFF00
FFFFFF00
FFFFFF00
FF800000
FF800000
FF800000
FF800000
FF955555
FFFFFFFD
FFFFFFFD
FFFFFFFD
FFFFFFFD
ENDCHAR
STARTCHAR emacron
ENCODING 275
SWIDTH 524 0
DWIDTH 17 0
BBX 16 24 0 -1
BITMAP
00155540
003FFFC0
003FFFC0
002FFFC0
00000000
00015400
001FFF90
01FFFFF8
07FFFFFE
0FFFFFFF
1FFD0BFD
2FF02FF4
3FD07FE0
7FC0FF80
7FC2FF00
7FCBFC00
3FEFF400
2FFFD0B0
1FFF86FC
0BFFFFFF
03FFFFFE
00BFFFF4
001BFF90
00005400
ENDCHAR
STARTCHAR Ebreve
ENCODING 276
SWIDTH 578 0
DWIDTH 19 0
BBX 16 29 2 0
BITMAP
00686800
00BCBD00
00BFFC00
003FF800
000A9000
00000000
55555555
FFFFFFFD
FFFFFFFD
FFFFFFFD
FFFFFFFD
FF800000
FF800000
FF800000
FF800000
FF955500
FFFFFF00
FFFFFF00
FFFFFF00
FFFFFF00
FF800000
FF800000
FF800000
FF800000
FF955555
FFFFFFFD
FFFFFFFD
FFFFFFFD
FFFFFFFD
ENDCHAR
STARTCHAR ebreve
ENCODING 277
SWIDTH 524 0
DWIDTH 17 0
BBX 16 24 0 -1
BITMAP
001A1A00
002F6F40
002FFF40
000FFE00
0002A400
00015400
001FFF90
01FFFFF8
07FFFFFE
0FFFFFFF
1FFD0BFD
2FF02FF4
3FD07FE0
7FC0FF80
7FC2FF00
7FCBFC00
3FEFF400
2FFFD0B0
1FFF86FC
0BFFFFFF
03FFFFFE
00BFFFF4
001BFF90
00005400
ENDCHAR
STARTCHAR Edotaccent
ENCODING 278
SWIDTH 578 0
DWIDTH 19 0
BBX 16 28 2 0
BITMAP
000BD000
000FE000
000FE000
00068000
00000000
55555555
FFFFFFFD
FFFFFFFD
FFFFFFFD
FFFFFFFD
FF800000
FF800000
FF800000
FF800000
FF955500
FFFFFF00
FFFFFF00
FFFFFF00
FFFFFF00
FF800000
FF800000
FF800000
FF800000
FF955555
FFFFFFFD
FFFFFFFD
FFFFFFFD
FFFFFFFD
ENDCHAR
STARTCHAR edotaccent
ENCODING 279
SWIDTH 524 0
DWIDTH 17 0
BBX 16 24 0 -1
BITMAP
0001F400
0003FC00
0002FC00
0000A400
00000000
00015400
001FFF90
01FFFFF8
07FFFFFE
0FFFFFFF
1FFD0BFD
2FF02FF4
3FD07FE0
7FC0FF80
7FC2FF00
7FCBFC00
3FEFF400
2FFFD0B0
1FFF86FC
0BFFFFFF
03FFFFFE
00BFFFF4
001BFF90
00005400
ENDCHAR
STARTCHAR Eogonek
ENCODING 280
SWIDTH 578 0
DWIDTH 19 0
BBX 16 29 2 -6
BITMAP
55555555
FFFFFFFD
FFFFFFFD
FFFFFFFD
FFFFFFFD
FF800000
FF800000
FF800000
FF800000
FF955500
FFFFFF00
FFFFFF00
FFFFFF00
FFFFFF00
FF800000
FF800000
FF800000
FF800000
FF955555
FFFFFFFD
FFFFFFFD
FFFFFFFD
FFFFFFFD
00001F40
00003E00
00007E60
00007FF8
00002FF8
00000690
ENDCHAR
STARTCHAR eogonek
ENCODING 281
SWIDTH 524 0
DWIDTH 17 0
BBX 16 24 0 -6
BITMAP
00015400
001FFF90
01FFFFF8
07FFFFFE
0FFFFFFF
1FFD0BFD
2FF02FF4
3FD07FE0
7FC0FF80
7FC2FF00
7FCBFC00
3FEFF400
2FFFD0B0
1FFF86FC
0BFFFFFF
03FFFFFE
00BFFFF4
001BFFD0
00006F40
00003E00
00007E60
00007FF8
00002FF8
00000690
ENDCHAR
STARTCHAR Ecaron
ENCODING 282
SWIDTH 578 0
DWIDTH 19 0
BBX 16 30 2 0
BITMAP
00100400
00B82D00
01FEBF00
007FFD00
001FF400
0007D000
00014000
55555555
FFFFFFFD
FFFFFFFD
FFFFFFFD
FFFFFFFD
FF800000
FF800000
FF800000
FF800000
FF955500
FFFFFF00
FFFFFF00
FFFFFF00
FFFFFF00
FF800000
FF800000
FF800000
FF800000
FF955555
FFFFFFFD
FFFFFFFD
FFFFFFFD
FFFFFFFD
ENDCHAR
STARTCHAR ecaron
ENCODING 283
SWIDTH 524 0
DWIDTH 17 0
BBX 16 26 0 -1
BITMAP
00040100
001E0B40
003FAFC0
001FFF40
0007FD00
0001F400
00001000
00015400
001FFF90
01FFFFF8
07FFFFFE
0FFFFFFF
1FFD0BFD
2FF02FF4
3FD07FE0
7FC0FF80
7FC2FF00
7FCBFC00
3FEFF400
2FFFD0B0
1FFF86FC
0BFFFFFF
03FFFFFE
00BFFFF4
001BFF90
00005400
ENDCHAR
STARTCHAR Gcircumflex
ENCODING 284
SWIDTH 665 0
DWIDTH 21 0
BBX 19 30 1 -1
BITMAP
00000E0000
00003F8000
0001FFE000
0003FFFC00
0002F1F800
0000806000
00005A9400
000BFFFF40
007FFFFFF4
01FFFFFFF8
07FFFEFFF0
1FFF400BD0
2FF8000180
7FF0000000
BFD0000000
FF80000000
FF40000000
FF40000000
FF400007FC
FF800007FC
BF800007FC
BFD00007FC
7FF00007FC
2FFD0007FC
0FFF901BFC
07FFFFFFFC
01FFFFFFFC
006FFFFFE0
0006FFFE40
0000155000
ENDCHAR
STARTCHAR gcircumflex
ENCODING 285
SWIDTH 607 0
DWIDTH 19 0
BBX 18 31 0 -7
BITMAP
0000B00000
0002FC0000
000BFF4000
002FFFD000
001F4B8000
0005020000
0000540000
001FFF8060
00FFFFF5E0
03FFFFFFE0
0BFFFFFFE0
1FFD06FFE0
2FF000BFE0
3FD0003FE0
7FC0002FE0
7FC0001FE0
7FD0002FE0
3FD0003FE0
2FF000BFE0
1FFD06FFE0
0FFFFFFFE0
07FFFFFFE0
01FFFFFFE0
001FFFBFE0
0000547FD0
000001FFC0
0002FFFF40
0003FFFE00
0003FFF800
0003FF9000
0001540000
ENDCHAR
STARTCHAR Gbreve
ENCODING 286
SWIDTH 665 0
DWIDTH 21 0
BBX 19 30 1 -1
BITMAP
0001A4A400
0001F5F800
0001FFF400
0000BFF000
00001A8000
0000000000
00005A9400
000BFFFF40
007FFFFFF4
01FFFFFFF8
07FFFEFFF0
1FFF400BD0
2FF8000180
7FF0000000
BFD0000000
FF80000000
FF40000000
FF40000000
FF400007FC
FF800007FC
BF800007FC
BFD00007FC
7FF00007FC
2FFD0007FC
0FFF901BFC
07FFFFFFFC
01FFFFFFFC
006FFFFFE0
0006FFFE40
0000155000
ENDCHAR
STARTCHAR gbreve
ENCODING 287
SWIDTH 607 0
DWIDTH 19 0
BBX 18 30 0 -7
BITMAP
001A4A4000
001F9F8000
001FFF8000
000BFF0000
0001A80000
0000540000
001FFF8060
00FFFFF5E0
03FFFFFFE0
0BFFFFFFE0
1FFD06FFE0
2FF000BFE0
3FD0003FE0
7FC0002FE0
7FC0001FE0
7FD0002FE0
3FD0003FE0
2FF000BFE0
1FFD06FFE0
0FFFFFFFE0
07FFFFFFE0
01FFFFFFE0
001FFFBFE0
0000547FD0
000001FFC0
0002FFFF40
0003FFFE00
0003FFF800
0003FF9000
0001540000
ENDCHAR
STARTCHAR Gdotaccent
ENCODING 288
SWIDTH 665 0
DWIDTH 21 0
BBX 19 29 1 -1
BITMAP
00001F4000
00003FC000
00003F8000
00001A0000
0000000000
00005A9400
000BFFFF40
007FFFFFF4
01FFFFFFF8
07FFFEFFF0
1FFF400BD0
2FF8000180
7FF0000000
BFD0000000
FF80000000
FF40000000
FF40000000
FF400007FC
FF800007FC
BF800007FC
BFD00007FC
7FF00007FC
2FFD0007FC
0FFF901BFC
07FFFFFFFC
01FFFFFFFC
006FFFFFE0
0006FFFE40
0000155000
ENDCHAR
STARTCHAR gdotaccent
ENCODING 289
SWIDTH 607 0
DWIDTH 19 0
BBX 18 29 0 -7
BITMAP
0001F40000
0003FC0000
0002FC0000
0000A40000
0000540000
001FFF8060
00FFFFF5E0
03FFFFFFE0
0BFFFFFFE0
1FFD06FFE0
2FF000BFE0
3FD0003FE0
7FC0002FE0
7FC0001FE0
7FD0002FE0
3FD0003FE0
2FF000BFE0
1FFD06FFE0
0FFFFFFFE0
07FFFFFFE0
01FFFFFFE0
001FFFBFE0
0000547FD0
000001FFC0
0002FFFF40
0003FFFE00
0003FFF800
0003FF9000
0001540000
ENDCHAR
STARTCHAR Gcommaaccent
ENCODING 290
SWIDTH 665 0
DWIDTH 21 0
BBX 19 31 1 -8
BITMAP
00005A9400
000BFFFF40
007FFFFFF4
01FFFFFFF8
07FFFEFFF0
1FFF400BD0
2FF8000180
7FF0000000
BFD0000000
FF80000000
FF40000000
FF40000000
FF400007FC
FF800007FC
BF800007FC
BFD00007FC
7FF00007FC
2FFD0007FC
0FFF901BFC
07FFFFFFFC
01FFFFFFFC
006FFFFFE0
0006FFFE40
0000155000
0000050000
00002F8000
00007FC000
00003FC000
00001F8000
00000B4000
00000A0000
ENDCHAR
STARTCHAR gcommaaccent
ENCODING 291
SWIDTH 607 0
DWIDTH 19 0
BBX 18 33 0 -7
BITMAP
0000500000
0001F00000
0002E00000
0003F80000
0003FC0000
0003FC0000
0001F40000
0000000000
0000540000
001FFF8060
00FFFFF5E0
03FFFFFFE0
0BFFFFFFE0
1FFD06FFE0
2FF000BFE0
3FD0003FE0
7FC0002FE0
7FC0001FE0
7FD0002FE0
3FD0003FE0
2FF000BFE0
1FFD06FFE0
0FFFFFFFE0
07FFFFFFE0
01FFFFFFE0
001FFFBFE0
0000547FD0
000001FFC0
0002FFFF40
0003FFFE00
0003FFF800
0003FF9000
0001540000
ENDCHAR
STARTCHAR Hcircumflex
ENCODING 292
SWIDTH 689 0
DWIDTH 22 0
BBX 18 29 2 0
BITMAP
0000A00000
0002F80000
000FFF0000
003FFFC000
002F4F8000
0009020000
5540001550
FF80001FF0
FF80001FF0
FF80001FF0
FF80001FF0
FF80001FF0
FF80001FF0
FF80001FF0
FF80001FF0
FF95556FF0
FFFFFFFFF0
FFFFFFFFF0
FFFFFFFFF0
FFFFFFFFF0
FF80002FF0
FF80001FF0
FF80001FF0
FF80001FF0
FF80001FF0
FF80001FF0
FF80001FF0
FF80001FF0
FF80001FF0
ENDCHAR
STARTCHAR hcircumflex
ENCODING 293
SWIDTH 562 0
DWIDTH 18 0
BBX 16 24 1 0
BITMAP
15403800
7FC0FE00
7FC7FF80
7FCFFFF0
7FCBC7E0
7FC20180
7FC00000
7FDBF900
7FFFFF80
7FFFFFE0
7FFFFFF4
7FF96FFC
7FE007FD
7FC003FD
7FC002FE
7FC002FE
7FC002FE
7FC002FE
7FC002FE
7FC002FE
7FC002FE
7FC002FE
7FC002FE
7FC002FE
ENDCHAR
STARTCHAR Hbar
ENCODING 294
SWIDTH 689 0
DWIDTH 22 0
BBX 22 23 0 0
BITMAP
055400015500
0FF80001FF00
0FF80001FF00
6FFEAAAAFF90
BFFFFFFFFFE0
BFFFFFFFFFE0
BFFFFFFFFFE0
6FFAAAAAFF90
0FF80001FF00
0FF95556FF00
0FFFFFFFFF00
0FFFFFFFFF00
0FFFFFFFFF00
0FFFFFFFFF00
0FF80002FF00
0FF80001FF00
0FF80001FF00
0FF80001FF00
0FF80001FF00
0FF80001FF00
0FF80001FF00
0FF80001FF00
0FF80001FF00
ENDCHAR
STARTCHAR hbar
ENCODING 295
SWIDTH 562 0
DWIDTH 18 0
BBX 17 24 0 0
BITMAP
0550000000
6FF4000000
FFFD000000
FFFD000000
FFFD000000
AFF9000000
1FF0000000
1FF6FE4000
1FFFFFE000
1FFFFFF800
1FFFFFFD00
1FFE5BFF00
1FF801FF40
1FF000FF40
1FF000BF80
1FF000BF80
1FF000BF80
1FF000BF80
1FF000BF80
1FF000BF80
1FF000BF80
1FF000BF80
1FF000BF80
1FF000BF80
ENDCHAR
STARTCHAR Itilde
ENCODING 296
SWIDTH 270 0
DWIDTH 9 0
BBX 11 29 -1 0
BITMAP
2F92F4
7FF6F4
BFFFF4
BE7FF0
BD1FD0
140000
015500
03FE00
03FE00
03FE00
03FE00
03FE00
03FE00
03FE00
03FE00
03FE00
03FE00
03FE00
03FE00
03FE00
03FE00
03FE00
03FE00
03FE00
03FE00
03FE00
03FE00
03FE00
03FE00
ENDCHAR
STARTCHAR itilde
ENCODING 297
SWIDTH 235 0
DWIDTH 8 0
BBX 11 23 -2 0
BITMAP
1BE0F8
3FF9FC
7FFFFC
7F7FF8
3F0BE0
150000
01AA00
01FF00
01FF00
01FF00
01FF00
01FF00
01FF00
01FF00
01FF00
01FF00
01FF00
01FF00
01FF00
01FF00
01FF00
01FF00
01FF00
ENDCHAR
STARTCHAR Imacron
ENCODING 298
SWIDTH 270 0
DWIDTH 9 0
BBX 9 28 0 0
BITMAP
555500
BFFF40
BFFF40
BFFF40
000000
055400
0FF800
0FF800
0FF800
0FF800
0FF800
0FF800
0FF800
0FF800
0FF800
0FF800
0FF800
0FF800
0FF800
0FF800
0FF800
0FF800
0FF800
0FF800
0FF800
0FF800
0FF800
0FF800
ENDCHAR
STARTCHAR imacron
ENCODING 299
SWIDTH 235 0
DWIDTH 8 0
BBX 8 22 0 0
BITMAP
5555
FFFE
FFFE
FFFE
0000
1AA0
1FF0
1FF0
1FF0
1FF0
1FF0
1FF0
1FF0
1FF0
1FF0
1FF0
1FF0
1FF0
1FF0
1FF0
1FF0
1FF0
ENDCHAR
STARTCHAR Ibreve
ENCODING 300
SWIDTH 270 0
DWIDTH 9 0
BBX 7 29 1 0
BITMAP
A8A4
F8FC
FFF8
7FF4
1A90
0000
1550
3FE0
3FE0
3FE0
3FE0
3FE0
3FE0
3FE0
3FE0
3FE0
3FE0
3FE0
3FE0
3FE0
3FE0
3FE0
3FE0
3FE0
3FE0
3FE0
3FE0
3FE0
3FE0
ENDCHAR
STARTCHAR ibreve
ENCODING 301
SWIDTH 235 0
DWIDTH 8 0
BBX 8 23 0 0
BITMAP
6868
BDBD
BFFD
3FF8
0A90
0000
1AA0
1FF0
1FF0
1FF0
1FF0
1FF0
1FF0
1FF0
1FF0
1FF0
1FF0
1FF0
1FF0
1FF0
1FF0
1FF0
1FF0
ENDCHAR
STARTCHAR Iogonek
ENCODING 302
SWIDTH 270 0
DWIDTH 9 0
BBX 7 29 1 -6
BITMAP
1550
3FE0
3FE0
3FE0
3FE0
3FE0
3FE0
3FE0
3FE0
3FE0
3FE0
3FE0
3FE0
3FE0
3FE0
3FE0
3FE0
3FE0
3FE0
3FE0
3FE0
3FE0
3FE0
2E00
BD00
FD90
FFF4
7FF4
1A40
ENDCHAR
STARTCHAR iogonek
ENCODING 303
SWIDTH 235 0
DWIDTH 8 0
BBX 7 30 0 -6
BITMAP
0BD0
2FF4
3FF8
3FF4
1FF0
0540
0000
1AA0
1FF0
1FF0
1FF0
1FF0
1FF0
1FF0
1FF0
1FF0
1FF0
1FF0
1FF0
1FF0
1FF0
1FF0
1FF0
1FF0
1F40
3E00
7E60
7FF8
2FF8
0690
ENDCHAR
STARTCHAR Idotaccent
ENCODING 304
SWIDTH 270 0
DWIDTH 9 0
BBX 5 28 2 0
BITMAP
7E00
BF40
BF00
2900
0000
5540
FF80
FF80
FF80
FF80
FF80
FF80
FF80
FF80
FF80
FF80
FF80
FF80
FF80
FF80
FF80
FF80
FF80
FF80
FF80
FF80
FF80
FF80
ENDCHAR
STARTCHAR dotlessi
ENCODING 305
SWIDTH 235 0
DWIDTH 8 0
BBX 5 17 1 0
BITMAP
6A80
7FC0
7FC0
7FC0
7FC0
7FC0
7FC0
7FC0
7FC0
7FC0
7FC0
7FC0
7FC0
7FC0
7FC0
7FC0
7FC0
ENDCHAR
STARTCHAR IJ
ENCODING 306
SWIDTH 687 0
DWIDTH 22 0
BBX 18 23 2 0
BITMAP
5540000550
FF80001FF0
FF80001FF0
FF80001FF0
FF80001FF0
FF80001FF0
FF80001FF0
FF80001FF0
FF80001FF0
FF80001FF0
FF80001FF0
FF80001FF0
FF80001FF0
FF80001FF0
FF80001FF0
FF80002FF0
FF80003FE0
FF8001FFD0
FF83ABFFC0
FF83FFFF40
FF83FFFD00
FF83FFF400
FF82FE4000
ENDCHAR
STARTCHAR ij
ENCODING 307
SWIDTH 474 0
DWIDTH 15 0
BBX 14 31 1 -7
BITMAP
2F407F40
BFD0FFC0
FFE1FFD0
FFD1FFC0
7FC0BF80
15001900
00000000
6A80AA40
7FC0BF80
7FC0BF80
7FC0BF80
7FC0BF80
7FC0BF80
7FC0BF80
7FC0BF80
7FC0BF80
7FC0BF80
7FC0BF80
7FC0BF80
7FC0BF80
7FC0BF80
7FC0BF80
7FC0FF40
7FC0FF40
0002FF00
000BFE00
1FFFFC00
1FFFF400
1FFFD000
1FFE0000
05500000
ENDCHAR
STARTCHAR Jcircumflex
ENCODING 308
SWIDTH 416 0
DWIDTH 13 0
BBX 14 29 0 0
BITMAP
0000B000
0002FD00
000BFF40
002FFFD0
001F4B80
00050200
00015500
0003FE00
0003FE00
0003FE00
0003FE00
0003FE00
0003FE00
0003FE00
0003FE00
0003FE00
0003FE00
0003FE00
0003FE00
0003FE00
0003FD00
0007FD00
000BFC00
002FF800
AAFFF400
BFFFE000
BFFF8000
BFFD0000
BF900000
ENDCHAR
STARTCHAR jcircumflex
ENCODING 309
SWIDTH 237 0
DWIDTH 8 0
BBX 13 31 -5 -7
BITMAP
0000E000
0007F800
001FFE00
007FFF80
002F1F40
00080600
00000000
0006A800
0007FC00
0007FC00
0007FC00
0007FC00
0007FC00
0007FC00
0007FC00
0007FC00
0007FC00
0007FC00
0007FC00
0007FC00
0007FC00
0007FC00
0007FC00
000BF800
001FF800
007FF000
BFFFE000
BFFF8000
BFFE0000
BFE40000
55000000
ENDCHAR
STARTCHAR Kcommaaccent
ENCODING 310
SWIDTH 625 0
DWIDTH 20 0
BBX 18 31 2 -8
BITMAP
5540001550
FF8000BFD0
FF8002FF80
FF8007FE00
FF800FFC00
FF802FF400
FF807FE000
FF81FF8000
FF83FF0000
FF8BFD0000
FF9FFD0000
FFBFFE0000
FFFFFF4000
FFFFFF8000
FFFEBFD000
FFF87FF000
FFF02FF400
FFD00FFC00
FF800BFE00
FF8003FF00
FF8001FF80
FF8000FFD0
FF80007FE0
0000000000
0001400000
000BE00000
000FF00000
000FF00000
0006F00000
0002D00000
0002800000
ENDCHAR
STARTCHAR kcommaaccent
ENCODING 311
SWIDTH 539 0
DWIDTH 17 0
BBX 16 32 1 -8
BITMAP
15400000
7FC00000
7FC00000
7FC00000
7FC00000
7FC00000
7FC00000
7FC002AA
7FC00BFD
7FC01FF4
7FC07FE0
7FC0FF80
7FC2FF00
7FCBFD00
7FDFF800
7FFFFD00
7FFFFF00
7FFFFF40
7FFDBFC0
7FF87FE0
7FF02FF4
7FD00FF8
7FC00BFD
7FC003FF
00000000
00014000
000FD000
001FE000
001FE000
0007D000
0003C000
00074000
ENDCHAR
STARTCHAR kgreenlandic
ENCODING 312
SWIDTH 539 0
DWIDTH 17 0
BBX 16 17 1 0
BITMAP
6A8002AA
7FC00BFD
7FC01FF4
7FC07FE0
7FC0FF80
7FC2FF00
7FCBFD00
7FDFF800
7FFFFD00
7FFFFF00
7FFFFF40
7FFDBFC0
7FF87FE0
7FF02FF4
7FD00FF8
7FC00BFD
7FC003FF
ENDCHAR
STARTCHAR Lacute
ENCODING 313
SWIDTH 562 0
DWIDTH 18 0
BBX 16 28 2 0
BITMAP
0000B000
0002F800
000BFE00
002FF800
003FD000
555E0000
FF800000
FF800000
FF800000
FF800000
FF800000
FF800000
FF800000
FF800000
FF800000
FF800000
FF800000
FF800000
FF800000
FF800000
FF800000
FF800000
FF800000
FF955555
FFFFFFFE
FFFFFFFE
FFFFFFFE
FFFFFFFE
ENDCHAR
STARTCHAR lacute
ENCODING 314
SWIDTH 235 0
DWIDTH 8 0
BBX 9 31 1 0
BITMAP
001D00
007F40
01FFC0
07FF40
0BF800
029000
000000
154000
7FC000
7FC000
7FC000
7FC000
7FC000
7FC000
7FC000
7FC000
7FC000
7FC000
7FC000
7FC000
7FC000
7FC000
7FC000
7FC000
7FC000
7FC000
7FC000
7FC000
7FC000
7FC000
7FC000
ENDCHAR
STARTCHAR Lcommaaccent
ENCODING 315
SWIDTH 562 0
DWIDTH 18 0
BBX 16 31 2 -8
BITMAP
55400000
FF800000
FF800000
FF800000
FF800000
FF800000
FF800000
FF800000
FF800000
FF800000
FF800000
FF800000
FF800000
FF800000
FF800000
FF800000
FF800000
FF800000
FF955555
FFFFFFFE
FFFFFFFE
FFFFFFFE
FFFFFFFE
00000000
00050000
002F8000
003FC000
003FC000
001BC000
000B4000
000A0000
ENDCHAR
STARTCHAR lcommaaccent
ENCODING 316
SWIDTH 235 0
DWIDTH 8 0
BBX 5 32 1 -8
BITMAP
1540
7FC0
7FC0
7FC0
7FC0
7FC0
7FC0
7FC0
7FC0
7FC0
7FC0
7FC0
7FC0
7FC0
7FC0
7FC0
7FC0
7FC0
7FC0
7FC0
7FC0
7FC0
7FC0
7FC0
0000
0500
3F40
7FC0
3FC0
1F80
0F40
0E00
ENDCHAR
STARTCHAR Lcaron
ENCODING 317
SWIDTH 562 0
DWIDTH 18 0
BBX 16 23 2 0
BITMAP
55405000
FF83F400
FF87F800
FF87F800
FF81F400
FF80F000
FF81D000
FF800000
FF800000
FF800000
FF800000
FF800000
FF800000
FF800000
FF800000
FF800000
FF800000
FF800000
FF955555
FFFFFFFE
FFFFFFFE
FFFFFFFE
FFFFFFFE
ENDCHAR
STARTCHAR lcaron
ENCODING 318
SWIDTH 369 0
DWIDTH 12 0
BBX 11 24 1 0
BITMAP
154000
7FC050
7FC3F4
7FC7F8
7FC7F8
7FC1F8
7FC0F4
7FC1E0
7FC000
7FC000
7FC000
7FC000
7FC000
7FC000
7FC000
7FC000
7FC000
7FC000
7FC000
7FC000
7FC000
7FC000
7FC000
7FC000
ENDCHAR
STARTCHAR Ldot
ENCODING 319
SWIDTH 745 0
DWIDTH 24 0
BBX 21 23 2 0
BITMAP
554000000000
FF8000000000
FF8000000000
FF8000000000
FF8000000000
FF8000000000
FF8000000000
FF8000000000
FF8000000000
FF800000A800
FF800002FF00
FF800003FF40
FF800003FF40
FF800001FE00
FF8000005400
FF8000000000
FF8000000000
FF8000000000
FF9555550000
FFFFFFFE0000
FFFFFFFE0000
FFFFFFFE0000
FFFFFFFE0000
ENDCHAR
STARTCHAR ldotaccent
ENCODING 320
SWIDTH 463 0
DWIDTH 15 0
BBX 13 24 1 0
BITMAP
15400000
7FC00000
7FC00000
7FC00000
7FC00000
7FC00000
7FC00000
7FC00000
7FC00000
7FC00000
7FC0A800
7FC2FF00
7FC3FF40
7FC3FF40
7FC1FE00
7FC05400
7FC00000
7FC00000
7FC00000
7FC00000
7FC00000
7FC00000
7FC00000
7FC00000
ENDCHAR
STARTCHAR Lslash
ENCODING 321
SWIDTH 585 0
DWIDTH 19 0
BBX 19 23 0 0
BITMAP
0154000000
07FD000000
07FD000000
07FD000000
07FD000000
07FD000000
07FD000000
07FD600000
07FFF00000
07FFF00000
07FFF00000
2FFFD00000
BFFE000000
BFFD000000
BFFD000000
A7FD000000
07FD000000
07FD000000
07FE555554
07FFFFFFF8
07FFFFFFF8
07FFFFFFF8
07FFFFFFF8
ENDCHAR
STARTCHAR lslash
ENCODING 322
SWIDTH 319 0
DWIDTH 10 0
BBX 10 24 0 0
BITMAP
015400
03FD00
03FD00
03FD00
03FD00
03FD00
03FD00
03FD00
03FD60
03FEF0
03FFF0
07FFF0
1FFFD0
BFFE00
BFFD00
BFFD00
A7FD00
03FD00
03FD00
03FD00
03FD00
03FD00
03FD00
03FD00
ENDCHAR
STARTCHAR Nacute
ENCODING 323
SWIDTH 689 0
DWIDTH 22 0
BBX 18 29 2 0
BITMAP
0000078000
00001FD000
00007FF000
0001FFD000
0001FE0000
0000B40000
5540001550
FFD0001FF0
FFF0001FF0
FFF8001FF0
FFFD001FF0
FFFE001FF0
FFFF401FF0
FFFFC01FF0
FFFFE01FF0
FFAFF01FF0
FF8FF81FF0
FF8BFD1FF0
FF83FE1FF0
FF81FF5FF0
FF80BFEFF0
FF807FFFF0
FF802FFFF0
FF800FFFF0
FF8007FFF0
FF8002FFF0
FF8001FFF0
FF8000BFF0
FF80003FF0
ENDCHAR
STARTCHAR nacute
ENCODING 324
SWIDTH 562 0
DWIDTH 18 0
BBX 16 25 1 0
BITMAP
00000740
00001FC0
0000BFE0
0002FFD0
0002FE00
0000E400
00000000
00000000
602FF900
79FFFF80
7FFFFFE0
7FFFFFF4
7FF96FFC
7FE007FD
7FC003FD
7FC002FE
7FC002FE
7FC002FE
7FC002FE
7FC002FE
7FC002FE
7FC002FE
7FC002FE
7FC002FE
7FC002FE
ENDCHAR
STARTCHAR Ncommaaccent
ENCODING 325
SWIDTH 689 0
DWIDTH 22 0
BBX 18 31 2 -8
BITMAP
5540001550
FFD0001FF0
FFF0001FF0
FFF8001FF0
FFFD001FF0
FFFE001FF0
FFFF401FF0
FFFFC01FF0
FFFFE01FF0
FFAFF01FF0
FF8FF81FF0
FF8BFD1FF0
FF83FE1FF0
FF81FF5FF0
FF80BFEFF0
FF807FFFF0
FF802FFFF0
FF800FFFF0
FF8007FFF0
FF8002FFF0
FF8001FFF0
FF8000BFF0
FF80003FF0
0000000000
0000500000
0002F80000
0003FC0000
0003FC0000
0001BC0000
0000B80000
0000B00000
ENDCHAR
STARTCHAR ncommaaccent
ENCODING 326
SWIDTH 562 0
DWIDTH 18 0
BBX 16 25 1 -8
BITMAP
602FF900
79FFFF80
7FFFFFE0
7FFFFFF4
7FF96FFC
7FE007FD
7FC003FD
7FC002FE
7FC002FE
7FC002FE
7FC002FE
7FC002FE
7FC002FE
7FC002FE
7FC002FE
7FC002FE
7FC002FE
00000000
00014000
000BE000
000FF000
000FF000
0006F000
0002D000
00028000
ENDCHAR
STARTCHAR Ncaron
ENCODING 327
SWIDTH 689 0
DWIDTH 22 0
BBX 18 30 2 0
BITMAP
0004010000
001E0B4000
003FAFC000
001FFF4000
0007FD0000
0001F40000
0000100000
5540001550
FFD0001FF0
FFF0001FF0
FFF8001FF0
FFFD001FF0
FFFE001FF0
FFFF401FF0
FFFFC01FF0
FFFFE01FF0
FFAFF01FF0
FF8FF81FF0
FF8BFD1FF0
FF83FE1FF0
FF81FF5FF0
FF80BFEFF0
FF807FFFF0
FF802FFFF0
FF800FFFF0
FF8007FFF0
FF8002FFF0
FF8001FFF0
FF8000BFF0
FF80003FF0
ENDCHAR
STARTCHAR ncaron
ENCODING 328
SWIDTH 562 0
DWIDTH 18 0
BBX 16 25 1 0
BITMAP
00100400
00782D00
00FEBF00
007FFD00
001FF400
0007D000
00004000
00000000
602FF900
79FFFF80
7FFFFFE0
7FFFFFF4
7FF96FFC
7FE007FD
7FC003FD
7FC002FE
7FC002FE
7FC002FE
7FC002FE
7FC002FE
7FC002FE
7FC002FE
7FC002FE
7FC002FE
7FC002FE
ENDCHAR
STARTCHAR napostrophe
ENCODING 329
SWIDTH 694 0
DWIDTH 22 0
BBX 21 23 0 0
BITMAP
140000000000
BE0000000000
FF4000000000
BF4000000000
2F0000000000
2E0000000000
2C0906FE4000
000F7FFFE000
000FFFFFFC00
000FFFFFFE00
000FFF57FF40
000FF801FF80
000FF400BF80
000FF0007F80
000FF0007F80
000FF0007F80
000FF0007F80
000FF0007F80
000FF0007F80
000FF0007F80
000FF0007F80
000FF0007F80
000FF0007F80
ENDCHAR
STARTCHAR Eng
ENCODING 330
SWIDTH 689 0
DWIDTH 22 0
BBX 18 30 2 -7
BITMAP
5540001550
FFD0001FF0
FFF0001FF0
FFF8001FF0
FFFD001FF0
FFFE001FF0
FFFF401FF0
FFFFC01FF0
FFFFE01FF0
FFAFF01FF0
FF8FF81FF0
FF8BFD1FF0
FF83FE1FF0
FF81FF5FF0
FF80BFEFF0
FF807FFFF0
FF802FFFF0
FF800FFFF0
FF8007FFF0
FF8003FFF0
FF8001FFF0
FF8000BFF0
FF80007FE0
000000BFD0
000107FFC0
0007FFFF40
0007FFFE00
0007FFF800
0007FF9000
0001540000
ENDCHAR
STARTCHAR eng
ENCODING 331
SWIDTH 562 0
DWIDTH 18 0
BBX 16 24 1 -7
BITMAP
602FF900
79FFFF80
7FFFFFE0
7FFFFFF4
7FF96FFC
7FE007FD
7FC003FD
7FC002FE
7FC002FE
7FC002FE
7FC002FE
7FC002FE
7FC002FE
7FC002FE
7FC002FE
7FC002FE
7FC003FD
00000BFC
00002FF8
003FFFF4
003FFFD0
003FFF40
003FF800
00154000
ENDCHAR
STARTCHAR Omacron
ENCODING 332
SWIDTH 777 0
DWIDTH 25 0
BBX 23 29 1 -1
BITMAP
000155540000
0002FFFD0000
0002FFFD0000
0001FFFD0000
000000000000
00005A940000
000BFFFF8000
007FFFFFF400
01FFFFFFFD00
07FFFEFFFF40
1FFF4007FFC0
2FF80000BFE0
7FE000003FF0
BFD000001FF4
FF8000000FF8
FF4000000BFC
FF40000007FC
FF40000007FC
FF8000000BFC
BFC000000FF8
BFD000001FF4
7FF000007FF0
2FFD0001FFE0
0FFF901BFFC0
07FFFFFFFF40
01FFFFFFFD00
006FFFFFE000
0006FFFE4000
000015500000
ENDCHAR
STARTCHAR omacron
ENCODING 333
SWIDTH 579 0
DWIDTH 19 0
BBX 18 24 0 -1
BITMAP
0015554000
002FFFD000
002FFFD000
002FFFD000
0000000000
0001540000
001FFF9000
00FFFFF800
03FFFFFE00
0BFFFFFF40
1FFD02FFC0
2FF000BFD0
3FD0003FE0
7FC0002FE0
7FC0002FE0
7FC0002FE0
3FE0003FE0
2FF400BFD0
1FFD06FFC0
0BFFFFFF40
03FFFFFE00
00BFFFF400
001BFF8000
0000540000
ENDCHAR
STARTCHAR Obreve
ENCODING 334
SWIDTH 777 0
DWIDTH 25 0
BBX 23 30 1 -1
BITMAP
0000A8A80000
0000FCBC0000
0000FFFC0000
00007FF40000
00001A900000
000000000000
00005A940000
000BFFFF8000
007FFFFFF400
01FFFFFFFD00
07FFFEFFFF40
1FFF4007FFC0
2FF80000BFE0
7FE000003FF0
BFD000001FF4
FF8000000FF8
FF4000000BFC
FF40000007FC
FF40000007FC
FF8000000BFC
BFC000000FF8
BFD000001FF4
7FF000007FF0
2FFD0001FFE0
0FFF901BFFC0
07FFFFFFFF40
01FFFFFFFD00
006FFFFFE000
0006FFFE4000
000015500000
ENDCHAR
STARTCHAR obreve
ENCODING 335
SWIDTH 579 0
DWIDTH 19 0
BBX 18 24 0 -1
BITMAP
000A4A4000
001F8F8000
000FFF8000
0007FF4000
0001A90000
0001540000
001FFF9000
00FFFFF800
03FFFFFE00
0BFFFFFF40
1FFD02FFC0
2FF000BFD0
3FD0003FE0
7FC0002FE0
7FC0002FE0
7FC0002FE0
3FE0003FE0
2FF400BFD0
1FFD06FFC0
0BFFFFFF40
03FFFFFE00
00BFFFF400
001BFF8000
0000540000
ENDCHAR
STARTCHAR Ohungarumlaut
ENCODING 336
SWIDTH 777 0
DWIDTH 25 0
BBX 23 32 1 -1
BITMAP
000009000000
00002F428000
00007FD7E000
0000FF9FF800
0002FE2FF000
0002F8BF8000
0000907E0000
000000080000
00005A940000
000BFFFF8000
007FFFFFF400
01FFFFFFFD00
07FFFEFFFF40
1FFF4007FFC0
2FF80000BFE0
7FE000003FF0
BFD000001FF4
FF8000000FF8
FF4000000BFC
FF40000007FC
FF40000007FC
FF8000000BFC
BFC000000FF8
BFD000001FF4
7FF000007FF0
2FFD0001FFE0
0FFF901BFFC0
07FFFFFFFF40
01FFFFFFFD00
006FFFFFE000
0006FFFE4000
000015500000
ENDCHAR
STARTCHAR ohungarumlaut
ENCODING 337
SWIDTH 579 0
DWIDTH 19 0
BBX 18 26 0 -1
BITMAP
0000900000
0002F42800
0007FD7E00
000FF9FF80
002FE3FE00
002F8BF800
000907E000
0001554000
001FFF9000
00FFFFF800
03FFFFFE00
0BFFFFFF40
1FFD02FFC0
2FF000BFD0
3FD0003FE0
7FC0002FE0
7FC0002FE0
7FC0002FE0
3FE0003FE0
2FF400BFD0
1FFD06FFC0
0BFFFFFF40
03FFFFFE00
00BFFFF400
001BFF8000
0000540000
ENDCHAR
STARTCHAR OE
ENCODING 338
SWIDTH 1125 0
DWIDTH 36 0
BBX 34 24 1 -1
BITMAP
00005A940155555550
000BFFFF47FFFFFFF0
007FFFFFFBFFFFFFF0
01FFFFFFFFFFFFFFF0
07FFFEFFFFFFFFFFF0
1FFF4007FFFC000000
2FF80000BFFC000000
7FE000003FFC000000
BFD000001FFC000000
FF8000000FFD555400
FF4000000BFFFFF400
FF40000007FFFFF400
FF40000007FFFFF400
FF8000000BFFFFF400
BFC000000FFC000000
BFD000001FFC000000
7FF000007FFC000000
2FFD0001FFFC000000
0FFF901BFFFE555550
07FFFFFFFFFFFFFFF0
01FFFFFFFFFFFFFFF0
006FFFFFEBFFFFFFF0
0006FFFE47FFFFFFF0
000015500000000000
ENDCHAR
STARTCHAR oe
ENCODING 339
SWIDTH 924 0
DWIDTH 30 0
BBX 29 19 0 -1
BITMAP
0001540000550000
001FFF900BFFE000
00FFFFF87FFFFD00
03FFFFFEFFFFFF40
0BFFFFFFFFFFFF80
1FFD02FFFE43FF00
2FF000BFFC0BFD00
3FD0003FF42FF400
7FC0002FF07FE000
7FC0002FF0FF8000
7FC0002FF2FF0000
3FE0003FFBFC0000
2FF400BFFFF42800
1FFD06FFFFD1BE00
0BFFFFFFFFFFFF80
03FFFFFEFFFFFF40
00BFFFF47FFFFD00
001BFF800BFFE000
0000540000140000
ENDCHAR
STARTCHAR Racute
ENCODING 340
SWIDTH 651 0
DWIDTH 21 0
BBX 18 30 2 0
BITMAP
00000A0000
00003F8000
0000FFD000
0007FF8000
0007F90000
0001D00000
0000000000
5555540000
FFFFFF9000
FFFFFFF400
FFFFFFFE00
FFFFFFFF40
FF8006FFC0
FF8000BFD0
FF80003FE0
FF80002FF0
FF80002FF0
FF80002FF0
FF80003FE0
FF8000BFD0
FF8006FFC0
FFFFFFFF40
FFFFFFFE00
FFFFFFF800
FFFFFFF000
FFAA6FF400
FF800FF800
FF800BFD00
FF8003FE00
FF8002FF00
ENDCHAR
STARTCHAR racute
ENCODING 341
SWIDTH 414 0
DWIDTH 13 0
BBX 12 24 1 0
BITMAP
0000E0
0007F4
001FFD
007FF4
007F80
002D00
000000
6016AA
78BFFF
7FFFFF
7FFFFF
7FFEA9
7FE000
7FD000
7FC000
7FC000
7FC000
7FC000
7FC000
7FC000
7FC000
7FC000
7FC000
7FC000
ENDCHAR
STARTCHAR Rcommaaccent
ENCODING 342
SWIDTH 651 0
DWIDTH 21 0
BBX 18 31 2 -8
BITMAP
5555540000
FFFFFF9000
FFFFFFF400
FFFFFFFE00
FFFFFFFF40
FF8006FFC0
FF8000BFD0
FF80003FE0
FF80002FF0
FF80002FF0
FF80002FF0
FF80003FE0
FF8000BFD0
FF8006FFC0
FFFFFFFF40
FFFFFFFE00
FFFFFFF800
FFFFFFF000
FFAA6FF400
FF800FF800
FF800BFD00
FF8003FE00
FF8002FF00
0000000000
0001400000
0007F40000
000BF80000
000BF40000
0002F40000
0001F00000
0001D00000
ENDCHAR
STARTCHAR rcommaaccent
ENCODING 343
SWIDTH 414 0
DWIDTH 13 0
BBX 12 25 1 -8
BITMAP
6016AA
78BFFF
7FFFFF
7FFFFF
7FFEA9
7FE000
7FD000
7FC000
7FC000
7FC000
7FC000
7FC000
7FC000
7FC000
7FC000
7FC000
7FC000
000000
050000
3F4000
7F8000
7F8000
1F8000
0F4000
1E0000
ENDCHAR
STARTCHAR Rcaron
ENCODING 344
SWIDTH 651 0
DWIDTH 21 0
BBX 18 30 2 0
BITMAP
0010040000
003D1E0000
00BFBF4000
002FFE0000
000BF80000
0002E00000
0000400000
5555540000
FFFFFF9000
FFFFFFF400
FFFFFFFE00
FFFFFFFF40
FF8006FFC0
FF8000BFD0
FF80003FE0
FF80002FF0
FF80002FF0
FF80002FF0
FF80003FE0
FF8000BFD0
FF8006FFC0
FFFFFFFF40
FFFFFFFE00
FFFFFFF800
FFFFFFF000
FFAA6FF400
FF800FF800
FF800BFD00
FF8003FE00
FF8002FF00
ENDCHAR
STARTCHAR rcaron
ENCODING 345
SWIDTH 414 0
DWIDTH 13 0
BBX 12 25 1 0
BITMAP
010000
0B4780
1FEFE0
0BFFC0
02FE00
007800
001000
000000
6016AA
78BFFF
7FFFFF
7FFFFF
7FFEA9
7FE000
7FD000
7FC000
7FC000
7FC000
7FC000
7FC000
7FC000
7FC000
7FC000
7FC000
7FC000
ENDCHAR
STARTCHAR Sacute
ENCODING 346
SWIDTH 610 0
DWIDTH 20 0
BBX 19 30 0 0
BITMAP
000000A000
000003F800
00000FFD00
00007FF800
00007F9000
00001D0000
0000000000
0005555550
00BFFFFFE0
07FFFFFFE0
0FFFFFFFE0
2FFFFFFFE0
3FF4000000
3FD0000000
7FD0000000
3FE0000000
3FF9555000
1FFFFFFD00
0BFFFFFF80
02FFFFFFD0
006FFFFFF0
0000002FF4
0000000FF8
0000000FF8
0000001FF8
055555BFF4
0FFFFFFFE0
0FFFFFFFD0
0FFFFFFF40
0FFFFFE400
ENDCHAR
STARTCHAR sacute
ENCODING 347
SWIDTH 523 0
DWIDTH 17 0
BBX 15 24 1 0
BITMAP
00001E00
00007F40
0001FFC0
0007FF40
0007F800
0002D000
00000000
01AAAAA0
0BFFFFF0
3FFFFFF0
7FFFFFF0
BFEAAAA0
FF400000
FF955400
BFFFFF80
3FFFFFF0
1FFFFFF8
02FFFFFC
000007FC
55555BFC
FFFFFFF8
FFFFFFF4
FFFFFFD0
FFFFFE40
ENDCHAR
STARTCHAR Scircumflex
ENCODING 348
SWIDTH 610 0
DWIDTH 20 0
BBX 19 29 0 0
BITMAP
0000780000
0001FE0000
0007FF8000
001FFFE000
000B87D000
0002018000
0005555550
00BFFFFFE0
07FFFFFFE0
0FFFFFFFE0
2FFFFFFFE0
3FF4000000
3FD0000000
7FD0000000
3FE0000000
3FF9555000
1FFFFFFD00
0BFFFFFF80
02FFFFFFD0
006FFFFFF0
0000002FF4
0000000FF8
0000000FF8
0000001FF8
055555BFF4
0FFFFFFFE0
0FFFFFFFD0
0FFFFFFF40
0FFFFFE400
ENDCHAR
STARTCHAR scircumflex
ENCODING 349
SWIDTH 523 0
DWIDTH 17 0
BBX 15 24 1 0
BITMAP
000B4000
002FD000
00BFF400
02FFFD00
01F4BC00
00502400
00000000
01AAAAA0
0BFFFFF0
3FFFFFF0
7FFFFFF0
BFEAAAA0
FF400000
FF955400
BFFFFF80
3FFFFFF0
1FFFFFF8
02FFFFFC
000007FC
55555BFC
FFFFFFF8
FFFFFFF4
FFFFFFD0
FFFFFE40
ENDCHAR
STARTCHAR Scedilla
ENCODING 350
SWIDTH 610 0
DWIDTH 20 0
BBX 19 31 0 -8
BITMAP
0005555550
00BFFFFFE0
07FFFFFFE0
0FFFFFFFE0
2FFFFFFFE0
3FF4000000
3FD0000000
7FD0000000
3FE0000000
3FF9555000
1FFFFFFD00
0BFFFFFF80
02FFFFFFD0
006FFFFFF0
0000002FF4
0000000FF8
0000000FF8
0000001FF8
055555BFF4
0FFFFFFFE0
0FFFFFFFD0
0FFFFFFF40
0FFFFFE400
00003C0000
00007E0000
0000BF8000
00010FC000
0003AFC000
0007FF8000
0002FE0000
0000100000
ENDCHAR
STARTCHAR scedilla
ENCODING 351
SWIDTH 523 0
DWIDTH 17 0
BBX 15 24 1 -7
BITMAP
01AAAAA0
0BFFFFF0
3FFFFFF0
7FFFFFF0
BFEAAAA0
FF400000
FF955400
BFFFFF80
3FFFFFF0
1FFFFFF8
02FFFFFC
000007FC
55555BFC
FFFFFFF8
FFFFFFF4
FFFFFFD0
FFFFFE40
00078000
000B9000
000FF400
0001F800
007BF800
00BFF400
006FD000
ENDCHAR
STARTCHAR Scaron
ENCODING 352
SWIDTH 610 0
DWIDTH 20 0
BBX 19 30 0 0
BITMAP
0001000000
000B43C000
001FEFE000
000BFFC000
0002FF0000
00007C0000
0000100000
0005555550
00BFFFFFE0
07FFFFFFE0
0FFFFFFFE0
2FFFFFFFE0
3FF4000000
3FD0000000
7FD0000000
3FE0000000
3FF9555000
1FFFFFFD00
0BFFFFFF80
02FFFFFFD0
006FFFFFF0
0000002FF4
0000000FF8
0000000FF8
0000001FF8
055555BFF4
0FFFFFFFE0
0FFFFFFFD0
0FFFFFFF40
0FFFFFE400
ENDCHAR
STARTCHAR scaron
ENCODING 353
SWIDTH 523 0
DWIDTH 17 0
BBX 15 25 1 0
BITMAP
00100000
00B43C00
01FEFE00
00BFFD00
001FF000
0007C000
00010000
00000000
01AAAAA0
0BFFFFF0
3FFFFFF0
7FFFFFF0
BFEAAAA0
FF400000
FF955400
BFFFFF80
3FFFFFF0
1FFFFFF8
02FFFFFC
000007FC
55555BFC
FFFFFFF8
FFFFFFF4
FFFFFFD0
FFFFFE40
ENDCHAR
STARTCHAR Tcommaaccent
ENCODING 354
SWIDTH 578 0
DWIDTH 19 0
BBX 19 31 0 -8
BITMAP
5555555550
BFFFFFFFF4
BFFFFFFFF4
BFFFFFFFF4
BFFFFFFFF4
0003FE0000
0003FD0000
0003FD0000
0003FD0000
0003FD0000
0003FD0000
0003FD0000
0003FD0000
0003FD0000
0003FD0000
0003FD0000
0003FD0000
0003FD0000
0003FD0000
0003FD0000
0003FD0000
0003FD0000
0003FD0000
0000000000
0000500000
0001FC0000
0003FD0000
0002FD0000
0000BC0000
0000780000
0000B40000
ENDCHAR
STARTCHAR tcommaaccent
ENCODING 355
SWIDTH 437 0
DWIDTH 14 0
BBX 14 32 0 -8
BITMAP
05540000
07F80000
07F80000
07F80000
07F80000
07F80000
07F80000
6FFEAA90
BFFFFFD0
BFFFFFD0
BFFFFFD0
6BFEAA80
07F80000
07F80000
07F80000
07F80000
07F80000
07FC0000
07FE0000
02FF9540
01FFFFD0
00BFFFD0
001FFFD0
0002BFD0
00000000
00050000
002F8000
003FC000
003FC000
001BC000
000B4000
000A0000
ENDCHAR
STARTCHAR Tcaron
ENCODING 356
SWIDTH 578 0
DWIDTH 19 0
BBX 19 30 0 0
BITMAP
0004010000
001E074000
002FEFD000
001FFF8000
0003FE0000
0000B40000
0000100000
5555555550
BFFFFFFFF4
BFFFFFFFF4
BFFFFFFFF4
BFFFFFFFF4
0003FE0000
0003FD0000
0003FD0000
0003FD0000
0003FD0000
0003FD0000
0003FD0000
0003FD0000
0003FD0000
0003FD0000
0003FD0000
0003FD0000
0003FD0000
0003FD0000
0003FD0000
0003FD0000
0003FD0000
0003FD0000
ENDCHAR
STARTCHAR tcaron
ENCODING 357
SWIDTH 570 0
DWIDTH 18 0
BBX 19 24 0 0
BITMAP
0554000000
07F8000140
07F8000BE0
07F8000FF4
07F8000BF4
07F80002F0
07F80002E0
6FFEAA92C0
BFFFFFD000
BFFFFFD000
BFFFFFD000
6BFEAA8000
07F8000000
07F8000000
07F8000000
07F8000000
07F8000000
07FC000000
07FE000000
02FF954000
01FFFFD000
00BFFFD000
001FFFD000
0002BFD000
ENDCHAR
STARTCHAR Tbar
ENCODING 358
SWIDTH 578 0
DWIDTH 19 0
BBX 19 23 0 0
BITMAP
5555555550
BFFFFFFFF4
BFFFFFFFF4
BFFFFFFFF4
BFFFFFFFF4
0003FE0000
0003FD0000
0003FD0000
0003FD0000
0003FD0000
0003FD0000
006BFEA000
00BFFFF000
00BFFFF000
00BFFFF000
006BFEA000
0003FD0000
0003FD0000
0003FD0000
0003FD0000
0003FD0000
0003FD0000
0003FD0000
ENDCHAR
STARTCHAR tbar
ENCODING 359
SWIDTH 437 0
DWIDTH 14 0
BBX 14 24 0 0
BITMAP
05540000
07F80000
07F80000
07F80000
07F80000
07F80000
07F80000
6FFEAA90
BFFFFFD0
BFFFFFD0
BFFFFFD0
6BFEAA80
07F80000
6FFEA000
BFFFF000
BFFFF000
BFFFF000
1BFD5000
07FE0000
03FF9540
01FFFFD0
00BFFFD0
001FFFD0
0002BFD0
ENDCHAR
STARTCHAR Utilde
ENCODING 360
SWIDTH 673 0
DWIDTH 22 0
BBX 19 29 1 0
BITMAP
001BE1F800
003FF9FC00
007FFFF800
007F7FF800
003E0BE000
0015000000
1540000554
7FD0000BF8
7FD0000BF8
7FD0000BF8
7FD0000BF8
7FD0000BF8
7FD0000BF8
7FD0000BF8
7FD0000BF8
7FD0000BF8
7FD0000BF8
7FD0000BF8
7FD0000BF8
7FD0000BF8
3FD0000BF8
3FE0000FF8
2FF0002FF4
1FFD007FF0
0FFFABFFE0
07FFFFFF80
01FFFFFF00
007FFFF800
0006FE9000
ENDCHAR
STARTCHAR utilde
ENCODING 361
SWIDTH 562 0
DWIDTH 18 0
BBX 16 24 1 -1
BITMAP
00BE0BC0
02FF9FC0
03FFFFC0
03F6FF80
03F0BE00
01500000
6A4002A9
BF8003FD
BF8003FD
BF8003FD
BF8003FD
BF8003FD
BF8003FD
BF8003FD
BF8003FD
BF8003FD
BF8003FD
7FD00BFD
3FF42FFD
2FFFFFFD
0FFFFFFD
07FFFF6D
00BFF80D
00054000
ENDCHAR
STARTCHAR Umacron
ENCODING 362
SWIDTH 673 0
DWIDTH 22 0
BBX 19 28 1 0
BITMAP
0005555000
001FFFE000
001FFFE000
000FFFE000
0000000000
1540000554
7FD0000BF8
7FD0000BF8
7FD0000BF8
7FD0000BF8
7FD0000BF8
7FD0000BF8
7FD0000BF8
7FD0000BF8
7FD0000BF8
7FD0000BF8
7FD0000BF8
7FD0000BF8
7FD0000BF8
3FD0000BF8
3FE0000FF8
2FF0002FF4
1FFD007FF0
0FFFABFFE0
07FFFFFF80
01FFFFFF00
007FFFF800
0006FE9000
ENDCHAR
STARTCHAR umacron
ENCODING 363
SWIDTH 562 0
DWIDTH 18 0
BBX 16 23 1 -1
BITMAP
00555500
00FFFF00
00FFFF00
00FFFE00
00000000
6A4002A9
BF8003FD
BF8003FD
BF8003FD
BF8003FD
BF8003FD
BF8003FD
BF8003FD
BF8003FD
BF8003FD
BF8003FD
7FD00BFD
3FF42FFD
2FFFFFFD
0FFFFFFD
07FFFF6D
00BFF80D
00054000
ENDCHAR
STARTCHAR Ubreve
ENCODING 364
SWIDTH 673 0
DWIDTH 22 0
BBX 19 28 1 0
BITMAP
0006868000
000BD7D000
0007FFD000
0003FF8000
0000690000
1540000554
7FD0000BF8
7FD0000BF8
7FD0000BF8
7FD0000BF8
7FD0000BF8
7FD0000BF8
7FD0000BF8
7FD0000BF8
7FD0000BF8
7FD0000BF8
7FD0000BF8
7FD0000BF8
7FD0000BF8
3FD0000BF8
3FE0000FF8
2FF0002FF4
1FFD007FF0
0FFFABFFE0
07FFFFFF80
01FFFFFF00
007FFFF800
0006FE9000
ENDCHAR
STARTCHAR ubreve
ENCODING 365
SWIDTH 562 0
DWIDTH 18 0
BBX 16 24 1 -1
BITMAP
00696800
00BD7D00
007FFD00
002FF800
00069000
00000000
6A4002A9
BF8003FD
BF8003FD
BF8003FD
BF8003FD
BF8003FD
BF8003FD
BF8003FD
BF8003FD
BF8003FD
BF8003FD
7FD00BFD
3FF42FFD
2FFFFFFD
0FFFFFFD
07FFFF6D
00BFF80D
00054000
ENDCHAR
STARTCHAR Uring
ENCODING 366
SWIDTH 673 0
DWIDTH 22 0
BBX 19 30 1 0
BITMAP
0000640000
0002FF0000
0003EB8000
0007878000
0003EB8000
0001FF0000
0000540000
1540000554
7FD0000BF8
7FD0000BF8
7FD0000BF8
7FD0000BF8
7FD0000BF8
7FD0000BF8
7FD0000BF8
7FD0000BF8
7FD0000BF8
7FD0000BF8
7FD0000BF8
7FD0000BF8
7FD0000BF8
3FD0000BF8
3FE0000FF8
2FF0002FF4
1FFD007FF0
0FFFABFFE0
07FFFFFF80
01FFFFFF00
007FFFF800
0006FE9000
ENDCHAR
STARTCHAR uring
ENCODING 367
SWIDTH 562 0
DWIDTH 18 0
BBX 16 25 1 -1
BITMAP
00069000
001FF400
003EBC00
003C3C00
003EB800
001FF400
00014000
6A4002A9
BF8003FD
BF8003FD
BF8003FD
BF8003FD
BF8003FD
BF8003FD
BF8003FD
BF8003FD
BF8003FD
BF8003FD
7FD00BFD
3FF42FFD
2FFFFFFD
0FFFFFFD
07FFFF6D
00BFF80D
00054000
ENDCHAR
STARTCHAR Uhungarumlaut
ENCODING 368
SWIDTH 673 0
DWIDTH 22 0
BBX 19 31 1 0
BITMAP
0000600000
0000F81D00
0002FE3F40
000BFDBFD0
001FF5FF40
001FD7FD00
000602F400
0000008000
1540000554
7FD0000BF8
7FD0000BF8
7FD0000BF8
7FD0000BF8
7FD0000BF8
7FD0000BF8
7FD0000BF8
7FD0000BF8
7FD0000BF8
7FD0000BF8
7FD0000BF8
7FD0000BF8
7FD0000BF8
3FD0000BF8
3FE0000FF8
2FF0002FF4
1FFD007FF0
0FFFABFFE0
07FFFFFF80
01FFFFFF00
007FFFF800
0006FE9000
ENDCHAR
STARTCHAR uhungarumlaut
ENCODING 369
SWIDTH 562 0
DWIDTH 18 0
BBX 16 26 1 -1
BITMAP
00020000
000BC0D0
002FF2F8
007FE7FD
01FF5FF8
01FD3FE0
00741F40
00000500
6A4002A9
BF8003FD
BF8003FD
BF8003FD
BF8003FD
BF8003FD
BF8003FD
BF8003FD
BF8003FD
BF8003FD
BF8003FD
7FD00BFD
3FF42FFD
2FFFFFFD
0FFFFFFD
07FFFF6D
00BFF80D
00054000
ENDCHAR
STARTCHAR Uogonek
ENCODING 370
SWIDTH 673 0
DWIDTH 22 0
BBX 19 29 1 -6
BITMAP
1540000554
7FD0000BF8
7FD0000BF8
7FD0000BF8
7FD0000BF8
7FD0000BF8
7FD0000BF8
7FD0000BF8
7FD0000BF8
7FD0000BF8
7FD0000BF8
7FD0000BF8
7FD0000BF8
7FD0000BF8
3FD0000BF8
3FE0000FF8
2FF0002FF4
1FFD007FF0
0FFFABFFE0
07FFFFFF80
01FFFFFE00
007FFFF800
0006FF8000
0002F00000
0007D00000
000BE90000
000BFF4000
0003FF4000
0000A80000
ENDCHAR
STARTCHAR uogonek
ENCODING 371
SWIDTH 562 0
DWIDTH 18 0
BBX 18 23 1 -6
BITMAP
6A4002A900
BF8003FD00
BF8003FD00
BF8003FD00
BF8003FD00
BF8003FD00
BF8003FD00
BF8003FD00
BF8003FD00
BF8003FD00
BF8003FD00
7FD00BFD00
3FF42FFD00
2FFFFFFD00
0FFFFFFD00
07FFFF6D00
00BFF82D00
000540BC00
000001F400
000002FA40
000002FFD0
000000FFD0
0000002A00
ENDCHAR
STARTCHAR Wcircumflex
ENCODING 372
SWIDTH 819 0
DWIDTH 26 0
BBX 23 30 2 -1
BITMAP
00000A000000
00002FC00000
0000BFF00000
0003FFFC0000
0001F4F80000
000090200000
550015400550
FF403FD00FF4
FF403FD00FF4
FF403FD00FF4
FF403FD00FF4
FF403FD00FF4
FF403FD00FF4
FF403FD00FF4
FF403FD00FF4
FF403FD00FF4
FF403FD00FF4
FF403FD00FF4
FF403FD00FF4
FF403FD00FF4
FF403FD00FF4
FF403FD00FF4
FF403FD01FF4
FF807FE01FF4
BFE5FFF57FF0
7FFFFFFFFFE0
2FFFFFFFFFC0
0BFFFFFFFF40
02FFE0BFF800
001500054000
ENDCHAR
STARTCHAR wcircumflex
ENCODING 373
SWIDTH 756 0
DWIDTH 24 0
BBX 22 25 1 -1
BITMAP
00000A000000
00002FC00000
0000BFF40000
0002FFFC0000
0001F4F80000
000090200000
000000000000
6A802A801AA0
BF803FD02FE0
BF803FD02FE0
BF803FD02FE0
BF803FD02FE0
BF803FD02FE0
BF803FD02FE0
BF803FD02FE0
BF803FD02FE0
BF803FD02FE0
BF803FD02FE0
7FC03FD02FE0
7FD0BFF07FE0
3FFFFFFFFFD0
1FFFFFFFFF80
0BFFFFFFFE00
01FFE4BFF400
000500054000
ENDCHAR
STARTCHAR Ycircumflex
ENCODING 374
SWIDTH 620 0
DWIDTH 20 0
BBX 18 29 1 0
BITMAP
0000E00000
0003F80000
001FFE0000
003FFFC000
002F1F8000
0008060000
5540001550
FF40002FF0
FF40002FF0
FF40002FF0
FF40002FF0
FF40002FF0
FF40002FF0
FF40002FF0
FF80002FE0
BFC0007FE0
7FE000FFD0
3FFD5BFF80
1FFFFFFF40
0BFFFFFD00
01FFFFF400
002FFF8000
0007FC0000
0007FC0000
0007FC0000
0007FC0000
0007FC0000
0007FC0000
0007FC0000
ENDCHAR
STARTCHAR ycircumflex
ENCODING 375
SWIDTH 562 0
DWIDTH 18 0
BBX 16 31 1 -7
BITMAP
00028000
000BE000
003FFC00
00FFFF00
00BD7E00
00200800
00000000
6A4002A9
BF8003FD
BF8003FD
BF8003FD
BF8003FD
BF8003FD
BF8003FD
BF8003FD
BF8003FD
BF8003FD
BF8003FD
7FD00BFD
3FF42FFD
2FFFFFFD
0FFFFFFD
07FFFFFD
00BFFBFD
00054BFC
00006FF8
007FFFF0
007FFFD0
007FFF40
007FF800
00154000
ENDCHAR
STARTCHAR Ydieresis
ENCODING 376
SWIDTH 620 0
DWIDTH 20 0
BBX 18 28 1 0
BITMAP
006D068000
00BF0FE000
00BF0FE000
007D07C000
0000000000
5540001550
FF40002FF0
FF40002FF0
FF40002FF0
FF40002FF0
FF40002FF0
FF40002FF0
FF40002FF0
FF80002FE0
BFC0007FE0
7FE000FFD0
3FFD5BFF80
1FFFFFFF40
0BFFFFFD00
01FFFFF400
002FFF8000
0007FC0000
0007FC0000
0007FC0000
0007FC0000
0007FC0000
0007FC0000
0007FC0000
ENDCHAR
STARTCHAR Zacute
ENCODING 377
SWIDTH 586 0
DWIDTH 19 0
BBX 18 30 0 0
BITMAP
000001D000
000007F400
00001FFC00
00007FF400
0000BF8000
00002D0000
0000000000
1555555550
7FFFFFFFE0
7FFFFFFFC0
7FFFFFFF80
7FFFFFFF00
00000FFD00
00001FFC00
00003FF400
0000BFF000
0000FFD000
0002FF8000
0003FF4000
000BFE0000
001FFD0000
002FF80000
007FF00000
00BFE00000
01FFC00000
03FFD55550
07FFFFFFF0
0FFFFFFFF0
1FFFFFFFF0
3FFFFFFFF0
ENDCHAR
STARTCHAR zacute
ENCODING 378
SWIDTH 481 0
DWIDTH 15 0
BBX 15 24 0 0
BITMAP
00000A00
00003F80
0000FFD0
0007FF80
0007F900
0001D000
00000000
6AAAAAA4
7FFFFFF0
7FFFFFD0
7FFFFFC0
2AAAFF40
0002FE00
0007FD00
000FF800
001FF000
003FD000
00BFC000
01FF4000
02FF5554
07FFFFF8
0FFFFFF8
1FFFFFF8
3FFFFFF8
ENDCHAR
STARTCHAR Zdotaccent
ENCODING 379
SWIDTH 586 0
DWIDTH 19 0
BBX 18 28 0 0
BITMAP
0000F80000
0002FD0000
0001FD0000
0000A40000
0000000000
1555555550
7FFFFFFFE0
7FFFFFFFC0
7FFFFFFF80
7FFFFFFF00
00000FFD00
00001FFC00
00003FF400
0000BFF000
0000FFD000
0002FF8000
0003FF4000
000BFE0000
001FFD0000
002FF80000
007FF00000
00BFE00000
01FFC00000
03FFD55550
07FFFFFFF0
0FFFFFFFF0
1FFFFFFFF0
3FFFFFFFF0
ENDCHAR
STARTCHAR zdotaccent
ENCODING 380
SWIDTH 481 0
DWIDTH 15 0
BBX 15 22 0 0
BITMAP
000BD000
001FE000
000FE000
00068000
00000000
6AAAAAA4
7FFFFFF0
7FFFFFD0
7FFFFFC0
2AAAFF40
0002FE00
0007FD00
000FF800
001FF000
003FD000
00BFC000
01FF4000
02FF5554
07FFFFF8
0FFFFFF8
1FFFFFF8
3FFFFFF8
ENDCHAR
STARTCHAR Zcaron
ENCODING 381
SWIDTH 586 0
DWIDTH 19 0
BBX 18 30 0 0
BITMAP
0004010000
000F478000
002FEFD000
000BFF8000
0002FE0000
0000B80000
0000100000
1555555550
7FFFFFFFE0
7FFFFFFFC0
7FFFFFFF80
7FFFFFFF00
00000FFD00
00001FFC00
00003FF400
0000BFF000
0000FFD000
0002FF8000
0003FF4000
000BFE0000
001FFD0000
002FF80000
007FF00000
00BFE00000
01FFC00000
03FFD55550
07FFFFFFF0
0FFFFFFFF0
1FFFFFFFF0
3FFFFFFFF0
ENDCHAR
STARTCHAR zcaron
ENCODING 382
SWIDTH 481 0
DWIDTH 15 0
BBX 15 25 0 0
BITMAP
00100000
00B43C00
01FEFE00
00BFFC00
002FF000
0007C000
00010000
00000000
6AAAAAA4
7FFFFFF0
7FFFFFD0
7FFFFFC0
2AAAFF40
0002FE00
0007FD00
000FF800
001FF000
003FD000
00BFC000
01FF4000
02FF5554
07FFFFF8
0FFFFFF8
1FFFFFF8
3FFFFFF8
ENDCHAR
STARTCHAR AEacute
ENCODING 508
SWIDTH 988 0
DWIDTH 32 0
BBX 30 30 1 0
BITMAP
000000000B000000
000000002FC00000
00000000BFE00000
00000002FF900000
00000002FD000000
00000000E0000000
0000000000000000
0000555555555550
001BFFFFFFFFFFE0
00BFFFFFFFFFFFE0
02FFFFFFFFFFFFE0
0BFFFFFFFFFFFFE0
1FFE400BF8000000
2FF8000BF8000000
3FF0000BF8000000
3FD0000BF8000000
3FD0000BFD555000
7FD0000BFFFFF000
7FD0000BFFFFF000
7FD0000BFFFFF000
7FD0000BFFFFF000
7FFFFFFFF8000000
7FFFFFFFF8000000
7FFFFFFFF8000000
7FFFFFFFF8000000
7FEAAAAFFD555550
7FD0000BFFFFFFE0
7FD0000BFFFFFFE0
7FD0000BFFFFFFE0
7FD0000BFFFFFFE0
ENDCHAR
STARTCHAR aeacute
ENCODING 509
SWIDTH 976 0
DWIDTH 31 0
BBX 31 25 0 -1
BITMAP
0000000007800000
000000001FD00000
000000007FF00000
00000001FFD00000
00000001FE000000
00000000B4000000
0001540000054000
001FFF8061BFFD00
01FFFFF5FBFFFF80
03FFFFFFFFFFFFF0
0BFFFFFFFFFFFFF4
1FFD06FFFFE07FE0
2FF000BFFF81FF80
3FD0003FFF03FF00
7FC0002FFE0BFD00
7FC0001FFD1FF400
7FC0002FFE7FE000
3FD0003FFFFF8000
2FF000BFFFFE0340
1FFD06FFFFFC1FD0
0FFFFFFFFFFFFFF4
07FFFFFFFFFFFFF0
01FFFFF5FBFFFF80
001FFF40A1BFF900
0000500000054000
ENDCHAR
STARTCHAR Oslashacute
ENCODING 510
SWIDTH 777 0
DWIDTH 25 0
BBX 23 31 1 -1
BITMAP
0000002C0000
000000BF0000
000002FF8000
00000BFE4000
00000BF40000
000003800000
000000000000
00005A941550
000BFFFFBFC0
007FFFFFFF40
01FFFFFFFE00
07FFFEFFFF40
1FFF401FFFC0
2FF8002FFFE0
7FE000BFBFF0
BFD001FF1FF4
FF8003FD0FF8
FF400BF80BFC
FF401FE007FC
FF407FC007FC
FF80FF400BFC
BF82FE000FF8
BFD7FC001FF4
7FFFF4007FF0
2FFFD001FFE0
0FFFD01BFFC0
07FFFFFFFF40
03FFFFFFFD00
0BFFFFFFE000
1FE6FFFE4000
000015500000
ENDCHAR
STARTCHAR oslashacute
ENCODING 511
SWIDTH 579 0
DWIDTH 19 0
BBX 18 26 0 -1
BITMAP
000001D000
000007F000
00002FF800
0000BFF400
0000BF8000
0000380000
0000000000
0001540000
001FFFAFD0
00FFFFFF80
03FFFFFF00
0BFFFFFF40
1FFD0BFFC0
2FF02FFFD0
3FD07FFFE0
7FC0FF6FE0
7FC2FE2FE0
7FCBF82FE0
3FEFF03FE0
2FFFD0BFD0
1FFF86FFC0
0BFFFFFF40
07FFFFFE00
0FFFFFF400
2FEBFF8000
0000540000
ENDCHAR
STARTCHAR dotlessj
ENCODING 567
SWIDTH 237 0
DWIDTH 8 0
BBX 11 24 -5 -7
BITMAP
0006A8
0007FC
0007FC
0007FC
0007FC
0007FC
0007FC
0007FC
0007FC
0007FC
0007FC
0007FC
0007FC
0007FC
0007FC
0007FC
000BF8
001FF8
007FF0
BFFFE0
BFFF80
BFFE00
BFE400
550000
ENDCHAR
STARTCHAR circumflex
ENCODING 710
SWIDTH 267 0
DWIDTH 9 0
BBX 9 6 0 16
BITMAP
02C000
0BF400
2FFD00
BFFF40
7D2F00
140900
ENDCHAR
STARTCHAR caron
ENCODING 711
SWIDTH 267 0
DWIDTH 9 0
BBX 9 7 0 16
BITMAP
100400
3C1E00
BFBF40
3FFE00
0FF800
02E000
004000
ENDCHAR
STARTCHAR breve
ENCODING 728
SWIDTH 220 0
DWIDTH 7 0
BBX 7 5 0 17
BITMAP
A8A8
FCBC
BFFC
7FF4
0A90
ENDCHAR
STARTCHAR dotaccent
ENCODING 729
SWIDTH 125 0
DWIDTH 4 0
BBX 4 4 0 17
BITMAP
7D
FF
FF
69
ENDCHAR
STARTCHAR ring
ENCODING 730
SWIDTH 192 0
DWIDTH 6 0
BBX 6 7 0 16
BITMAP
0A40
7FD0
BAF0
F0F0
BAF0
7FD0
0540
ENDCHAR
STARTCHAR ogonek
ENCODING 731
SWIDTH 212 0
DWIDTH 7 0
BBX 7 7 0 -6
BITMAP
0B40
2E00
BD00
FD90
FFF4
7FF4
1A40
ENDCHAR
STARTCHAR tilde
ENCODING 732
SWIDTH 321 0
DWIDTH 10 0
BBX 11 6 0 16
BITMAP
2F82F0
BFF6F4
FFFFF4
FDBFF0
BD1FD0
540000
ENDCHAR
STARTCHAR hungarumlaut
ENCODING 733
SWIDTH 384 0
DWIDTH 12 0
BBX 12 8 0 16
BITMAP
024000
07E074
0FF8FD
2FF6FF
BFCBFD
BE1FF4
280B80
000200
ENDCHAR
STARTCHAR uni0312
ENCODING 786
SWIDTH 192 0
DWIDTH 6 0
BBX 4 7 1 17
BITMAP
14
3C
B8
FE
FF
FF
7D
ENDCHAR
STARTCHAR uni0315
ENCODING 789
SWIDTH 132 0
DWIDTH 4 0
BBX 5 7 0 16
BITMAP
1400
BE00
FF40
BF40
2F00
2E00
2C00
ENDCHAR
STARTCHAR uni0326
ENCODING 806
SWIDTH 193 0
DWIDTH 6 0
BBX 5 7 1 -8
BITMAP
1400
BE00
FF40
BF40
2F00
2E00
2C00
ENDCHAR
STARTCHAR pi
ENCODING 960
SWIDTH 555 0
DWIDTH 18 0
BBX 18 17 0 0
BITMAP
6AAAAAAA80
7FFFFFFFD0
7FFFFFFFD0
7FFFFFFFD0
6BFEAFFA80
02FD0BF800
02FD0BF800
02FD0BF800
02FD0BF800
02FD0BF800
02FD0BF800
02FD0BF800
02FD0BF800
02FD0BF800
02FD0BF800
02FD0BF800
02FD0BF800
ENDCHAR
STARTCHAR Wgrave
ENCODING 7808
SWIDTH 819 0
DWIDTH 26 0
BBX 23 31 2 -1
BITMAP
000380000000
000BE0000000
002FF8000000
001BFE000000
0001FF000000
00002D000000
000000000000
550015400550
FF403FD00FF4
FF403FD00FF4
FF403FD00FF4
FF403FD00FF4
FF403FD00FF4
FF403FD00FF4
FF403FD00FF4
FF403FD00FF4
FF403FD00FF4
FF403FD00FF4
FF403FD00FF4
FF403FD00FF4
FF403FD00FF4
FF403FD00FF4
FF403FD00FF4
FF403FD01FF4
FF807FE01FF4
BFE5FFF57FF0
7FFFFFFFFFE0
2FFFFFFFFFC0
0BFFFFFFFF40
02FFE0BFF800
001500054000
ENDCHAR
STARTCHAR wgrave
ENCODING 7809
SWIDTH 756 0
DWIDTH 24 0
BBX 22 25 1 -1
BITMAP
000740000000
001FD0000000
003FF4000000
001FFD000000
0002FE000000
000068000000
000000000000
6A802A801AA0
BF803FD02FE0
BF803FD02FE0
BF803FD02FE0
BF803FD02FE0
BF803FD02FE0
BF803FD02FE0
BF803FD02FE0
BF803FD02FE0
BF803FD02FE0
BF803FD02FE0
7FC03FD02FE0
7FD0BFF07FE0
3FFFFFFFFFD0
1FFFFFFFFF80
0BFFFFFFFE00
01FFE4BFF400
000500054000
ENDCHAR
STARTCHAR Wacute
ENCODING 7810
SWIDTH 819 0
DWIDTH 26 0
BBX 23 31 2 -1
BITMAP
0000002C0000
000000BE0000
000002FF8000
00000BFE4000
00000BF40000
000003800000
000000000000
550015400550
FF403FD00FF4
FF403FD00FF4
FF403FD00FF4
FF403FD00FF4
FF403FD00FF4
FF403FD00FF4
FF403FD00FF4
FF403FD00FF4
FF403FD00FF4
FF403FD00FF4
FF403FD00FF4
FF403FD00FF4
FF403FD00FF4
FF403FD00FF4
FF403FD00FF4
FF403FD01FF4
FF807FE01FF4
BFE5FFF57FF0
7FFFFFFFFFE0
2FFFFFFFFFC0
0BFFFFFFFF40
02FFE0BFF800
001500054000
ENDCHAR
STARTCHAR wacute
ENCODING 7811
SWIDTH 756 0
DWIDTH 24 0
BBX 22 25 1 -1
BITMAP
0000001D0000
0000007F4000
000001FFC000
000007FF4000
000007F80000
000002D00000
000000000000
6A802A801AA0
BF803FD02FE0
BF803FD02FE0
BF803FD02FE0
BF803FD02FE0
BF803FD02FE0
BF803FD02FE0
BF803FD02FE0
BF803FD02FE0
BF803FD02FE0
BF803FD02FE0
7FC03FD02FE0
7FD0BFF07FE0
3FFFFFFFFFD0
1FFFFFFFFF80
0BFFFFFFFE00
01FFE4BFF400
000500054000
ENDCHAR
STARTCHAR Wdieresis
ENCODING 7812
SWIDTH 819 0
DWIDTH 26 0
BBX 23 29 2 -1
BITMAP
0002D0680000
000BF0FE0000
000BF4FE0000
0003E07D0000
000000000000
550015400550
FF403FD00FF4
FF403FD00FF4
FF403FD00FF4
FF403FD00FF4
FF403FD00FF4
FF403FD00FF4
FF403FD00FF4
FF403FD00FF4
FF403FD00FF4
FF403FD00FF4
FF403FD00FF4
FF403FD00FF4
FF403FD00FF4
FF403FD00FF4
FF403FD00FF4
FF403FD01FF4
FF807FE01FF4
BFE5FFF57FF0
7FFFFFFFFFE0
2FFFFFFFFFC0
0BFFFFFFFF40
02FFE0BFF800
001500054000
ENDCHAR
STARTCHAR wdieresis
ENCODING 7813
SWIDTH 756 0
DWIDTH 24 0
BBX 22 23 1 -1
BITMAP
0002D0690000
000BF0BE0000
000BF4FF0000
0003E07D0000
000000000000
6A802A801AA0
BF803FD02FE0
BF803FD02FE0
BF803FD02FE0
BF803FD02FE0
BF803FD02FE0
BF803FD02FE0
BF803FD02FE0
BF803FD02FE0
BF803FD02FE0
BF803FD02FE0
7FC03FD02FE0
7FD0BFF07FE0
3FFFFFFFFFD0
1FFFFFFFFF80
0BFFFFFFFE00
01FFE4BFF400
000500054000
ENDCHAR
STARTCHAR Ygrave
ENCODING 7922
SWIDTH 620 0
DWIDTH 20 0
BBX 18 30 1 0
BITMAP
00A0000000
02F8000000
07FE000000
02FFC00000
007FC00000
000B400000
0000000000
5540001550
FF40002FF0
FF40002FF0
FF40002FF0
FF40002FF0
FF40002FF0
FF40002FF0
FF40002FF0
FF80002FE0
BFC0007FE0
7FE000FFD0
3FFD5BFF80
1FFFFFFF40
0BFFFFFD00
01FFFFF400
002FFF8000
0007FC0000
0007FC0000
0007FC0000
0007FC0000
0007FC0000
0007FC0000
0007FC0000
ENDCHAR
STARTCHAR ygrave
ENCODING 7923
SWIDTH 562 0
DWIDTH 18 0
BBX 16 31 1 -7
BITMAP
02800000
0BE00000
1FF80000
0BFF0000
01FF0000
002D0000
00000000
6A4002A9
BF8003FD
BF8003FD
BF8003FD
BF8003FD
BF8003FD
BF8003FD
BF8003FD
BF8003FD
BF8003FD
BF8003FD
7FD00BFD
3FF42FFD
2FFFFFFD
0FFFFFFD
07FFFFFD
00BFFBFD
00054BFC
00006FF8
007FFFF0
007FFFD0
007FFF40
007FF800
00154000
ENDCHAR
STARTCHAR endash
ENCODING 8211
SWIDTH 418 0
DWIDTH 13 0
BBX 10 5 2 9
BITMAP
555550
FFFFE0
FFFFE0
FFFFE0
AAAA90
ENDCHAR
STARTCHAR emdash
ENCODING 8212
SWIDTH 719 0
DWIDTH 23 0
BBX 19 5 2 9
BITMAP
5555555554
FFFFFFFFFC
FFFFFFFFFC
FFFFFFFFFC
AAAAAAAAA8
ENDCHAR
STARTCHAR quoteleft
ENCODING 8216
SWIDTH 246 0
DWIDTH 8 0
BBX 6 9 1 14
BITMAP
0400
0F40
2F00
7E00
7FC0
BFE0
BFE0
7FD0
1A40
ENDCHAR
STARTCHAR quoteright
ENCODING 8217
SWIDTH 245 0
DWIDTH 8 0
BBX 6 9 1 14
BITMAP
0500
3F80
BFD0
BFD0
7FD0
1FD0
0FC0
1F40
0900
ENDCHAR
STARTCHAR quotesinglbase
ENCODING 8218
SWIDTH 264 0
DWIDTH 8 0
BBX 6 9 1 -4
BITMAP
0100
2F80
7FE0
7FF0
7FE0
1FE0
07D0
0F80
0700
ENDCHAR
STARTCHAR quotedblleft
ENCODING 8220
SWIDTH 445 0
DWIDTH 14 0
BBX 12 9 1 14
BITMAP
040010
0F40B4
2F01F4
7E02F4
7FC3FD
BFE7FF
BFE7FF
7FD3FE
1A40B8
ENDCHAR
STARTCHAR quotedblright
ENCODING 8221
SWIDTH 444 0
DWIDTH 14 0
BBX 12 9 1 14
BITMAP
050050
3F82FD
BFD7FE
BFD7FF
7FD3FE
1FD1BE
0FC07D
1F40F8
090060
ENDCHAR
STARTCHAR quotedblbase
ENCODING 8222
SWIDTH 463 0
DWIDTH 15 0
BBX 13 9 1 -4
BITMAP
01001000
2F81FD00
7FE3FF00
7FF3FF40
7FE2FF40
1FE0BF00
07D03E00
0F80BD00
07006400
ENDCHAR
STARTCHAR dagger
ENCODING 8224
SWIDTH 434 0
DWIDTH 14 0
BBX 12 30 1 -4
BITMAP
01AA00
01FF40
01FF40
01FF40
01FF40
01FF40
BFFFFE
FFFFFF
FFFFFF
FFFFFF
56FF95
01FF40
01FF40
01FF40
01FF40
01FF40
01FF40
01FF40
01FF40
01FF40
01FF40
01FF40
01FF40
01FF40
01FF40
01FF40
01FF40
01FF40
01FF40
005500
ENDCHAR
STARTCHAR daggerdbl
ENCODING 8225
SWIDTH 452 0
DWIDTH 14 0
BBX 12 30 1 -4
BITMAP
00AA40
00FF80
00FF80
00FF80
00FF80
00FF80
BFFFFF
BFFFFF
BFFFFF
BFFFFF
55FF95
00FF80
00FF80
00FF80
00FF80
00FF80
00FF80
00FF80
00FF80
BFFFFF
BFFFFF
BFFFFF
BFFFFF
15FF95
00FF80
00FF80
00FF80
00FF80
00FF80
005500
ENDCHAR
STARTCHAR bullet
ENCODING 8226
SWIDTH 354 0
DWIDTH 11 0
BBX 7 7 2 8
BITMAP
0B90
3FF4
7FFC
BFFC
7FF8
2FF4
0A90
ENDCHAR
STARTCHAR ellipsis
ENCODING 8230
SWIDTH 789 0
DWIDTH 25 0
BBX 23 6 1 -1
BITMAP
010001000000
2FC01FD00BE0
7FE03FF01FF4
7FE03FF42FF8
7FE02FF01FF4
1F800BD00BE0
ENDCHAR
STARTCHAR perthousand
ENCODING 8240
SWIDTH 998 0
DWIDTH 32 0
BBX 30 24 1 -1
BITMAP
06A4000550000000
1FFE000FD0000000
3FFF801FC0000000
7F5FC03F40000000
BD0FC0BE00000000
BD0BD0FD00000000
BD0BD2F800000000
BD0FC7F400000000
7F6FCBE000000000
3FFF5FC000000000
1FFE3F8000000000
01947F0000000000
0000FD2FD002FD00
0002FCFFF80FFF80
0003F6FFFD2FFFD0
000BE3F4BE3F4BE0
001FD3F07E3F07E0
002F83F03F3F03E0
007F03F07E3F07E0
00BE03F47E3F47E0
01FC02FEFD2FEFD0
03F401FFFC1FFFC0
07F0007FE007FE00
0000000540005400
ENDCHAR
STARTCHAR guilsinglleft
ENCODING 8249
SWIDTH 403 0
DWIDTH 13 0
BBX 11 16 1 0
BITMAP
000380
000FE0
003FF4
00BFE0
02FF80
0BFE00
2FF800
BFE000
BFE000
2FFC00
0BFF40
02FFD0
007FF4
001FF0
0007C0
000140
ENDCHAR
STARTCHAR guilsinglright
ENCODING 8250
SWIDTH 402 0
DWIDTH 13 0
BBX 11 16 1 0
BITMAP
0A0000
2F8000
7FE000
2FF800
0BFE00
02FF80
00BFE0
002FF8
003FF8
01FFE0
07FF80
1FFD00
7FF400
3FD000
1F4000
050000
ENDCHAR
STARTCHAR fraction
ENCODING 8260
SWIDTH 477 0
DWIDTH 15 0
BBX 15 23 0 0
BITMAP
00000054
000001FC
000003F4
00000BF0
00000FD0
00002F80
00003F40
0000BE00
0001FC00
0002F800
0007F000
000FD000
001FC000
003F4000
00BE0000
00FD0000
02F80000
07F40000
0BE00000
1FC00000
3F800000
7F000000
FD000000
ENDCHAR
STARTCHAR Euro
ENCODING 8364
SWIDTH 806 0
DWIDTH 26 0
BBX 24 24 1 -1
BITMAP
0000005AA400
000006FFFF90
00002FFFFFF8
0000FFFFFFFD
0003FFFEBFF8
000BFF9006F0
001FFD000050
0ABFFEA80000
1FFFFFFC0000
1FFFFFF80000
2FFFFFF40000
05BF95500000
15BFD5500000
7FFFFFF00000
7FFFFFE00000
BFFFFFD00000
AABFFE800000
001FFE000090
000BFFD01BF0
0002FFFFFFF8
0000BFFFFFFD
00002FFFFFF4
000002FFFF40
000000155000
ENDCHAR
STARTCHAR trademark
ENCODING 8482
SWIDTH 606 0
DWIDTH 19 0
BBX 16 9 2 14
BITMAP
55505450
FFF5FFFC
5B52DB5D
0B02C71D
0B02C71D
0B02C71D
0B02C71D
0B02C71D
06018609
ENDCHAR
STARTCHAR partialdiff
ENCODING 8706
SWIDTH 609 0
DWIDTH 20 0
BBX 18 26 1 -1
BITMAP
0005540000
000BFE0000
0003FF4000
0001FF8000
0000BFD000
00003FE000
00001FF400
00005FF800
002FFFFD00
01FFFFFE00
0BFFFFFF00
1FFFFFFF40
3FF807FF80
7FD001FF80
BFC000BFC0
BF80007FC0
FF40003FD0
BF80007FC0
BFC000BFC0
7FE001FF80
3FF807FF40
1FFFFFFE00
0BFFFFFC00
02FFFFE000
006FFE4000
0001500000
ENDCHAR
STARTCHAR product
ENCODING 8719
SWIDTH 632 0
DWIDTH 20 0
BBX 18 23 1 0
BITMAP
5555555550
BFFFFFFFF0
BFFFFFFFF0
BFFFFFFFF0
BFFFFFFFF0
03FE07FD00
03FE07FD00
03FE07FD00
03FE07FD00
03FE07FD00
03FE07FD00
03FE07FD00
03FE07FD00
03FE07FD00
03FE07FD00
03FE07FD00
03FE07FD00
03FE07FD00
03FE07FD00
03FE07FD00
03FE07FD00
03FE07FD00
03FE07FD00
ENDCHAR
STARTCHAR minus
ENCODING 8722
SWIDTH 543 0
DWIDTH 17 0
BBX 14 5 2 9
BITMAP
55555540
FFFFFFD0
FFFFFFD0
FFFFFFD0
AAAAAA90
ENDCHAR
STARTCHAR infinity
ENCODING 8734
SWIDTH 771 0
DWIDTH 25 0
BBX 23 15 1 3
BITMAP
006A4006A000
03FFF47FFE00
0FFFFEFFFF80
2FFFFFFFFFD0
3FFBFFFEFFE0
7FC0BFE02FF0
BF803FD00FF4
BF802FD00FF4
BF802FE00FF4
7FE07FF82FF0
3FFFFFFFFFE0
1FFFFFFFFFD0
0BFFFDFFFF40
02FFE47FFD00
001540069000
ENDCHAR
STARTCHAR approxequal
ENCODING 8776
SWIDTH 476 0
DWIDTH 15 0
BBX 12 14 2 4
BITMAP
064058
7FE0FD
BFFEFD
FFFFFC
FE7FF8
BD0BE0
550000
1A4068
7FF0FD
FFFEFD
FFFFFC
FE2FF8
BE0BE0
100000
ENDCHAR
STARTCHAR notequal
ENCODING 8800
SWIDTH 512 0
DWIDTH 16 0
BBX 14 20 1 1
BITMAP
00006A80
0000BF40
0000FF00
0001FE00
6AABFE90
7FFFFFE0
7FFFFFE0
7FFFFFE0
6AAFFA90
002FD000
157FD550
7FFFFFE0
7FFFFFE0
7FFFFFE0
7FFFFFE0
03FC0000
07F80000
0BF40000
0FF00000
1A900000
ENDCHAR
STARTCHAR fi
ENCODING 64257
SWIDTH 650 0
DWIDTH 21 0
BBX 20 25 0 0
BITMAP
0001BFD000
001FFFD2F8
007FFFD7FE
00FFFFDBFF
02FF954BFE
03FE0003FD
03FD000050
07FC000000
6BFEAAAAA8
7FFFFFFFFD
7FFFFFFFFD
7FFFFFFFFD
2BFEAAABFD
07FC0003FD
07FC0003FD
07FC0003FD
07FC0003FD
07FC0003FD
07FC0003FD
07FC0003FD
07FC0003FD
07FC0003FD
07FC0003FD
07FC0003FD
07FC0003FD
ENDCHAR
STARTCHAR fl
ENCODING 64258
SWIDTH 631 0
DWIDTH 20 0
BBX 19 25 0 0
BITMAP
0001BFFFF8
001FFFFFF8
007FFFFFF8
00FFFFFFF8
02FF955BF8
03FE000BF8
03FD000BF8
07FC000BF8
6BFEAA4BF8
7FFFFF4BF8
7FFFFF4BF8
7FFFFF4BF8
2BFEAA0BF8
07FC000BF8
07FC000BF8
07FC000BF8
07FC000BF8
07FC000BF8
07FC000BF8
07FC000BF8
07FC000BF8
07FC000BF8
07FC000BF8
07FC000BF8
07FC000BF8
ENDCHAR
STARTCHAR .notdef
ENCODING -1
SWIDTH 279 0
DWIDTH 9 0
BBX 1 1 0 0
BITMAP
00
ENDCHAR
STARTCHAR .null
ENCODING -1
SWIDTH 0 0
DWIDTH 0 0
BBX 1 1 0 0
BITMAP
00
ENDCHAR
STARTCHAR nonmarkingreturn
ENCODING -1
SWIDTH 279 0
DWIDTH 9 0
BBX 1 1 0 0
BITMAP
00
ENDCHAR
ENDFONT
